<svg width="188" height="41" viewBox="0 0 188 41" fill="none" xmlns="http://www.w3.org/2000/svg">
<path d="M4.08352 27.7094C3.94056 27.8626 3.76912 27.9834 3.57985 28.0641C3.39057 28.1449 3.18751 28.1839 2.98325 28.1789C2.77899 28.1839 2.57593 28.1449 2.38666 28.0641C2.19738 27.9834 2.02594 27.8626 1.88298 27.7094C1.73702 27.5594 1.62199 27.3794 1.54505 27.1807C1.46811 26.9821 1.4309 26.7689 1.43572 26.5545V15.0025C1.43493 14.7888 1.47433 14.5771 1.55166 14.3794C1.62898 14.1817 1.74272 14.0019 1.88634 13.8505C2.02996 13.699 2.20065 13.5787 2.38862 13.4966C2.5766 13.4145 2.77816 13.3721 2.98176 13.3719C3.18611 13.3709 3.38864 13.4124 3.57765 13.4939C3.76666 13.5755 3.9384 13.6955 4.08297 13.8471C4.22754 13.9987 4.34208 14.1789 4.41996 14.3772C4.49785 14.5755 4.53754 14.788 4.53675 15.0025V26.5545C4.54035 26.7693 4.502 26.9826 4.42405 27.1812C4.3461 27.3799 4.23021 27.5596 4.08352 27.7094Z" fill="white"/>
<path d="M29.6685 19.4375C29.5741 18.9553 29.3869 18.4984 29.1184 18.0948C28.8254 17.6654 28.4437 17.3113 28.0017 17.0588C27.5266 16.7751 26.9223 16.6332 26.1888 16.6332H14.5063C13.7509 16.6332 13.1411 16.7751 12.677 17.0588C12.2418 17.3146 11.866 17.6684 11.5767 18.0948C11.3103 18.4989 11.1251 18.9557 11.0325 19.4375C10.9393 19.878 10.8893 20.3274 10.8834 20.7786V26.5546C10.8827 26.8769 10.7911 27.1919 10.6203 27.4598C10.4494 27.7276 10.2068 27.9365 9.92307 28.0599C9.63936 28.1834 9.32718 28.216 9.02584 28.1536C8.72451 28.0913 8.44749 27.9367 8.22966 27.7094C8.0837 27.5594 7.96867 27.3794 7.89173 27.1808C7.81479 26.9821 7.77758 26.769 7.7824 26.5546V20.7786C7.78571 19.8952 7.92207 19.0179 8.18643 18.1793C8.44663 17.3239 8.84338 16.5212 9.35975 15.8054C9.87026 15.0975 10.5079 14.5016 11.2368 14.0511C11.9938 13.592 12.8553 13.3572 13.7295 13.372H27.2965C28.1347 13.4025 28.9502 13.666 29.6596 14.1356C30.3474 14.5974 30.9458 15.1916 31.4233 15.8867C31.9147 16.6002 32.2919 17.3931 32.54 18.2341C32.7936 19.0572 32.9249 19.9165 32.9291 20.7817V26.5577C32.9291 26.9902 32.7654 27.4049 32.4741 27.7107C32.1827 28.0165 31.7876 28.1883 31.3756 28.1883C30.9636 28.1883 30.5684 28.0165 30.2771 27.7107C29.9858 27.4049 29.8221 26.9902 29.8221 26.5577V20.7786C29.8147 20.3272 29.7633 19.8778 29.6685 19.4375Z" fill="white"/>
<path d="M61.3124 13.8477C61.5304 14.0757 61.679 14.3666 61.7392 14.6834C61.7994 15.0002 61.7687 15.3287 61.6508 15.6271C61.5329 15.9255 61.3332 16.1804 61.0771 16.3596C60.821 16.5387 60.5199 16.6339 60.2122 16.6332H50.6303V26.5545C50.6303 26.7687 50.5901 26.9807 50.512 27.1786C50.434 27.3764 50.3195 27.5561 50.1753 27.7076C50.031 27.859 49.8598 27.9791 49.6713 28.061C49.4828 28.143 49.2808 28.1852 49.0768 28.1852C48.8728 28.1852 48.6708 28.143 48.4823 28.061C48.2938 27.9791 48.1226 27.859 47.9783 27.7076C47.834 27.5561 47.7196 27.3764 47.6415 27.1786C47.5635 26.9807 47.5233 26.7687 47.5233 26.5545V16.6332H37.8117C37.4278 16.5907 37.0714 16.404 36.8083 16.1074C36.6719 15.9617 36.5644 15.789 36.4922 15.5994C36.4201 15.4097 36.3846 15.2068 36.3879 15.0026C36.3871 14.7882 36.4268 14.5758 36.5046 14.3776C36.5823 14.1794 36.6967 13.9993 36.8412 13.8477C36.9856 13.6961 37.1571 13.576 37.346 13.4944C37.5348 13.4127 37.7372 13.3711 37.9414 13.3719H60.2122C60.4169 13.3677 60.6202 13.4077 60.8095 13.4896C60.9988 13.5714 61.17 13.6933 61.3124 13.8477Z" fill="white"/>
<path d="M71.6697 16.6332C70.9133 16.6332 70.3035 16.775 69.8403 17.0588C69.4052 17.3146 69.0294 17.6684 68.7401 18.0948C68.4716 18.4984 68.2844 18.9552 68.1899 19.4374C67.9951 20.3203 67.9951 21.2383 68.1899 22.1212C68.2847 22.6028 68.4718 23.0591 68.7401 23.4623C69.029 23.8891 69.4049 24.243 69.8403 24.4983C70.3045 24.7831 70.9143 24.925 71.6697 24.9239H89.5051C89.7091 24.9239 89.9111 24.9661 90.0996 25.048C90.288 25.13 90.4593 25.2501 90.6035 25.4015C90.7478 25.5529 90.8622 25.7327 90.9403 25.9305C91.0184 26.1284 91.0586 26.3404 91.0586 26.5545C91.0586 26.7687 91.0184 26.9807 90.9403 27.1785C90.8622 27.3764 90.7478 27.5561 90.6035 27.7076C90.4593 27.859 90.288 27.9791 90.0996 28.061C89.9111 28.143 89.7091 28.1851 89.5051 28.1851H70.6335C69.8002 28.2005 68.9801 27.9648 68.2705 27.506C67.578 27.0511 66.9785 26.4564 66.5067 25.7564C66.0135 25.0265 65.6363 24.2174 65.3901 23.3606C65.1382 22.5252 65.0075 21.6548 65.0024 20.7785C65.0058 19.8952 65.1421 19.0179 65.4065 18.1793C65.6691 17.322 66.0683 16.5177 66.5872 15.8006C67.0987 15.0945 67.7369 14.5001 68.4658 14.0511C69.2223 13.5922 70.0833 13.3574 70.957 13.3719H89.5051C89.9171 13.3719 90.3122 13.5437 90.6035 13.8495C90.8949 14.1553 91.0586 14.5701 91.0586 15.0026C91.0586 15.435 90.8949 15.8498 90.6035 16.1556C90.3122 16.4614 89.9171 16.6332 89.5051 16.6332H71.6697ZM89.2471 19.6237C89.4652 19.8518 89.6138 20.1428 89.674 20.4598C89.7342 20.7767 89.7033 21.1053 89.5852 21.4038C89.4671 21.7023 89.2672 21.9572 89.0109 22.1362C88.7545 22.3152 88.4533 22.4102 88.1454 22.4092H72.026C71.614 22.4092 71.2188 22.2374 70.9275 21.9316C70.6362 21.6258 70.4725 21.211 70.4725 20.7785C70.4725 20.3461 70.6362 19.9313 70.9275 19.6255C71.2188 19.3197 71.614 19.1479 72.026 19.1479H88.1454C88.3502 19.1441 88.5537 19.1844 88.7431 19.2662C88.9326 19.348 89.1041 19.4697 89.2471 19.6237Z" fill="white"/>
<path d="M116.793 13.8477C117.01 13.6189 117.287 13.463 117.589 13.3997C117.891 13.3365 118.203 13.3688 118.488 13.4925C118.772 13.6163 119.015 13.8258 119.186 14.0947C119.356 14.3635 119.447 14.6795 119.446 15.0026V24.8895C119.456 25.3239 119.382 25.7559 119.228 26.1594C119.074 26.5628 118.844 26.9294 118.552 27.2368C118.265 27.5477 117.92 27.7927 117.538 27.9565C117.157 28.1202 116.747 28.1992 116.335 28.1883C115.74 28.1856 115.157 28.0095 114.652 27.6797L99.8263 18.1652C99.4163 17.9164 99.0809 17.7192 98.8066 17.5705C98.6044 17.4447 98.3774 17.3692 98.1431 17.3499C97.8196 17.3499 97.6139 17.5658 97.5289 17.9962C97.4281 18.6131 97.3847 19.2389 97.3992 19.8647V26.5577C97.4056 26.7762 97.3702 26.9938 97.295 27.1976C97.2198 27.4015 97.1063 27.5874 96.9614 27.7443C96.8164 27.9013 96.6429 28.026 96.4511 28.1113C96.2593 28.1965 96.0532 28.2404 95.8449 28.2404C95.6367 28.2404 95.4305 28.1965 95.2388 28.1113C95.047 28.026 94.8735 27.9013 94.7285 27.7443C94.5835 27.5874 94.4701 27.4015 94.3949 27.1976C94.3197 26.9938 94.2842 26.7762 94.2907 26.5577V16.6676C94.2807 16.2332 94.3548 15.8011 94.5086 15.3976C94.6624 14.9942 94.8925 14.6276 95.1852 14.3203C95.472 14.0094 95.8171 13.7644 96.1987 13.6006C96.5802 13.4369 96.99 13.3579 97.4021 13.3688C97.705 13.3684 98.0064 13.4143 98.2967 13.505C98.5762 13.5908 98.8431 13.7166 99.0898 13.879L113.914 23.3919C114.324 23.6402 114.664 23.8384 114.933 23.9866C115.136 24.1125 115.364 24.188 115.598 24.2072C115.922 24.2072 116.126 23.9928 116.213 23.5609C116.313 22.944 116.357 22.3182 116.342 21.6924V15.0026C116.338 14.7879 116.376 14.5747 116.453 14.376C116.53 14.1773 116.646 13.9975 116.793 13.8477Z" fill="white"/>
<path d="M147.608 13.8477C147.826 14.0757 147.974 14.3666 148.034 14.6834C148.095 15.0002 148.064 15.3287 147.946 15.6271C147.828 15.9255 147.628 16.1804 147.372 16.3596C147.116 16.5387 146.815 16.6339 146.507 16.6332H136.925V26.5545C136.925 26.987 136.762 27.4018 136.47 27.7076C136.179 28.0134 135.784 28.1852 135.372 28.1852C134.96 28.1852 134.565 28.0134 134.273 27.7076C133.982 27.4018 133.818 26.987 133.818 26.5545V16.6332H124.108C123.724 16.5911 123.367 16.4043 123.104 16.1074C122.967 15.9617 122.86 15.789 122.787 15.5994C122.715 15.4097 122.68 15.2068 122.683 15.0026C122.682 14.7882 122.722 14.5758 122.8 14.3776C122.878 14.1794 122.992 13.9993 123.136 13.8477C123.281 13.6961 123.452 13.576 123.641 13.4944C123.83 13.4127 124.032 13.3711 124.237 13.3719H146.507C146.712 13.3677 146.915 13.4077 147.105 13.4896C147.294 13.5714 147.465 13.6933 147.608 13.8477Z" fill="white"/>
<path d="M177.125 17.1496L179.383 19.2481L187.105 12.458V1.40839L184.735 3.2127L183.529 4.13598L182.247 5.11716L181.957 5.33781C179.812 6.97625 177.38 8.8322 175.137 10.8728L174.804 11.1701C173.983 11.9009 173.052 12.735 172.523 14.0777C171.967 15.4738 171.934 17.0385 172.429 18.4594C173.131 20.3936 174.616 21.5641 175.927 22.5969C176.209 22.8191 176.474 23.0288 176.726 23.2401C178.403 24.6485 180.116 26.071 181.772 27.4434L183.72 29.0599V32.7859L172.068 23.1603L172.077 27.0725L186.706 39.2974V27.542L186.141 27.0725L183.624 24.9849C181.971 23.6141 180.262 22.1979 178.592 20.7926C178.305 20.5516 178.008 20.3232 177.719 20.09C176.638 19.2371 175.615 18.4312 175.22 17.3436C174.993 16.669 175.016 15.9294 175.284 15.2717C175.538 14.627 176.065 14.1575 176.735 13.5613C176.854 13.457 176.973 13.3526 177.093 13.2483C179.239 11.2953 181.616 9.48006 183.714 7.87919L184.003 7.65854L184.119 7.56934V10.9949L177.125 17.1496Z" fill="url(#paint0_linear_301_1007)"/>
<path d="M170.44 17.7677L170.43 13.8555L155.797 1.63531V13.3813L156.362 13.8508C157.2 14.5487 158.039 15.2451 158.879 15.9399C160.53 17.3108 162.241 18.727 163.909 20.1307C164.198 20.3733 164.495 20.608 164.782 20.8349C165.865 21.6878 166.888 22.4937 167.283 23.5813C167.509 24.256 167.486 24.9953 167.219 25.6532C166.965 26.2979 166.436 26.7674 165.768 27.362L165.41 27.6828C163.263 29.6358 160.887 31.4511 158.789 33.052L158.5 33.2726L158.384 33.3602V29.9331L165.383 23.7863L163.126 21.6815L155.403 28.4778V39.5243L157.774 37.7184L158.98 36.7952L160.262 35.8155L160.551 35.5949C162.697 33.9565 165.128 32.1005 167.372 30.0599C167.482 29.9597 167.593 29.8596 167.705 29.7626C168.525 29.0318 169.456 28.1977 169.986 26.8534C170.541 25.4574 170.575 23.8927 170.08 22.4718C169.376 20.5376 167.892 19.3686 166.582 18.3358C166.3 18.1136 166.035 17.9039 165.783 17.6926C164.106 16.2842 162.393 14.8617 160.735 13.4878L158.797 11.8728V8.13741L170.44 17.7677Z" fill="url(#paint1_linear_301_1007)"/>
<defs>
<linearGradient id="paint0_linear_301_1007" x1="172.068" y1="20.3513" x2="187.105" y2="20.3513" gradientUnits="userSpaceOnUse">
<stop stop-color="#FF0420"/>
<stop offset="1" stop-color="#BD2738"/>
</linearGradient>
<linearGradient id="paint1_linear_301_1007" x1="155.403" y1="20.5751" x2="170.44" y2="20.5751" gradientUnits="userSpaceOnUse">
<stop stop-color="#FF0420"/>
<stop offset="1" stop-color="#BD2738"/>
</linearGradient>
</defs>
</svg>
