<svg viewBox="0 0 24 24" fill="none" xmlns="http://www.w3.org/2000/svg">
  <g transform="translate(1.75 4.3) scale(1.02)">
    <path
      d="M20.4543 7.53986C20.4729 9.21862 20.1215 10.8228 19.4311 12.3554C18.4453 14.5378 16.0819 16.3222 13.9237 14.4228C12.1636 12.8746 11.837 9.73157 9.19993 9.27147C5.71075 8.84867 5.62679 12.8932 3.34731 13.3502C0.806615 13.8663 -0.0361384 9.59478 0.00117909 7.65489C0.0384966 5.71499 0.554722 2.98857 2.76267 2.98857C5.30337 2.98857 5.47441 6.83416 8.69926 6.62587C11.893 6.40825 11.949 2.40722 14.0357 0.694265C15.8362 -0.785528 17.954 0.299446 19.0144 2.08079C19.9971 3.72846 20.4294 5.66214 20.4512 7.53986H20.4543Z"
      fill="#50D2C1" />
  </g>
</svg>
