<svg viewBox="0 0 24 24" fill="none" xmlns="http://www.w3.org/2000/svg">
    <g clip-path="url(#clip0_8148_3566)">
        <mask id="mask0_8148_3566" style="mask-type:luminance" maskUnits="userSpaceOnUse" x="2" y="2" width="20"
            height="20">
            <path d="M22 2H2V22H22V2Z" fill="white" />
        </mask>
        <g mask="url(#mask0_8148_3566)">
            <mask id="mask1_8148_3566" style="mask-type:luminance" maskUnits="userSpaceOnUse" x="2" y="2" width="20"
                height="20">
                <path d="M22 2H2V22H22V2Z" fill="white" />
            </mask>
            <g mask="url(#mask1_8148_3566)">
                <path
                    d="M22 12C22 6.47715 17.5229 2 12 2C6.47715 2 2 6.47715 2 12C2 17.5229 6.47715 22 12 22C17.5229 22 22 17.5229 22 12Z"
                    fill="url(#paint0_linear_8148_3566)" />
                <path
                    d="M13.7005 13.9614C10.5508 14.8782 7.94519 16.2155 6.31419 17.7824L6.24219 17.8519C6.67589 18.2497 7.15146 18.6055 7.66554 18.9078L7.77606 18.7768C8.22149 18.2497 8.69872 17.7403 9.19609 17.26C10.5307 15.9713 12.0578 14.8555 13.7023 13.9597L13.7005 13.9614Z"
                    fill="#141416" />
                <path
                    d="M3.66602 12.6033C3.7916 14.2381 4.41788 15.7371 5.40083 16.9563L5.44605 16.9126C6.45579 15.9473 7.7703 15.0693 9.35611 14.3043C10.746 13.6333 12.3418 13.0576 14.0615 12.6033H3.66602Z"
                    fill="#141416" />
                <path
                    d="M10.0774 5.88456C12.8956 8.606 16.4423 10.4058 20.3322 11.0881C19.8634 7.05368 16.32 3.91504 12.0148 3.91504C10.8778 3.91504 9.79438 4.13496 8.80469 4.53112C9.20656 5.00006 9.63525 5.45606 10.0774 5.88456Z"
                    fill="#141416" />
                <path
                    d="M6.31419 6.21748C7.94519 7.78599 10.5508 9.12168 13.7005 10.0401C12.0562 9.14268 10.529 8.02855 9.19441 6.73978C8.69872 6.26115 8.22149 5.75179 7.77439 5.22302L7.66387 5.09204C7.14978 5.39442 6.67422 5.75017 6.24219 6.14795L6.31419 6.21748Z"
                    fill="#141416" />
                <path
                    d="M10.0774 18.1156C9.63356 18.5441 9.20494 19.0001 8.80469 19.469C9.79269 19.8652 10.8778 20.0851 12.0148 20.0851C16.32 20.0851 19.8634 16.9465 20.3339 12.9104C16.4439 13.5928 12.8972 15.3925 10.079 18.114L10.0774 18.1156Z"
                    fill="#141416" />
                <path
                    d="M9.35611 9.6956C7.7703 8.93078 6.45579 8.05271 5.44605 7.08736L5.40083 7.0437C4.41787 8.26291 3.7916 9.76191 3.66602 11.3967H14.0599C12.3401 10.9423 10.746 10.3667 9.35442 9.69397L9.35611 9.6956Z"
                    fill="#141416" />
            </g>
        </g>
    </g>
    <defs>
        <linearGradient id="paint0_linear_8148_3566" x1="22.2198" y1="9.54563" x2="1.80356" y2="9.54563"
            gradientUnits="userSpaceOnUse">
            <stop stop-color="#1A3746" />
            <stop offset="0.242213" stop-color="#2B588B" />
            <stop offset="0.367213" stop-color="#5A6B83" />
            <stop offset="0.742213" stop-color="#ED5409" />
            <stop offset="1" stop-color="#FFCB67" />
        </linearGradient>
        <clipPath id="clip0_8148_3566">
            <rect width="20" height="20" fill="white" transform="translate(2 2)" />
        </clipPath>
    </defs>
</svg>