<?xml version="1.0" encoding="UTF-8" standalone="no"?><!DOCTYPE svg PUBLIC "-//W3C//DTD SVG 1.1//EN" "http://www.w3.org/Graphics/SVG/1.1/DTD/svg11.dtd"><svg width="100%" height="100%" viewBox="0 0 2084 2084" version="1.1" xmlns="http://www.w3.org/2000/svg" xmlns:xlink="http://www.w3.org/1999/xlink" xml:space="preserve" xmlns:serif="http://www.serif.com/" style="fill-rule:evenodd;clip-rule:evenodd;stroke-linejoin:round;stroke-miterlimit:2;"><rect id="Logo---white" serif:id="Logo - white" x="0" y="-0" width="2083.33" height="2083.33" style="fill:none;"/><path d="M969.923,1190.21l-0.713,1.212l0.713,-1.212Zm71.779,-298.309l-40.986,58.807l40.986,58.093l40.987,-58.093l-40.987,-58.807Zm63.012,90.455l-39.133,60.304l103.927,147.479l79.834,-0l-144.699,-207.783l0.071,0Zm-63.012,97.227l-71.779,110.556l143.559,-0l-71.78,-110.556Zm72.564,111.768l-0.713,-1.212l0.713,1.212Zm-135.576,-208.923l-144.699,207.782l79.834,0l103.927,-147.479l-39.133,-60.232l0.071,-0.071Z" style="fill:#fff;fill-rule:nonzero;"/></svg>