<svg width="352" height="192" viewBox="0 0 352 192" fill="none" xmlns="http://www.w3.org/2000/svg">
<path d="M266 96C266 145.706 225.706 186 176 186C126.294 186 86 145.706 86 96C86 46.2944 126.294 6 176 6C225.706 6 266 46.2944 266 96Z" fill="url(#paint0_linear_1124_629)" stroke="#F8A0FA" stroke-width="12"/>
<path d="M69.7805 158.521C61.136 158.521 51.8657 156.48 42.2282 152.454L41.0291 151.951L41.0629 151.825L40.6882 151.667L40.7256 151.533L40.3509 151.371L40.3846 151.241L40.0099 151.086L40.0437 150.957L39.6689 150.798L39.7027 150.668L39.328 150.509L39.3617 150.38L38.987 150.221L39.0244 150.092L38.6497 149.933L38.6835 149.8L38.3088 149.641L38.3462 149.511L37.9715 149.356L38.0052 149.226L37.6305 149.067L37.668 148.938L37.2933 148.779L37.327 148.65L36.9523 148.491L36.9898 148.358L36.6151 148.199L36.6525 148.066L36.2778 147.91L36.3116 147.785L35.9368 147.626L35.9743 147.496L35.5996 147.337L35.6371 147.204L35.2624 147.049L35.2998 146.916L34.9251 146.757L34.9626 146.624L34.5879 146.468L34.6216 146.339L34.2469 146.18L34.2844 146.054L33.9097 145.895L33.9472 145.762L33.5724 145.607L33.6062 145.474L33.2315 145.319L33.2689 145.186L32.8942 145.027L32.9279 144.894L32.5532 144.738L32.5907 144.609L32.216 144.45L32.2497 144.32L31.875 144.165L31.9125 144.032L31.5378 143.873L31.5715 143.744L31.1968 143.581L31.2305 143.452L30.8558 143.296L30.8895 143.167L30.5148 143.008L30.5485 142.879L30.1738 142.72L30.2076 142.59L29.8329 142.431L29.8666 142.298L29.4919 142.139L29.5256 142.01L29.1509 141.851L29.1846 141.721L28.8099 141.562L28.8436 141.433L28.4689 141.278L28.5026 141.148L28.1279 140.989L28.1654 140.856L27.7907 140.697L27.8244 140.568L27.4497 140.409L27.4834 140.28L27.1087 140.121L27.1425 139.991L26.7677 139.836L26.8015 139.703L26.4268 139.548L26.4642 139.414L26.0895 139.252L26.1232 139.122L25.7485 138.967L25.7823 138.838L25.4076 138.679L25.4413 138.549L25.0666 138.394L25.1003 138.261L24.7256 138.106L24.7631 137.973L24.3883 137.81L24.4221 137.681L24.0474 137.522L24.0811 137.392L23.7064 137.237L23.7401 137.108L23.3654 136.949L23.3991 136.819L23.0244 136.66L23.0619 136.531L22.6872 136.372L22.7209 136.239L22.3462 136.08L22.3799 135.95L22.0052 135.791L22.0389 135.666L21.6642 135.507L21.6979 135.377L21.3232 135.218L21.3607 135.085L20.986 134.93L21.0235 134.797L20.6488 134.638L20.6862 134.508L20.3115 134.349L20.3452 134.22L19.9705 134.065L20.008 133.935L19.6333 133.776L19.6708 133.647L19.2961 133.484L19.3335 133.351L18.9588 133.196L18.9963 133.063L18.6216 132.904L18.6591 132.775L18.2844 132.616L18.3181 132.49L17.9434 132.335L17.9808 132.201L17.6061 132.046L17.6399 131.913L17.2651 131.754L17.3026 131.621L16.9279 131.462L16.9654 131.333L16.5907 131.174L16.6281 131.048L16.2534 130.889L16.2909 130.76L15.9162 130.601L15.6914 130.475L15.3167 130.316L15.3541 130.183L14.9794 130.024L15.0132 129.895L14.6384 129.736L14.6759 129.61L14.3012 129.451L14.3349 129.321L13.9602 129.163L13.9977 129.033L13.623 128.874L13.6605 128.741L13.2858 128.582L13.3195 128.453L12.9448 128.294L12.9785 128.164L12.6038 128.005L12.6375 127.876L12.2628 127.721L12.2965 127.591L11.9218 127.432L11.9593 127.299L11.5846 127.14L11.6183 127.007L11.2436 126.852L11.2811 126.722L10.9064 126.563L10.9401 126.434L10.5654 126.279L10.5991 126.146L10.2244 125.987L10.2619 125.857L9.88715 125.695L9.92087 125.565L9.54617 125.41L9.57989 125.277L9.20518 125.118L9.23891 124.992L8.8642 124.833L8.90167 124.704L8.52696 124.545L8.56443 124.412L8.18972 124.253L8.22345 124.123L7.84874 123.964L7.88246 123.835L7.50776 123.676L7.54148 123.547L7.16677 123.391L7.20049 123.262L6.82578 123.103L6.86326 122.974L6.48855 122.815L6.82953 121.569C6.89698 121.325 13.4544 97.1275 16.5382 76.7234L16.3584 76.5719L16.0174 76.2835L15.6726 75.9951L15.3317 75.7067L14.9869 75.4184L14.6422 75.13L14.3012 74.8416L13.9602 74.5533C13.8591 74.4719 13.7391 74.3684 13.6155 74.2612L13.2708 73.9765L12.9298 73.6845C12.8324 73.6068 12.7087 73.5033 12.585 73.3961C12.4614 73.2889 12.3677 73.2149 12.2441 73.1077C12.1204 73.0005 12.023 72.9266 11.8993 72.8193C11.7757 72.7121 11.682 72.6382 11.5583 72.531C11.4347 72.4238 11.3373 72.3498 11.2136 72.2426C11.09 72.1354 10.9963 72.0615 10.8726 71.9542C10.749 71.847 10.6516 71.7731 10.5279 71.6659C10.4042 71.5587 10.3106 71.4847 10.1869 71.3775C10.0633 71.2703 9.96584 71.1963 9.84219 71.0891C9.71853 70.9819 9.62111 70.908 9.49745 70.8008L9.15647 70.5124C9.05904 70.431 8.93539 70.3312 8.81174 70.224C5.71665 67.6693 1.9321 63.292 1.61734 57.0329C1.30259 50.7738 4.58503 44.1856 11.3598 37.3867C18.8951 29.7043 29.653 25.4785 41.5462 25.4785C52.5776 25.4785 63.8563 29.2199 70.987 35.2424L71.2456 35.4569L71.3318 35.5308L71.5941 35.7526L72.0175 36.1224L72.2798 36.3442L72.3622 36.4144L72.6208 36.6288L72.7032 36.7028L72.9468 36.9024L73.0442 36.9875L73.3027 37.2019L73.3889 37.2795L73.64 37.4866L73.7336 37.5679L73.9922 37.7823L74.0746 37.8563L74.3219 38.0633L74.4194 38.1446L74.6704 38.3517L74.7603 38.433L75.0076 38.64L75.1051 38.7214C75.18 38.7805 75.2699 38.8582 75.3636 38.9395L75.4498 39.0098L75.7009 39.2205L75.7908 39.2981L76.0381 39.5052L76.4765 39.8749L76.7388 40.093L76.8212 40.1632L77.0723 40.3777L77.1622 40.4516L77.4095 40.6586L77.5032 40.74L77.7543 40.947L77.8479 41.0283L78.1065 41.2465L78.1927 41.3167L78.44 41.5237L78.5336 41.6051C78.6086 41.6642 78.6948 41.7419 78.7847 41.8158L78.8784 41.8935L79.1369 42.1116L79.2194 42.1818L79.4742 42.3963L79.5641 42.4702L79.8189 42.6846L79.9051 42.7623L80.1636 42.9767L80.2498 43.0506L80.5009 43.2614L80.5908 43.3353L80.8494 43.5534L80.9355 43.6274L81.1941 43.8418L81.2803 43.9157L81.5276 44.1228L81.9622 44.4925L82.2245 44.7106L82.307 44.7809L82.5543 44.9879L82.6479 45.0692L82.9027 45.28L82.9927 45.3576L83.2512 45.572L83.3374 45.646L83.5772 45.8493L83.6784 45.9343L83.9332 46.1451L84.0231 46.2227L84.2817 46.4408L84.7088 46.8105L84.9636 47.025L85.0498 47.0989L85.3046 47.3096L85.3946 47.3873L85.6531 47.6054L85.7393 47.6757L85.9941 47.8901L86.0803 47.964L86.3313 48.1748L86.4213 48.2524L86.6761 48.4668L86.766 48.5408L87.032 48.7663L87.1107 48.8328L87.373 49.051L87.4517 49.1212L87.7103 49.3356L87.7964 49.4096C87.8714 49.4687 87.9651 49.5501 88.055 49.6277L88.1374 49.6979L88.3847 49.905L88.4822 49.9826L88.7407 50.2007L88.8231 50.2747C88.8943 50.3301 88.9843 50.4041 89.0704 50.4817L89.1679 50.5594L89.4152 50.7701L89.5088 50.8514L89.7674 51.0659L89.8536 51.1398L90.1046 51.3505L90.1946 51.4282C90.2732 51.4873 90.3632 51.565 90.4531 51.6426L90.5393 51.7165L90.7904 51.9273L90.884 52.0049L91.1276 52.2119L91.225 52.2933L91.4836 52.5077L91.5697 52.5817L91.8208 52.7924L91.9107 52.87L92.158 53.0771L92.5964 53.4468L92.8587 53.6649L92.9412 53.7351L93.1922 53.9459L93.2822 54.0235L93.537 54.2379L93.6269 54.3119L93.8854 54.53L93.9716 54.6039C94.0428 54.6594 94.1327 54.737 94.2227 54.8147L94.3126 54.8886L94.5674 55.1067L94.6573 55.1807C94.7323 55.2398 94.8222 55.3175 94.9159 55.3988L94.9983 55.4691L95.2494 55.6761L95.3393 55.7537L95.5979 55.9682L95.684 56.0458L95.9351 56.2565L96.025 56.3342L96.2686 56.5338L96.3698 56.6188L96.6246 56.837L96.7145 56.9109L96.9655 57.1216L97.0555 57.1993L97.314 57.4137L97.4002 57.4876L97.6662 57.7095L97.7412 57.776L97.996 57.9867L98.0859 58.0644C98.1609 58.1235 98.2508 58.2012 98.3407 58.2788L98.4269 58.3528L98.6892 58.5709L98.7716 58.6411C98.8428 58.6966 98.9253 58.7705 99.0114 58.8445L99.1126 58.9295C99.1876 58.9887 99.2775 59.0663 99.3674 59.1439L99.4573 59.2179L99.7084 59.4286L99.7983 59.5062L100.046 59.7133L100.143 59.7946L100.39 60.0017L100.484 60.083C100.559 60.1421 100.649 60.2198 100.735 60.2937L100.829 60.3714L101.084 60.5858L101.174 60.6597C101.248 60.7226 101.342 60.8002 101.432 60.8816L101.514 60.9518C101.586 61.0073 101.676 61.0849 101.762 61.1588L101.859 61.2365L102.107 61.4472L102.2 61.5248L102.459 61.743L102.545 61.8169C102.616 61.8724 102.706 61.95 102.792 62.0239L102.886 62.1016L103.144 62.3197L103.246 62.4047C106.91 61.1995 113.239 59.473 119.429 59.473C124.619 59.473 128.64 60.6893 131.382 63.0887L131.723 63.3808C131.84 63.4732 131.956 63.5693 132.068 63.6691C132.181 63.7689 132.297 63.8577 132.409 63.9575C132.522 64.0573 132.641 64.146 132.754 64.2459C132.866 64.3457 132.982 64.4344 133.095 64.5342C133.207 64.6341 133.327 64.7228 133.44 64.8226C133.552 64.9224 133.668 65.0112 133.781 65.111C133.893 65.2108 134.013 65.2995 134.125 65.3994C134.238 65.4992 134.354 65.5879 134.466 65.6877C134.579 65.7875 134.699 65.8763 134.811 65.9761C134.923 66.0759 135.04 66.1646 135.152 66.2645C135.264 66.3643 135.384 66.453 135.497 66.5528C135.609 66.6527 135.725 66.7414 135.838 66.8412C135.95 66.941 136.07 67.0298 136.182 67.1296C136.295 67.2294 136.415 67.3181 136.527 67.4179C136.64 67.5178 136.756 67.6065 136.868 67.7063L137.213 67.9947L137.554 68.2831L137.899 68.5714L138.24 68.8598L138.584 69.1482L138.925 69.4365C139.042 69.5327 139.158 69.6288 139.27 69.7286C139.382 69.8284 139.502 69.9172 139.615 70.017C139.727 70.1168 139.843 70.2055 139.956 70.3054C140.068 70.4052 140.188 70.4939 140.301 70.5937C140.413 70.6935 140.529 70.7823 140.641 70.8821C140.754 70.9819 140.87 71.0706 140.982 71.1705C141.095 71.2703 141.215 71.359 141.327 71.4588L141.597 71.6807C142.411 69.3559 143.719 67.2296 145.433 65.4443C147.148 63.659 149.229 62.2558 151.538 61.3289C157.425 59.3473 162.798 58.3454 167.527 58.3454C173.844 58.3454 179.09 60.0978 183.118 63.5545C183.216 63.6322 183.332 63.732 183.448 63.8318L183.793 64.1202L184.149 64.4196L184.479 64.6969C184.599 64.7967 184.718 64.8966 184.835 65.0001L185.176 65.2848C185.277 65.3661 185.4 65.4696 185.52 65.5768L185.861 65.8615L186.206 66.1499C186.307 66.2312 186.427 66.3384 186.551 66.4419C186.674 66.5454 186.772 66.6231 186.892 66.7303L187.233 67.015L187.577 67.3033C187.675 67.3847 187.791 67.4808 187.907 67.5843C188.023 67.6878 188.139 67.7729 188.252 67.8727C188.364 67.9725 188.492 68.0723 188.627 68.1722L188.971 68.4605L189.312 68.7489L189.657 69.0373L189.983 69.3145L190.358 69.614L190.699 69.9024C190.796 69.98 190.912 70.0798 191.028 70.1797L191.384 70.4791L191.714 70.7564C191.838 70.8562 191.954 70.956 192.089 71.0596C192.224 71.1631 192.303 71.2333 192.419 71.3331L192.793 71.6326C192.895 71.7139 193.018 71.8174 193.138 71.9247C193.258 72.0319 193.348 72.0984 193.468 72.1982L193.843 72.4977L194.184 72.7861C194.281 72.8637 194.397 72.9635 194.513 73.0671C194.629 73.1706 194.753 73.263 194.869 73.3665C194.985 73.47 195.094 73.5514 195.214 73.6549C195.278 73.7066 195.356 73.7695 195.435 73.8397C201.921 63.1885 212.334 56.9035 223.501 56.9035C228.035 56.953 232.518 57.8512 236.713 59.5506C237.92 60.1133 239.035 60.851 240.022 61.7393L240.366 62.0276L240.707 62.316L241.052 62.6044L241.393 62.8928L241.738 63.1811C241.85 63.2735 241.963 63.3697 242.079 63.4732C242.195 63.5767 242.307 63.658 242.423 63.7616C242.54 63.8651 242.648 63.9464 242.764 64.0499C242.881 64.1534 242.993 64.2348 243.109 64.3383L243.45 64.623L243.795 64.915L244.14 65.2034L244.481 65.4918L244.825 65.7802L245.166 66.0685L245.511 66.3569L245.856 66.6453L246.197 66.9336L246.538 67.222C246.654 67.3144 246.766 67.4106 246.882 67.5104L247.227 67.7987L247.568 68.0871L247.913 68.3755L248.254 68.6639C248.366 68.7563 248.482 68.8524 248.599 68.9559C248.715 69.0594 248.823 69.1408 248.94 69.2443C249.056 69.3478 249.168 69.4291 249.284 69.529C249.401 69.6288 249.509 69.7175 249.625 69.821C249.741 69.9246 249.854 70.0096 249.97 70.1094C250.086 70.2092 250.195 70.2943 250.311 70.3978C250.427 70.5013 250.54 70.5826 250.656 70.6861L250.997 70.9745C251.109 71.0669 251.225 71.1594 251.342 71.2629C251.458 71.3664 251.566 71.4477 251.682 71.5513L252.027 71.8396L252.372 72.128L252.713 72.4164L253.054 72.7047L253.399 72.9931L253.717 73.2593C256.516 67.2109 260.185 62.5896 264.636 59.5136C268.547 56.7682 273.224 55.2855 278.024 55.2694C280.992 55.2511 283.929 55.8548 286.643 57.0403C287.47 57.4104 288.235 57.9014 288.913 58.4969C289.033 58.5931 289.15 58.6892 289.258 58.789C289.367 58.8888 289.491 58.9776 289.603 59.0774C289.715 59.1772 289.835 59.2659 289.944 59.3658C290.053 59.4656 290.176 59.5543 290.289 59.6541C290.401 59.7539 290.521 59.8427 290.63 59.9425H290.652C291.402 56.8444 292.042 54.3969 292.612 52.6704C296.04 42.1781 293.226 38.6216 292.987 38.3628L290.896 36.6547L293.567 35.8857L315.345 28.9944L315.255 29.4196L315.69 29.2828L315.6 29.708L316.035 29.5712L315.941 29.9963L316.376 29.8595L316.286 30.2847L316.721 30.1479L316.631 30.5731L317.062 30.4363L316.972 30.8614L317.403 30.7246L317.331 31.172L317.766 31.0315L317.676 31.4567L318.111 31.3199L318.021 31.745L318.452 31.6082L318.362 32.0371L318.796 31.8966L318.706 32.3218L319.137 32.185L319.047 32.6138L319.478 32.477L319.388 32.9022L319.823 32.7617L319.733 33.1869L320.168 33.0501L320.078 33.479L320.509 33.3422L320.419 33.7636L320.85 33.6268L320.76 34.0557L321.198 33.9189L321.105 34.3441L321.536 34.2073L321.449 34.6324L321.88 34.4956L321.79 34.9208L322.225 34.784L322.135 35.2092L322.577 35.0909L322.487 35.516L322.918 35.3792L322.828 35.8044L323.263 35.6676L323.173 36.0928L323.604 35.956L323.514 36.3811L323.945 36.2443L323.855 36.6695L324.29 36.5327L324.188 36.9394L324.623 36.8026L324.533 37.2278L324.964 37.091L324.874 37.5161L325.309 37.3793L325.219 37.8045L325.654 37.6677L325.56 38.0929L325.991 37.9598L325.901 38.3812L326.339 38.2445L326.246 38.6733L326.68 38.5328L326.59 38.958L327.021 38.8212L326.931 39.2501L327.366 39.1096L327.276 39.5384L327.711 39.4016L327.621 39.8231L328.052 39.69L327.962 40.1152L328.396 39.9784L328.307 40.4035L328.737 40.2667L328.648 40.6919L329.078 40.5551L328.988 40.9803L329.423 40.8435L329.333 41.2686L329.768 41.1319L329.678 41.557L330.109 41.4202L330.019 41.8454L330.45 41.7086L330.36 42.1338L330.798 41.997L330.705 42.4221L331.139 42.2853L331.049 42.7105L331.48 42.5737L331.39 42.9989L331.825 42.8621L331.735 43.2873L332.17 43.1505L332.08 43.5756L332.511 43.4388L332.421 43.864L332.855 43.7272L332.766 44.1524L333.196 44.0156L333.107 44.4407L333.537 44.3039L333.448 44.7328L333.882 44.5923L333.792 45.0175L334.227 44.8807L334.137 45.3058L334.568 45.1691L334.478 45.5979L334.913 45.4611L334.823 45.8826L335.257 45.7458L335.164 46.1747L335.595 46.0379L335.505 46.463L335.943 46.3225L335.849 46.7514L336.284 46.6109L336.194 47.0398L336.625 46.903L336.535 47.3281L336.97 47.1913L336.88 47.6165L337.315 47.4797L337.225 47.9049L337.655 47.7681L337.566 48.1932L338 48.0565L337.91 48.4816L338.341 48.3448L338.251 48.77L338.682 48.6332L338.592 49.0584L339.027 48.9216L338.937 49.3467L339.372 49.2099L339.282 49.6351L339.713 49.4983L339.623 49.9235L340.057 49.7867L339.967 50.2118L340.402 50.075L340.312 50.5002L340.743 50.3634L340.649 50.7923L341.088 50.6518L340.998 51.0769L341.429 50.9402L341.339 51.3653L341.77 51.2285L341.68 51.6574L342.115 51.5206L342.025 51.9458L342.459 51.8053L342.369 52.2341L342.811 52.0973L342.722 52.5188L343.152 52.382L343.063 52.8109L343.497 52.6704L343.407 53.0992L343.842 52.9624L343.752 53.3876L344.183 53.2508L344.093 53.676L344.528 53.5392L344.438 53.9643L344.869 53.8276L344.779 54.2527L345.213 54.1159L345.12 54.5411L345.558 54.4043L345.464 54.8295L345.899 54.6927L345.809 55.1178L346.24 54.981L346.15 55.4062L346.585 55.2694L346.495 55.6946L346.93 55.5578L346.84 55.9829L347.271 55.8462L347.181 56.2713L347.615 56.1345L347.525 56.5597L347.956 56.4229L347.866 56.8481L348.297 56.715L348.207 57.1364L348.646 56.9996L348.552 57.4248L348.987 57.288L348.897 57.7169L349.328 57.5801L349.238 58.0052L349.672 57.8648L349.582 58.2936L350.013 58.1568L331.57 145.093L331.484 145.263C329.476 149.267 319.696 151.663 311.403 151.663C302.643 151.663 295.055 149.26 290.045 144.901L289.704 144.616L289.667 144.587L289.359 144.324L289.326 144.298L289.015 144.036L288.981 144.006L288.674 143.747L288.344 143.47C288.232 143.378 288.115 143.282 288.003 143.182L287.662 142.897L287.624 142.868L287.317 142.605L287.283 142.579L286.972 142.317L286.628 142.028C286.519 141.936 286.399 141.84 286.287 141.74C286.174 141.64 286.058 141.551 285.946 141.452H285.92L285.601 141.182L285.571 141.156L285.256 140.89L284.927 140.612L284.893 140.586L284.582 140.324L284.241 140.036L284.2 140.002L283.9 139.747L283.874 139.729L283.555 139.455L283.225 139.174C283.113 139.082 283.001 138.989 282.892 138.893L282.562 138.612L282.532 138.59L282.221 138.324L282.109 138.239L281.809 137.987L281.434 137.688L281.101 137.411C280.988 137.318 280.876 137.226 280.767 137.13L280.426 136.845L280.393 136.815L280.082 136.553L279.737 136.265L279.411 135.991L279.07 135.703L278.905 135.566C277.751 138.076 275.859 140.631 273.284 143.189C265.955 150.421 258.746 153.937 251.24 153.937C245.492 153.937 240.254 151.907 235.383 149.829C234.202 149.316 233.111 148.622 232.149 147.774C232.037 147.681 231.92 147.585 231.808 147.485C231.696 147.385 231.576 147.297 231.463 147.197C231.351 147.097 231.235 147.008 231.122 146.908C231.01 146.809 230.89 146.72 230.778 146.62L230.433 146.332L230.092 146.043L229.751 145.755L229.406 145.467L229.061 145.178L228.72 144.89C228.604 144.794 228.488 144.698 228.376 144.598C228.263 144.498 228.147 144.409 228.035 144.313L227.69 144.025L227.349 143.733C227.233 143.64 227.12 143.544 227.008 143.448C226.896 143.352 226.776 143.256 226.663 143.156C226.551 143.056 226.431 142.967 226.318 142.868C226.206 142.768 226.09 142.679 225.978 142.579C225.865 142.479 225.745 142.391 225.633 142.291C225.52 142.191 225.404 142.102 225.292 142.002C225.179 141.903 225.059 141.814 224.947 141.714C224.835 141.614 224.719 141.522 224.602 141.426L224.261 141.137L223.917 140.849L223.576 140.561L223.231 140.272L222.89 139.984L222.545 139.695L222.204 139.407C222.088 139.311 221.972 139.215 221.859 139.115C221.747 139.015 221.631 138.926 221.518 138.83L221.174 138.542L220.833 138.25L220.488 137.965L220.316 137.821C219.782 139.835 218.958 141.762 217.869 143.544L217.824 143.611L217.771 143.673C211.222 151.604 203.769 155.46 194.985 155.46C188.143 155.46 181.211 153.134 175.332 150.861C173.658 150.237 172.105 149.334 170.742 148.191C170.626 148.095 170.509 147.999 170.397 147.899C170.285 147.799 170.168 147.711 170.056 147.615C169.944 147.518 169.824 147.422 169.715 147.326C169.606 147.23 169.483 147.134 169.37 147.034C169.258 146.934 169.138 146.846 169.026 146.746C168.913 146.646 168.797 146.557 168.685 146.457C168.572 146.358 168.452 146.265 168.34 146.169C168.228 146.073 168.111 145.98 167.999 145.881C167.887 145.781 167.767 145.692 167.654 145.592L167.313 145.304C167.193 145.208 167.081 145.112 166.968 145.016L166.624 144.727L166.283 144.439C166.167 144.343 166.05 144.247 165.942 144.15C165.833 144.054 165.709 143.958 165.597 143.862L165.252 143.574L164.911 143.285L164.567 142.997L164.226 142.709C164.106 142.612 163.993 142.516 163.885 142.42C163.776 142.324 163.652 142.228 163.54 142.132C163.427 142.036 163.308 141.94 163.195 141.843L162.854 141.555C162.734 141.459 162.622 141.363 162.509 141.263C162.397 141.163 162.277 141.074 162.165 140.975L162.138 140.952C161.041 150.361 162.258 153.452 162.386 153.748L163.948 156.033L161.078 155.951H144.797V155.663H144.464V155.375H144.13V155.083H143.797V154.794H143.467V154.506H143.092V154.217H142.759V153.929H142.425V153.641H142.092V153.352H141.758V153.175C138.161 154.746 133.597 156.133 128.16 157.29C126.081 157.744 123.922 157.694 121.867 157.145C119.812 156.596 117.923 155.563 116.36 154.136C116.244 154.04 116.128 153.944 116.016 153.844C115.903 153.744 115.783 153.652 115.671 153.556C115.559 153.46 115.442 153.367 115.33 153.267C115.218 153.168 115.101 153.079 114.985 152.979C114.869 152.879 114.757 152.787 114.644 152.691C114.532 152.594 114.416 152.502 114.3 152.402C114.183 152.302 114.071 152.21 113.959 152.114C113.846 152.018 113.726 151.922 113.614 151.825L113.269 151.537L112.928 151.249C112.812 151.156 112.7 151.056 112.583 150.96L112.242 150.672L111.898 150.384L111.557 150.095L111.212 149.807L110.871 149.515L110.526 149.23L110.185 148.942C110.069 148.846 109.953 148.75 109.841 148.65C109.728 148.55 109.612 148.461 109.5 148.365C109.387 148.269 109.267 148.173 109.155 148.073C109.042 147.973 108.926 147.884 108.814 147.785C108.701 147.685 108.581 147.596 108.469 147.496C108.357 147.396 108.241 147.308 108.128 147.208C108.016 147.108 107.896 147.016 107.783 146.919C107.671 146.823 107.555 146.731 107.442 146.631C107.33 146.531 107.21 146.443 107.098 146.343C106.985 146.243 106.869 146.151 106.753 146.054L106.412 145.766L106.067 145.478L105.726 145.189L105.381 144.901L105.041 144.613C104.924 144.52 104.812 144.42 104.696 144.324C104.58 144.228 104.467 144.132 104.355 144.036L104.01 143.747L103.669 143.459L103.324 143.171L103.126 143.004C102.002 144.616 100.758 146.25 99.4049 147.873L99.3787 147.903L99.3487 147.936C98.9477 148.361 89.2428 158.521 69.7805 158.521Z" fill="#2761A6"/>
<path d="M41.5469 26.9576C52.6533 26.9576 63.3512 30.736 70.0247 36.3667L70.3694 36.655L70.7104 36.9434L71.0552 37.2318L71.3962 37.5201L71.7409 37.8085L72.0819 38.0969C72.2018 38.193 72.3142 38.2891 72.4266 38.3853L72.7713 38.6773C72.8875 38.7698 72.9999 38.8659 73.1123 38.962L73.457 39.2541C73.5732 39.3465 73.6856 39.4463 73.798 39.5424C73.9104 39.6386 74.0266 39.7347 74.1428 39.8308C74.2589 39.9269 74.3713 40.0231 74.4837 40.1192C74.5962 40.2153 74.7123 40.3114 74.8285 40.4075C74.9446 40.5037 75.0571 40.5998 75.1695 40.6959C75.2819 40.792 75.398 40.8882 75.5142 40.9843L75.8552 41.2727L76.1999 41.561L76.5409 41.8494C76.6608 41.9455 76.7732 42.0416 76.8856 42.1378L77.2304 42.4261L77.5713 42.7145L77.9161 43.0029L78.2571 43.2913L78.6018 43.5796L78.9428 43.868L79.2875 44.1564L79.6285 44.4447L79.9732 44.7331L80.3142 45.0215L80.6589 45.3135C80.7751 45.406 80.8875 45.5021 80.9999 45.6019C81.1123 45.7017 81.2322 45.7942 81.3446 45.8903C81.4571 45.9864 81.5732 46.0825 81.6856 46.1787C81.798 46.2748 81.918 46.3709 82.0304 46.467C82.1428 46.5631 82.2589 46.6593 82.3751 46.7554C82.4912 46.8515 82.6037 46.9476 82.7161 47.0438L83.0608 47.3321L83.4018 47.6205L83.7465 47.9089L84.0875 48.1973L84.4322 48.4856L84.7732 48.774L85.118 49.0624L85.4589 49.3507L85.8037 49.6391L86.1447 49.9275L86.4894 50.2158L86.8341 50.5042L87.1751 50.7926L87.5198 51.081L87.8608 51.3693L88.2055 51.6577L88.5465 51.9498C88.6627 52.0422 88.7751 52.142 88.8913 52.2381C89.0074 52.3343 89.1198 52.4304 89.2323 52.5265C89.3447 52.6226 89.4608 52.7188 89.577 52.8149C89.6931 52.911 89.8056 53.0071 89.918 53.1032L90.2627 53.3916L90.6037 53.68L90.9484 53.9684L91.2894 54.2567C91.4093 54.3529 91.5217 54.449 91.6341 54.5451L91.9789 54.8335L92.3198 55.1218L92.6646 55.4102L93.0056 55.6986L93.3503 55.9869L93.6913 56.2753L94.036 56.5637L94.377 56.8521L94.7217 57.1404L95.0627 57.4288L95.4074 57.7172L95.7522 58.0092C95.8683 58.1017 95.9807 58.2015 96.0932 58.2976C96.2056 58.3937 96.3217 58.4899 96.4341 58.586C96.5466 58.6821 96.6665 58.7782 96.7789 58.8744C96.8913 58.9705 97.0074 59.0666 97.1236 59.1627C97.2398 59.2588 97.3522 59.355 97.4646 59.4511L97.8093 59.7395L98.1503 60.0278L98.495 60.3162L98.836 60.6046L99.1808 60.893L99.5217 61.1813L99.8665 61.4697L100.207 61.7581L100.552 62.0464L100.893 62.3348L101.238 62.6232L101.583 62.9115L101.924 63.1999L102.268 63.4883L102.609 63.7767L102.935 64.0502C107.807 62.3681 113.933 60.9262 119.422 60.9262C123.75 60.9262 127.707 61.8172 130.401 64.1907C130.518 64.2832 130.634 64.3793 130.742 64.4791C130.851 64.5789 130.975 64.6676 131.087 64.7675C131.2 64.8673 131.319 64.956 131.432 65.0558C131.544 65.1557 131.66 65.2444 131.773 65.3442C131.885 65.444 132.005 65.5328 132.118 65.6326C132.23 65.7324 132.346 65.8211 132.459 65.921C132.571 66.0208 132.691 66.1095 132.803 66.2093L133.144 66.4977L133.489 66.7861L133.83 67.0744L134.175 67.3628L134.516 67.6512L134.86 67.9395C134.977 68.0357 135.093 68.1318 135.201 68.2316C135.31 68.3314 135.434 68.4202 135.546 68.52C135.659 68.6198 135.778 68.7085 135.891 68.8084C136.003 68.9082 136.119 68.9969 136.232 69.0967C136.344 69.1965 136.464 69.2853 136.577 69.3851C136.689 69.4849 136.805 69.5736 136.918 69.6735C137.03 69.7733 137.15 69.862 137.262 69.9618C137.375 70.0617 137.491 70.1504 137.603 70.2502C137.716 70.35 137.836 70.4388 137.948 70.5386C138.06 70.6384 138.177 70.7271 138.289 70.8269C138.401 70.9268 138.521 71.0155 138.634 71.1153C138.746 71.2151 138.862 71.3039 138.975 71.4037C139.087 71.5035 139.207 71.5922 139.319 71.6921C139.432 71.7919 139.548 71.8806 139.66 71.9804C139.773 72.0802 139.893 72.169 140.005 72.2688C140.118 72.3686 140.238 72.4573 140.346 72.5572C140.455 72.657 140.578 72.7494 140.691 72.8455L141.036 73.1339L141.377 73.4223L141.721 73.7107L142.062 73.999L142.407 74.2874C142.917 71.7217 144.061 69.3199 145.737 67.2954C147.414 65.2709 149.572 63.6863 152.018 62.6823C158.134 60.6231 163.241 59.7838 167.505 59.7838C174.287 59.7838 178.937 61.9096 182.119 64.6307L182.463 64.919L182.804 65.2074L183.149 65.4958L183.49 65.7842L183.835 66.0725L184.176 66.3609C184.292 66.457 184.408 66.5531 184.52 66.653C184.633 66.7528 184.749 66.8415 184.861 66.9413C184.974 67.0412 185.094 67.1299 185.206 67.2297C185.319 67.3295 185.435 67.4183 185.547 67.5181C185.66 67.6179 185.78 67.7066 185.892 67.8064C186.004 67.9063 186.121 67.9987 186.233 68.0948C186.345 68.1909 186.465 68.2871 186.578 68.3832L186.922 68.6716L187.263 68.9599L187.608 69.2483L187.949 69.5367L188.294 69.825L188.635 70.1134L188.98 70.4018L189.321 70.6902L189.665 70.9785L190.006 71.2669L190.351 71.5553L190.692 71.8436C190.812 71.9398 190.924 72.0359 191.037 72.132L191.378 72.4204C191.498 72.5165 191.61 72.6126 191.722 72.7088L192.063 72.9971C192.183 73.0932 192.296 73.1894 192.408 73.2892C192.521 73.389 192.637 73.4777 192.753 73.5776C192.869 73.6774 192.981 73.7661 193.094 73.8659C193.206 73.9658 193.326 74.0545 193.439 74.1543C193.551 74.2541 193.667 74.3465 193.78 74.4427C193.892 74.5388 194.012 74.6349 194.124 74.731C194.237 74.8272 194.353 74.9233 194.465 75.0194L194.81 75.3078L195.151 75.5962L195.496 75.8845L195.717 76.0694C200.925 66.8637 210.54 58.3826 223.501 58.3826C227.846 58.4289 232.142 59.2921 236.159 60.9262C237.213 61.4288 238.186 62.0815 239.048 62.8635L239.393 63.1519C239.505 63.2443 239.618 63.3404 239.734 63.4439C239.85 63.5474 239.962 63.6288 240.078 63.7286L240.423 64.0207C240.536 64.1131 240.648 64.2055 240.764 64.309L241.109 64.5974C241.221 64.6898 241.334 64.7823 241.45 64.8858C241.566 64.9893 241.678 65.0706 241.795 65.1741C241.911 65.2777 242.019 65.359 242.136 65.4625C242.252 65.566 242.364 65.6474 242.48 65.7509L242.821 66.0393L243.166 66.3276L243.507 66.616L243.852 66.9044L244.193 67.1927L244.537 67.4811L244.878 67.7695C244.995 67.8619 245.107 67.958 245.223 68.0579L245.568 68.3462L245.909 68.6346L246.254 68.923L246.595 69.2113L246.939 69.4997C247.052 69.5921 247.164 69.6882 247.28 69.7918C247.396 69.8953 247.509 69.9766 247.625 70.0801C247.741 70.1837 247.85 70.265 247.966 70.3685C248.082 70.472 248.195 70.5534 248.311 70.6569C248.427 70.7604 248.536 70.8417 248.652 70.9453C248.768 71.0488 248.88 71.1301 248.997 71.2336C249.113 71.3371 249.221 71.4185 249.337 71.522C249.454 71.6255 249.566 71.7069 249.682 71.8104L250.027 72.0987L250.368 72.3871L250.713 72.6755L251.054 72.9638L251.398 73.2522L251.739 73.5406L252.084 73.829L252.425 74.1173L252.77 74.4057L253.111 74.6941L253.456 74.9824L253.797 75.2708L254.141 75.5592L254.287 75.6812C260.358 61.0371 270.194 56.7485 278.025 56.7485C280.777 56.7254 283.502 57.2826 286.018 58.3826C286.722 58.6961 287.373 59.1151 287.947 59.6249C288.067 59.7173 288.18 59.8171 288.292 59.9132C288.405 60.0094 288.524 60.1055 288.633 60.2016C288.742 60.2977 288.865 60.3939 288.978 60.49C289.09 60.5861 289.21 60.6822 289.319 60.7783C289.427 60.8745 289.555 60.9706 289.664 61.0667C289.772 61.1628 289.896 61.259 290.005 61.3551C290.113 61.4512 290.241 61.5473 290.349 61.6435C290.458 61.7396 290.582 61.8357 290.69 61.9355C290.799 62.0353 290.926 62.1241 291.035 62.2239C291.144 62.3237 291.267 62.4124 291.376 62.5123C291.485 62.6121 291.507 62.6121 291.571 62.6675C292.455 58.745 293.298 55.4102 294.04 53.1439C298.023 40.9658 294.04 37.3131 294.04 37.3131L313.368 31.1982L313.278 31.6233L313.712 31.4865L313.619 31.9117L314.053 31.7749L313.963 32.2001L314.398 32.0633L314.308 32.4884L314.739 32.3517L314.649 32.7768L315.084 32.64L314.994 33.0652L315.425 32.9284L315.335 33.3536L315.769 33.2168L315.68 33.6419L316.11 33.5051L316.021 33.9303L316.455 33.7935L316.365 34.2187L316.796 34.0819L316.706 34.507L317.141 34.3702L317.051 34.7954L317.482 34.6586L317.392 35.0838L317.827 34.947L317.737 35.3722L318.171 35.2354L318.078 35.6605L318.512 35.5237L318.422 35.9489L318.857 35.8121L318.763 36.241L319.198 36.1005L319.108 36.5293L319.543 36.3888L319.453 36.8177L319.884 36.6809L319.794 37.1061L320.228 36.9693L320.139 37.3944L320.569 37.2576L320.48 37.6791L320.914 37.5423L320.824 37.9675L321.255 37.8307L321.165 38.2559L321.6 38.1191L321.51 38.5442L321.941 38.4074L321.851 38.8326L322.286 38.6958L322.196 39.121L322.627 38.9842L322.537 39.4093L322.971 39.2725L322.881 39.6977L323.316 39.5609L323.222 39.9861L323.657 39.8493L323.567 40.2744L324.002 40.1377L323.912 40.5628L324.343 40.426L324.253 40.8512L324.688 40.7144L324.598 41.1396L325.028 41.0028L324.939 41.4279L325.373 41.2911L325.283 41.7163L325.714 41.5795L325.624 42.0047L326.059 41.8679L325.969 42.2931L326.4 42.1563L326.31 42.5851L326.745 42.4446L326.655 42.8735L327.086 42.733L326.996 43.1619L327.43 43.0251L327.34 43.4502L327.775 43.3134L327.681 43.7386L328.116 43.6018L328.026 44.027L328.461 43.8902L328.367 44.3153L328.802 44.1785L328.712 44.6037L329.147 44.4669L329.057 44.8921L329.488 44.7553L329.398 45.1805L329.832 45.0437L329.742 45.4688L330.173 45.332L330.083 45.7572L330.518 45.6204L330.428 46.0456L330.859 45.9088L330.769 46.3339L331.204 46.1971L331.114 46.6223L331.545 46.4855L331.455 46.9107L331.889 46.7739L331.799 47.199L332.23 47.0623L332.14 47.4874L332.575 47.3506L332.485 47.7758L332.92 47.639L332.826 48.0642L333.261 47.9274L333.171 48.3525L333.606 48.2157L333.516 48.6409L333.947 48.5041L333.857 48.933L334.291 48.7925L334.201 49.2213L334.632 49.0808L334.542 49.5097L334.977 49.3729L334.887 49.7981L335.318 49.6613L335.228 50.0864L335.663 49.9497L335.573 50.3748L336.004 50.238L335.914 50.6632L336.348 50.5264L336.259 50.9516L336.689 50.8148L336.599 51.2399L337.034 51.1031L336.944 51.5283L337.375 51.3915L337.285 51.8167L337.72 51.6799L337.63 52.105L338.065 51.9682L337.971 52.3934L338.406 52.2566L338.316 52.6818L338.75 52.545L338.66 52.9701L339.091 52.8334L339.001 53.2585L339.436 53.1217L339.346 53.5469L339.777 53.4101L339.687 53.8353L340.122 53.6985L340.032 54.1236L340.463 53.9868L340.373 54.412L340.807 54.2752L340.718 54.7004L341.148 54.5636L341.059 54.9888L341.493 54.852L341.403 55.2808L341.834 55.1403L341.744 55.5692L342.179 55.4287L342.089 55.8576L342.524 55.7208L342.437 56.1644L342.872 56.0276L342.782 56.4528L343.217 56.316L343.127 56.7412L343.558 56.6044L343.468 57.0295L343.903 56.8927L343.813 57.3179L344.244 57.1811L344.154 57.6063L344.588 57.4695L344.498 57.8946L344.929 57.7578L344.839 58.183L345.274 58.0462L345.184 58.4714L345.615 58.3346L345.525 58.7597L345.96 58.623L345.87 59.0481L346.301 58.9113L346.211 59.3365L346.645 59.1997L346.555 59.6249L346.986 59.4881L346.896 59.9132L347.331 59.7764L347.241 60.2016L347.676 60.0648L347.582 60.49L348.017 60.3532L330.143 144.609C328.708 147.471 320.498 150.184 311.408 150.184C304.195 150.184 296.42 148.48 291.031 143.792C290.915 143.696 290.803 143.604 290.69 143.504L290.346 143.215L290.005 142.927L289.66 142.639L289.315 142.35L288.974 142.062L288.629 141.774L288.288 141.485L287.944 141.197L287.603 140.908L287.258 140.62L286.917 140.332C286.801 140.236 286.685 140.139 286.572 140.04C286.46 139.94 286.344 139.851 286.231 139.751C286.119 139.651 285.999 139.563 285.887 139.463C285.774 139.363 285.658 139.274 285.546 139.174C285.433 139.075 285.313 138.986 285.201 138.886L284.856 138.598C284.744 138.502 284.627 138.409 284.515 138.309L284.17 138.021C284.058 137.925 283.942 137.832 283.829 137.733C283.717 137.633 283.597 137.544 283.485 137.444C283.372 137.344 283.256 137.256 283.144 137.156L282.799 136.868L282.458 136.579L282.113 136.291L281.772 136.002L281.427 135.714L281.087 135.426L280.742 135.137L280.401 134.849L280.056 134.561L279.711 134.272L279.37 133.984L279.026 133.692C278.913 133.599 278.797 133.503 278.685 133.403C278.572 133.304 278.452 133.215 278.34 133.115L278.254 133.048C277.448 135.714 275.631 138.746 272.202 142.114C264.333 149.877 257.465 152.425 251.219 152.425C245.763 152.425 240.768 150.491 235.957 148.439C234.914 147.984 233.95 147.369 233.101 146.617L232.757 146.328L232.416 146.04L232.071 145.752L231.73 145.463L231.385 145.175L231.044 144.883C230.928 144.79 230.812 144.694 230.7 144.594C230.587 144.495 230.471 144.406 230.359 144.306C230.246 144.206 230.126 144.117 230.014 144.018C229.901 143.918 229.785 143.829 229.673 143.729C229.56 143.629 229.44 143.541 229.328 143.441C229.216 143.341 229.1 143.252 228.987 143.153C228.875 143.053 228.755 142.964 228.642 142.864C228.53 142.764 228.414 142.676 228.301 142.576C228.189 142.476 228.069 142.387 227.957 142.287C227.844 142.188 227.728 142.099 227.612 141.999C227.496 141.899 227.383 141.81 227.271 141.711C227.159 141.611 227.042 141.522 226.926 141.422C226.81 141.322 226.698 141.234 226.585 141.134C226.473 141.034 226.353 140.945 226.24 140.846L225.899 140.557L225.555 140.269L225.214 139.98L224.869 139.692L224.528 139.404L224.183 139.115L223.842 138.823C223.726 138.731 223.61 138.635 223.498 138.535C223.385 138.435 223.269 138.346 223.153 138.247C223.037 138.147 222.924 138.058 222.812 137.958C222.699 137.858 222.583 137.77 222.467 137.67C222.351 137.57 222.239 137.481 222.126 137.381C222.014 137.282 221.898 137.193 221.781 137.093C221.665 136.993 221.553 136.904 221.44 136.805C221.328 136.705 221.208 136.616 221.096 136.516C220.983 136.416 220.867 136.328 220.755 136.228C220.642 136.128 220.522 136.039 220.41 135.94C220.298 135.84 220.181 135.751 220.069 135.651C219.957 135.551 219.837 135.463 219.724 135.363C219.612 135.263 219.496 135.174 219.383 135.074L219.331 135.03C218.943 137.743 218.01 140.352 216.588 142.705C209.708 151.038 202.484 153.948 194.964 153.948C188.785 153.948 182.407 151.985 175.854 149.449C174.33 148.891 172.92 148.071 171.687 147.027C171.567 146.935 171.454 146.838 171.342 146.739C171.23 146.639 171.113 146.55 171.001 146.45C170.889 146.35 170.769 146.262 170.656 146.162C170.544 146.062 170.424 145.973 170.315 145.874C170.207 145.774 170.083 145.685 169.971 145.585C169.858 145.485 169.738 145.393 169.63 145.297C169.521 145.201 169.397 145.105 169.285 145.008C169.172 144.912 169.053 144.816 168.944 144.72C168.835 144.624 168.712 144.528 168.599 144.432L168.254 144.143L167.913 143.855C167.794 143.759 167.681 143.663 167.569 143.567L167.228 143.278C167.108 143.182 166.995 143.086 166.883 142.99L166.542 142.701C166.422 142.605 166.31 142.509 166.197 142.413C166.085 142.317 165.965 142.221 165.856 142.125C165.748 142.029 165.624 141.932 165.512 141.836C165.399 141.74 165.279 141.644 165.171 141.548C165.062 141.452 164.938 141.356 164.826 141.26C164.713 141.163 164.594 141.067 164.485 140.971C164.376 140.875 164.253 140.779 164.14 140.679C164.028 140.579 163.908 140.491 163.799 140.391C163.69 140.291 163.567 140.202 163.454 140.102C163.342 140.003 163.222 139.914 163.11 139.814C162.997 139.714 162.881 139.626 162.769 139.526C162.656 139.426 162.536 139.337 162.424 139.237C162.312 139.138 162.195 139.045 162.083 138.949C161.971 138.853 161.851 138.757 161.738 138.661L161.397 138.372C161.277 138.276 161.165 138.18 161.053 138.084L160.985 138.028C159.078 151.094 161.053 154.44 161.053 154.44H146.252V154.151H145.918V153.863H145.585V153.575H145.247V153.282H144.914V152.994H144.58V152.706H144.247V152.417H143.842V152.129H143.509V151.841H143.175V151.552H142.842V151.264H142.508V151.153C139.758 152.495 135.164 154.24 127.823 155.811C125.979 156.212 124.063 156.166 122.241 155.676C120.419 155.186 118.745 154.267 117.362 152.998C117.245 152.905 117.133 152.806 117.017 152.709C116.901 152.613 116.788 152.517 116.676 152.421C116.563 152.325 116.447 152.229 116.331 152.133C116.215 152.037 116.103 151.94 115.99 151.844L115.645 151.556L115.304 151.268L114.96 150.979L114.615 150.691L114.274 150.402L113.929 150.114L113.588 149.822C113.472 149.73 113.36 149.633 113.244 149.534C113.127 149.434 113.015 149.345 112.903 149.245C112.79 149.145 112.674 149.057 112.558 148.957C112.442 148.857 112.329 148.768 112.217 148.669C112.104 148.569 111.988 148.48 111.872 148.38C111.756 148.28 111.644 148.192 111.531 148.092C111.419 147.992 111.299 147.903 111.186 147.803C111.074 147.704 110.958 147.615 110.845 147.515C110.733 147.415 110.613 147.326 110.501 147.227C110.388 147.127 110.272 147.034 110.16 146.938C110.047 146.842 109.927 146.746 109.815 146.65C109.703 146.554 109.586 146.458 109.474 146.362C109.362 146.265 109.242 146.169 109.129 146.073C109.017 145.977 108.901 145.881 108.785 145.785L108.444 145.496L108.099 145.208L107.758 144.92L107.413 144.631L107.072 144.343L106.727 144.055L106.371 143.785C106.255 143.689 106.139 143.592 106.027 143.493C105.914 143.393 105.798 143.304 105.686 143.204C105.573 143.104 105.453 143.016 105.341 142.916C105.229 142.816 105.112 142.727 105 142.628C104.888 142.528 104.768 142.439 104.655 142.339C104.543 142.239 104.427 142.151 104.314 142.051C104.202 141.951 104.082 141.862 103.97 141.762C103.857 141.663 103.741 141.574 103.625 141.474C103.509 141.374 103.396 141.285 103.284 141.186C103.171 141.086 103.055 140.993 102.939 140.897L102.83 140.809C101.432 142.94 99.9079 144.99 98.2665 146.946C98.2665 146.946 88.8276 157.061 69.7886 157.061C62.2945 157.061 53.3015 155.49 42.8097 151.112C42.8097 151.112 42.8097 151.064 42.8471 150.975L42.4724 150.824L42.5062 150.687L42.1315 150.536C42.1315 150.536 42.1315 150.487 42.1689 150.399L41.7942 150.247C41.7942 150.247 41.7942 150.199 41.8317 150.11L41.457 149.955C41.457 149.955 41.457 149.911 41.4945 149.822L41.1197 149.667C41.1197 149.667 41.1197 149.622 41.1572 149.534L40.7825 149.378C40.7825 149.378 40.7825 149.334 40.82 149.245C40.6926 149.194 40.5652 149.145 40.4453 149.09C40.4453 149.09 40.4453 149.046 40.4827 148.957L40.108 148.802C40.108 148.802 40.108 148.757 40.1455 148.669L39.7708 148.513C39.7708 148.513 39.7708 148.469 39.8083 148.38L39.4336 148.225L39.4673 148.092L39.0926 147.936C39.0926 147.936 39.0926 147.892 39.13 147.803L38.7553 147.648L38.7891 147.515L38.4144 147.36C38.4144 147.36 38.4144 147.315 38.4518 147.227L38.0771 147.071L38.1108 146.938L37.7361 146.783C37.7361 146.783 37.7361 146.739 37.7736 146.65L37.3989 146.495L37.4326 146.362L37.0579 146.206C37.0579 146.206 37.0579 146.158 37.0954 146.073L36.7207 145.918C36.7207 145.918 36.7207 145.87 36.7581 145.781L36.3834 145.63C36.3834 145.63 36.3834 145.581 36.4209 145.493L36.0462 145.341C36.0462 145.341 36.0462 145.293 36.0837 145.204L35.709 145.053C35.709 145.053 35.709 145.005 35.7464 144.916L35.3717 144.764C35.3717 144.764 35.3717 144.716 35.4092 144.628L35.0345 144.476L35.0682 144.339L34.6935 144.188C34.6935 144.188 34.6935 144.14 34.731 144.051L34.3563 143.899L34.39 143.763L34.0153 143.607C34.0153 143.607 34.0153 143.563 34.0527 143.474L33.678 143.319L33.7118 143.186L33.3371 143.031C33.3371 143.031 33.3371 142.986 33.3745 142.897L32.9998 142.742L33.0335 142.609L32.6588 142.454C32.6588 142.454 32.6588 142.409 32.6963 142.321L32.3216 142.165C32.3216 142.165 32.3216 142.121 32.3591 142.032L31.9844 141.877C31.9844 141.877 31.9844 141.833 32.0218 141.744L31.6471 141.589C31.6471 141.589 31.6471 141.544 31.6846 141.456L31.3099 141.3C31.3099 141.3 31.3099 141.256 31.3474 141.167L30.9726 141.012C30.9726 141.012 30.9727 140.968 31.0101 140.879L30.6354 140.724C30.6354 140.724 30.6354 140.679 30.6729 140.59L30.2982 140.435C30.2982 140.435 30.2982 140.391 30.3356 140.302L29.9609 140.147L29.9947 140.014C29.871 139.958 29.7436 139.91 29.62 139.858C29.62 139.858 29.62 139.81 29.6574 139.725L29.2827 139.57L29.3164 139.433L28.9417 139.282C28.9417 139.282 28.9417 139.234 28.9792 139.145L28.6045 138.993L28.6382 138.857L28.2635 138.705C28.2635 138.705 28.2635 138.657 28.301 138.568L27.9263 138.417L27.96 138.28L27.5853 138.128C27.5853 138.128 27.5853 138.08 27.6228 137.991L27.2481 137.84C27.2481 137.84 27.2481 137.792 27.2855 137.703L26.9108 137.548C26.9108 137.548 26.9108 137.503 26.9483 137.415C26.8209 137.363 26.6935 137.315 26.5736 137.259C26.5736 137.259 26.5736 137.215 26.611 137.126L26.2363 136.971C26.2363 136.971 26.2363 136.927 26.2738 136.838L25.8991 136.683C25.8991 136.683 25.8991 136.638 25.9366 136.55L25.5619 136.394L25.5956 136.261L25.2209 136.106C25.2209 136.106 25.2209 136.062 25.2584 135.973L24.8836 135.818L24.685 135.651L24.3103 135.496C24.3103 135.496 24.3103 135.452 24.3478 135.363L23.9731 135.208L24.0068 135.074L23.6321 134.919C23.6321 134.919 23.6321 134.875 23.6696 134.786L23.2949 134.631L23.3286 134.498L22.9539 134.342C22.9539 134.342 22.9539 134.298 22.9914 134.209L22.6167 134.054C22.6167 134.054 22.6167 134.01 22.6541 133.921L22.2794 133.766C22.2794 133.766 22.2794 133.721 22.3169 133.633C22.1895 133.577 22.0621 133.529 21.9422 133.477C21.9422 133.477 21.9422 133.429 21.9797 133.341L21.605 133.189C21.605 133.189 21.605 133.141 21.6424 133.052L21.2677 132.901C21.2677 132.901 21.2677 132.853 21.3052 132.764L20.9305 132.612C20.9305 132.612 20.9305 132.564 20.9679 132.475L20.5932 132.324C20.5932 132.324 20.5932 132.276 20.6307 132.187L20.256 132.035L20.2897 131.899L19.915 131.747C19.915 131.747 19.915 131.699 19.9525 131.61L19.5778 131.459L19.6115 131.322L19.2368 131.167C19.2368 131.167 19.2368 131.122 19.2743 131.034L18.8996 130.878L18.9333 130.745L18.5586 130.59C18.5586 130.59 18.5586 130.546 18.596 130.457L18.2213 130.302L18.2551 130.168L17.8804 130.013C17.8804 130.013 17.8804 129.969 17.9178 129.88L17.5431 129.725C17.5431 129.725 17.5431 129.68 17.5806 129.592L17.2059 129.436C17.2059 129.436 17.2059 129.392 17.2434 129.303L16.8686 129.148C16.8686 129.148 16.8686 129.104 16.9061 129.015L16.5314 128.86C16.5314 128.86 16.5314 128.815 16.5689 128.727L16.1942 128.571C16.1942 128.571 16.1942 128.527 16.2316 128.438L15.8569 128.283L15.8907 128.15C15.767 128.094 15.6396 128.046 15.5159 127.995C15.5159 127.995 15.5159 127.95 15.5534 127.861L15.1787 127.706L15.2124 127.573C15.0888 127.518 14.9614 127.47 14.8377 127.418C14.8377 127.418 14.8377 127.37 14.8752 127.285L14.5005 127.129L14.5342 126.993L14.1595 126.841C14.1595 126.841 14.1595 126.793 14.197 126.704L13.8223 126.553L13.856 126.416L13.4813 126.264C13.4813 126.264 13.4813 126.216 13.5188 126.128L13.144 125.976C13.144 125.976 13.144 125.928 13.1815 125.839L12.8068 125.688C12.8068 125.688 12.8068 125.64 12.8443 125.551L12.4696 125.399C12.4696 125.399 12.4696 125.351 12.507 125.262L12.1323 125.111C12.1323 125.111 12.1323 125.063 12.1698 124.974L11.7951 124.819C11.7951 124.819 11.7951 124.774 11.8326 124.686L11.4579 124.53C11.4579 124.53 11.4579 124.486 11.4953 124.397C11.3679 124.346 11.2405 124.298 11.1206 124.242C11.1206 124.242 11.1206 124.198 11.1581 124.109L10.7834 123.954L10.8171 123.821L10.4424 123.665C10.4424 123.665 10.4424 123.621 10.4799 123.532L10.1052 123.377L10.1389 123.244L9.76418 123.089C9.76418 123.089 9.76418 123.044 9.80165 122.955L9.42694 122.8L9.46067 122.667L9.08596 122.512C9.08596 122.512 9.08596 122.467 9.12343 122.379L8.74872 122.223L8.78244 122.09L8.40773 121.935C8.40773 121.935 14.9614 97.0206 18.0377 76.1285L17.9253 76.0287L17.5656 75.7588L17.2246 75.4704L16.8799 75.1821L16.5389 74.8937L16.1942 74.6053L15.8494 74.317L15.5085 74.0286L15.1637 73.7402L14.8227 73.4519L14.478 73.1635L14.137 72.8751L13.7923 72.5868L13.4513 72.2984L13.1066 72.01L12.7656 71.7216L12.4209 71.4296L12.0799 71.1412L11.7351 70.8528L11.3942 70.5645L11.0494 70.2761L10.7084 69.9877C10.5923 69.8953 10.4799 69.7992 10.3637 69.6993L10.019 69.411L9.69673 69.1041C4.82553 65.0817 -3.76653 54.5747 12.3197 38.4185C20.4509 30.2517 31.175 26.9576 41.5469 26.9576ZM41.5469 24C29.2527 24 18.1127 28.3847 10.1839 36.3445C3.10937 43.4502 -0.307972 50.434 0.0217707 57.0998C0.284066 62.394 3.01943 67.4515 7.752 71.3556C7.86815 71.4554 7.98057 71.5516 8.09673 71.644L8.43771 71.9324L8.7787 72.2207L9.12343 72.5091L9.46816 72.7975L9.80914 73.0858L10.1539 73.3742C10.2663 73.474 10.3824 73.5702 10.4949 73.6626C10.6073 73.755 10.7234 73.8585 10.8396 73.951L11.1806 74.2393L11.5253 74.5314L11.8663 74.8161L12.211 75.1081L12.552 75.3965L12.893 75.6812L13.2415 75.9733C13.3539 76.0731 13.47 76.1692 13.5825 76.2616L13.9272 76.55L14.2682 76.8384L14.6129 77.1267L14.834 77.3153C11.7127 97.4532 5.34637 120.941 5.27892 121.181L4.60445 123.669L4.97916 123.828L4.94543 123.957L5.32014 124.116L5.28267 124.246L5.65738 124.405L5.62365 124.534L5.99836 124.693L5.96464 124.823L6.33935 124.981L6.30562 125.111L6.68033 125.27L6.64286 125.403L7.01757 125.558L6.98385 125.688L7.35855 125.847L7.32108 125.98L7.69579 126.135L7.66207 126.268L8.03677 126.423L8.00305 126.556L8.37776 126.712L8.34029 126.841L8.71499 127L8.67752 127.133L9.05223 127.292L9.01851 127.422L9.39322 127.577L9.35949 127.71L9.7342 127.869L9.69673 127.998L10.0714 128.154L10.0377 128.287L10.4124 128.446L10.3787 128.575L10.7534 128.734L10.7197 128.863L11.0944 129.022L11.0569 129.152L11.4316 129.311L11.3979 129.44L11.7726 129.599L11.7351 129.728L12.1099 129.887L12.0761 130.017L12.4508 130.176L12.4171 130.305L12.7918 130.464L12.7544 130.594L13.1291 130.753L13.0916 130.882L13.4663 131.041L13.4326 131.17L13.8073 131.329L13.7736 131.462L14.1483 131.618L14.1108 131.751L14.4855 131.906L14.4518 132.035L14.8265 132.194L14.789 132.324L15.1637 132.483L15.13 132.612L15.5047 132.771L15.4672 132.904L15.8419 133.063L15.8082 133.193L16.1829 133.352L16.1455 133.481L16.5202 133.636L16.4827 133.769L16.8574 133.925L16.8237 134.054L17.1984 134.213L17.1609 134.346L17.5356 134.505L17.5019 134.634L17.8766 134.793L17.8429 134.923L18.2176 135.082L18.1801 135.211L18.5548 135.37L18.5211 135.5L18.8958 135.659L18.8621 135.788L19.2368 135.947L19.1993 136.076L19.574 136.235L19.5403 136.365L19.915 136.524L19.8775 136.653L20.2523 136.812L20.2185 136.941L20.5932 137.1L20.5558 137.23L20.9305 137.389L20.893 137.518L21.2677 137.677L21.234 137.807L21.6087 137.966L21.5712 138.095L21.9459 138.254L21.9122 138.383L22.2869 138.542L22.2532 138.675L22.6279 138.831L22.5904 138.964L22.9651 139.119L22.9277 139.252L23.3024 139.407L23.2687 139.54L23.6434 139.696L23.6059 139.825L23.9806 139.984L23.9469 140.117L24.3216 140.276L24.2841 140.406L24.6588 140.565L24.6251 140.694L24.9998 140.853L24.9661 140.982L25.3408 141.141L25.3033 141.271L25.678 141.43L25.6443 141.559L26.019 141.718L25.9815 141.847L26.3563 142.006L26.3225 142.136L26.6972 142.295L26.6635 142.424L27.0382 142.583L27.0007 142.713L27.3755 142.872L27.338 143.001L27.7127 143.16L27.679 143.289L28.0537 143.448L28.0162 143.578L28.3909 143.737L28.3572 143.866L28.7319 144.025L28.6944 144.154L29.0691 144.313L29.0354 144.446L29.4101 144.602L29.3726 144.731L29.7474 144.89L29.7136 145.02L30.0883 145.179L30.0546 145.312L30.4293 145.467L30.3919 145.6L30.7666 145.755L30.7328 145.885L31.1075 146.044L31.0738 146.177L31.4485 146.332L31.4148 146.465L31.7895 146.62L31.752 146.75L32.1268 146.909L32.093 147.042L32.4677 147.201L32.4303 147.33L32.805 147.485L32.7712 147.619L33.146 147.778L33.1085 147.907L33.4832 148.066L33.4495 148.195L33.8242 148.354L33.7867 148.484L34.1614 148.643L34.1277 148.772L34.5024 148.931L34.4687 149.06L34.8434 149.219L34.8059 149.349L35.1806 149.508L35.1469 149.637L35.5216 149.796L35.4841 149.926L35.8588 150.084L35.8251 150.214L36.1998 150.373L36.1624 150.502L36.5371 150.661L36.5033 150.791L36.878 150.95L36.8406 151.079L37.2153 151.238L37.1816 151.371L37.5563 151.526L37.5188 151.659L37.8935 151.815L37.8598 151.948L38.2345 152.103L38.197 152.236L38.5717 152.391L38.538 152.521L38.9127 152.68L38.879 152.813L41.2809 153.815C51.1057 157.919 60.5708 160 69.4177 160C89.5283 160 99.6679 149.382 100.091 148.909L100.148 148.85L100.2 148.787C101.199 147.577 102.147 146.366 103.044 145.156C103.149 145.249 103.258 145.337 103.366 145.426C103.475 145.515 103.591 145.622 103.707 145.715C103.823 145.807 103.936 145.911 104.052 146.003C104.168 146.095 104.277 146.199 104.393 146.291C104.509 146.384 104.622 146.487 104.738 146.58C104.854 146.672 104.962 146.776 105.079 146.868C105.195 146.96 105.307 147.064 105.423 147.156C105.54 147.249 105.648 147.352 105.764 147.445C105.881 147.537 105.993 147.641 106.109 147.733C106.225 147.826 106.334 147.929 106.45 148.022C106.566 148.114 106.679 148.217 106.795 148.31C106.911 148.402 107.023 148.506 107.136 148.598L107.481 148.89L107.822 149.179L108.166 149.467L108.511 149.755L108.852 150.044L109.197 150.332L109.538 150.621L109.882 150.909L110.223 151.197L110.568 151.486L110.909 151.774L111.254 152.062L111.595 152.351C111.711 152.447 111.823 152.547 111.94 152.639L112.281 152.928C112.397 153.027 112.509 153.123 112.625 153.216C112.741 153.308 112.854 153.412 112.97 153.504C113.086 153.597 113.195 153.7 113.311 153.793C113.427 153.885 113.54 153.989 113.652 154.081L113.997 154.373L114.341 154.661L114.682 154.95L115.027 155.238C117.744 157.647 121.26 158.992 124.912 159.02C125.972 159.019 127.028 158.905 128.063 158.68C132.31 157.822 136.476 156.614 140.519 155.068H140.575V155.356H140.908V155.645H141.242V155.933H141.969V156.222H142.302V156.514H142.636V156.802H142.969V157.09H143.303V157.379H167.074L163.702 153.027C163.537 152.528 162.847 150.07 163.327 143.892L163.571 144.099L163.915 144.387C164.028 144.483 164.14 144.58 164.26 144.676C164.38 144.772 164.485 144.868 164.601 144.964L164.942 145.252L165.287 145.541C165.399 145.637 165.512 145.733 165.631 145.829L165.972 146.118C166.085 146.214 166.197 146.31 166.317 146.406L166.658 146.694C166.771 146.79 166.883 146.887 167.003 146.983L167.344 147.271L167.689 147.559L168.03 147.848C168.142 147.944 168.258 148.044 168.374 148.136C168.49 148.229 168.599 148.332 168.715 148.425C168.831 148.517 168.944 148.62 169.06 148.713C169.176 148.805 169.285 148.909 169.401 149.001L169.746 149.293C171.234 150.543 172.93 151.53 174.759 152.21C180.755 154.536 187.874 156.913 194.96 156.913C204.223 156.913 212.054 152.879 218.907 144.58L219.012 144.458L219.099 144.321C219.878 143.066 220.525 141.737 221.032 140.354L221.208 140.498C221.324 140.598 221.437 140.694 221.553 140.786C221.669 140.879 221.781 140.982 221.894 141.075C222.006 141.167 222.122 141.271 222.239 141.363C222.355 141.456 222.467 141.559 222.58 141.651C222.692 141.744 222.808 141.847 222.924 141.94C223.04 142.032 223.153 142.136 223.265 142.228C223.378 142.321 223.494 142.424 223.61 142.517C223.726 142.609 223.839 142.713 223.955 142.809C224.071 142.905 224.18 143.001 224.296 143.093C224.412 143.186 224.524 143.289 224.64 143.385L224.981 143.674L225.326 143.962L225.667 144.251L226.012 144.539C226.124 144.639 226.24 144.731 226.353 144.827L226.698 145.116L227.039 145.404L227.383 145.692L227.724 145.981C227.84 146.081 227.953 146.177 228.069 146.269C228.185 146.362 228.298 146.465 228.41 146.558C228.522 146.65 228.639 146.753 228.755 146.846C228.871 146.938 228.983 147.042 229.1 147.134C229.216 147.227 229.324 147.33 229.44 147.423C229.557 147.515 229.669 147.619 229.785 147.711C229.901 147.803 230.01 147.907 230.126 147.999C230.242 148.092 230.355 148.195 230.471 148.288C230.587 148.38 230.696 148.484 230.812 148.576C230.928 148.669 231.041 148.772 231.157 148.864C232.231 149.81 233.45 150.583 234.769 151.153C239.782 153.294 245.182 155.382 251.219 155.382C259.14 155.382 266.698 151.726 274.323 144.202C276.279 142.319 277.975 140.19 279.367 137.869L279.453 137.943H279.472L279.805 138.224C279.91 138.317 280.019 138.405 280.127 138.494L280.453 138.768C280.562 138.86 280.671 138.953 280.783 139.041L281.113 139.319L281.442 139.596L281.772 139.873L282.098 140.15L282.424 140.424H282.443L282.769 140.701L283.099 140.979C283.204 141.071 283.312 141.164 283.425 141.252C283.533 141.348 283.646 141.441 283.758 141.533L284.08 141.803L284.41 142.08L284.732 142.354H284.751C284.86 142.45 284.972 142.539 285.081 142.631C285.19 142.727 285.298 142.82 285.411 142.909L285.744 143.189C285.853 143.286 285.961 143.378 286.074 143.467L286.404 143.74L286.73 144.01L287.059 144.288L287.389 144.565L287.719 144.842L288.045 145.116L288.367 145.389C288.476 145.482 288.584 145.574 288.697 145.663C293.991 150.243 301.92 152.769 311.029 152.769C319.876 152.769 330.076 150.288 332.455 145.545L332.624 145.208L332.703 144.838L350.943 60.9447L352 55.9722L351.565 56.109L351.655 55.6838L351.224 55.8206L351.314 55.3917L350.88 55.5322L350.97 55.1071L350.535 55.2438L350.625 54.815L350.194 54.9518L350.284 54.5303L349.849 54.6671L349.939 54.2382L349.508 54.3787L349.598 53.9499L349.163 54.0867L349.253 53.6615L348.822 53.7983L348.912 53.3731L348.478 53.5099L348.568 53.0848L348.137 53.2216L348.227 52.7964L347.792 52.9332L347.882 52.508L347.447 52.6448L347.541 52.2196L347.106 52.3564L347.196 51.9313L346.762 52.0681L346.855 51.6429L346.421 51.7797L346.511 51.3545L346.076 51.4913L346.166 51.0662L345.735 51.203L345.825 50.7778L345.39 50.9146L345.48 50.4894L345.06 50.6188L345.15 50.1937L344.716 50.3305L344.806 49.9053L344.375 50.0421L344.465 49.6169L344.03 49.7537L344.12 49.3286L343.689 49.4653L343.779 49.0402L343.344 49.177L343.434 48.7518L343.003 48.8886L343.093 48.4634L342.659 48.6002L342.748 48.1751L342.314 48.3119L342.407 47.883L341.973 48.0198L342.063 47.5946L341.628 47.7314L341.718 47.3063L341.287 47.4431L341.377 47.0179L340.942 47.1547L341.032 46.7295L340.601 46.8663L340.691 46.4412L340.257 46.5779L340.347 46.1528L339.916 46.2896L340.006 45.8644L339.571 46.0012L339.661 45.576L339.23 45.7128L339.32 45.2877L338.885 45.4245L338.975 44.9993L338.544 45.1361L338.634 44.7109L338.199 44.8477L338.289 44.4225L337.859 44.5593L337.948 44.1342L337.514 44.271L337.604 43.8458L337.169 43.9826L337.259 43.5574L336.828 43.6942L336.918 43.2691L336.483 43.4059L336.573 42.9807L336.142 43.1175L336.232 42.6886L335.798 42.8291L335.888 42.404L335.457 42.5407L335.547 42.1119L335.112 42.2487L335.202 41.8272L334.771 41.964L334.861 41.5351L334.426 41.6756L334.516 41.2468L334.085 41.3836L334.175 40.9584L333.74 41.0952L333.83 40.67L333.399 40.8068L333.489 40.3817L333.055 40.5185L333.145 40.0933L332.71 40.2301L332.804 39.8049L332.369 39.9417L332.459 39.5166L332.024 39.6533L332.114 39.2282L331.683 39.365L331.773 38.9398L331.339 39.0766L331.432 38.6514L330.998 38.7882L331.088 38.3631L330.653 38.4999L330.743 38.0747L330.312 38.2115L330.402 37.7863L329.967 37.9231L330.057 37.498L329.626 37.6348L329.716 37.2096L329.281 37.3464L329.371 36.9212L328.94 37.058L329.03 36.6329L328.596 36.7696L328.686 36.3408L328.255 36.4813L328.345 36.0561L327.91 36.1929L328 35.7677L327.565 35.9045L327.659 35.4757L327.224 35.6125L327.314 35.1873L326.883 35.3278L326.973 34.8989L326.539 35.0357L326.629 34.6106L326.194 34.7474L326.284 34.3222L325.853 34.459L325.943 34.0338L325.508 34.1706L325.598 33.7454L325.167 33.8822L325.257 33.4571L324.826 33.6124L324.916 33.1872L324.485 33.324L324.575 32.8988L324.14 33.0356L324.23 32.6105L323.799 32.7472L323.889 32.3221L323.455 32.4589L323.545 32.0337L323.11 32.1705L323.204 31.7453L322.769 31.8821L322.859 31.457L322.428 31.5938L322.518 31.1686L322.083 31.3054L322.173 30.8802L321.739 31.017L321.828 30.5919L321.398 30.7287L321.488 30.3035L321.053 30.4403L321.143 30.0151L320.712 30.1519L320.802 29.7231L320.367 29.8598L320.457 29.4384L320.026 29.5752L320.116 29.1463L319.681 29.2831L319.771 28.8579L319.34 28.9984L319.43 28.5696L318.996 28.7064L319.086 28.2812L318.655 28.418L318.745 27.9928L318.31 28.1296L318.4 27.7044L317.969 27.8412L318.059 27.4161L317.624 27.5529L317.714 27.1277L317.28 27.2645L317.369 26.8393L312.461 28.381L293.126 34.496L288.255 36.0376L291.901 39.3835C292.155 39.7532 294.201 43.0325 291.192 52.2344C290.765 53.5395 290.293 55.2217 289.776 57.2698C289.022 56.6342 288.182 56.1054 287.28 55.6986C284.368 54.4231 281.215 53.7728 278.029 53.7909C272.925 53.8102 267.952 55.3856 263.79 58.3013C259.563 61.2257 256.019 65.4514 253.223 70.8898L253.017 70.716C252.901 70.6125 252.785 70.5201 252.672 70.4277C252.56 70.3352 252.444 70.2317 252.331 70.1393C252.219 70.0469 252.099 69.9433 251.987 69.8509C251.874 69.7585 251.758 69.655 251.646 69.5625C251.533 69.4701 251.413 69.3666 251.301 69.2705L250.956 68.9821L250.615 68.6937L250.274 68.4054L249.93 68.117L249.589 67.8286L249.244 67.5403L248.899 67.2519L248.558 66.9635L248.213 66.6751L247.872 66.3868L247.528 66.0984L247.187 65.81L246.842 65.5217C246.726 65.4218 246.613 65.3257 246.497 65.2333C246.381 65.1409 246.269 65.0374 246.156 64.9449L245.815 64.6566L245.47 64.3682C245.354 64.2684 245.242 64.1722 245.126 64.0798C245.01 63.9874 244.897 63.8839 244.785 63.7914C244.672 63.699 244.556 63.5955 244.444 63.5031L244.099 63.211C243.983 63.1112 243.871 63.0188 243.754 62.9263C243.638 62.8339 243.526 62.7267 243.413 62.6343L243.069 62.3459L242.728 62.0575L242.383 61.7692L242.042 61.4808L241.697 61.1924L241.356 60.904L241.011 60.6157C239.919 59.6317 238.681 58.8176 237.339 58.2015H237.309H237.279C232.907 56.4221 228.231 55.4798 223.501 55.425C216.841 55.4194 210.351 57.4982 204.965 61.3625C201.047 64.1501 197.674 67.6147 195.009 71.5885C194.907 71.5035 194.81 71.4185 194.705 71.3371L194.364 71.0451L194.019 70.7567C193.907 70.6606 193.795 70.5645 193.678 70.472C193.562 70.3796 193.45 70.2761 193.334 70.18C193.217 70.0838 193.109 69.9877 192.993 69.8953C192.876 69.8029 192.764 69.6993 192.648 69.6069L192.307 69.3149L191.962 69.0265L191.617 68.7381L191.276 68.4497L190.935 68.1614L190.591 67.873L190.25 67.5846L189.905 67.2963L189.56 67.0079L189.219 66.7195L188.875 66.4311L188.534 66.1428L188.189 65.8544L187.848 65.566L187.503 65.2777C187.391 65.1778 187.278 65.0817 187.162 64.9893C187.046 64.8969 186.934 64.7933 186.817 64.7009C186.701 64.6085 186.593 64.505 186.476 64.4125C186.36 64.3201 186.248 64.2166 186.132 64.1242C186.016 64.0318 185.907 63.9319 185.791 63.8358L185.435 63.5585L185.09 63.2702L184.749 62.9818L184.404 62.6934L184.063 62.405C179.754 58.708 174.186 56.8595 167.513 56.8595C162.619 56.8595 157.081 57.8872 151.055 59.9169H151.037C146.637 61.6804 143.057 64.9924 140.991 69.2113L140.931 69.1596L140.586 68.8712C140.477 68.7751 140.361 68.679 140.245 68.5828L139.9 68.2945L139.559 68.0061L139.215 67.7177L138.874 67.4294L138.529 67.141C138.416 67.0449 138.304 66.9487 138.184 66.8526C138.064 66.7565 137.959 66.6567 137.843 66.5642C137.727 66.4718 137.618 66.372 137.498 66.2759C137.378 66.1797 137.274 66.0836 137.157 65.9875C137.041 65.8914 136.933 65.7953 136.813 65.6991C136.693 65.603 136.588 65.5032 136.472 65.4108C136.356 65.3183 136.243 65.2148 136.127 65.1224C136.011 65.03 135.902 64.9264 135.786 64.834C135.67 64.7416 135.557 64.6381 135.441 64.5456C135.325 64.4532 135.216 64.3497 135.1 64.2573C134.984 64.1649 134.872 64.0613 134.756 63.9652C134.639 63.8691 134.531 63.773 134.415 63.6805C134.298 63.5881 134.186 63.4846 134.07 63.3885C133.954 63.2923 133.845 63.1962 133.725 63.1001C133.605 63.004 133.5 62.9079 133.384 62.8117C133.268 62.7156 133.159 62.6195 133.039 62.5234C132.919 62.4272 132.815 62.3311 132.698 62.235C132.582 62.1389 132.474 62.0427 132.354 61.9466C129.334 59.3106 124.983 57.976 119.43 57.976C113.472 57.976 107.439 59.5139 103.58 60.7229L103.505 60.66L103.434 60.6009L103.16 60.3717L103.085 60.3088L102.819 60.0833L102.748 60.0241L102.474 59.7949L102.407 59.7358L102.13 59.5066L102.059 59.4437C101.972 59.3698 101.882 59.2921 101.789 59.2182L101.721 59.159L101.448 58.9298L101.377 58.8707C101.287 58.793 101.197 58.7154 101.103 58.6414L101.032 58.5786L100.758 58.3531L100.691 58.2939L100.417 58.061L100.346 58.0019L100.076 57.7763L100.005 57.7172L99.7316 57.4843L99.6604 57.4251L99.3906 57.1996L99.3194 57.1404C99.2295 57.0628 99.1395 56.9852 99.0459 56.9112L98.9747 56.8484L98.7049 56.6228L98.6299 56.56L98.3601 56.3308L98.2889 56.2753C98.199 56.1977 98.1091 56.12 98.0154 56.0461L97.9442 55.9833L97.6744 55.754L97.5995 55.6949L97.3297 55.4657L97.2622 55.4102L96.9887 55.1773L96.9175 55.1181L96.644 54.8889L96.5728 54.8298C96.4829 54.7521 96.3929 54.6745 96.2992 54.6006L96.2318 54.5414L95.9583 54.3122L95.8871 54.253L95.6173 54.0238L95.5461 53.9647L95.2725 53.7354L95.2013 53.6763L94.9316 53.4471L94.8566 53.3842L94.5831 53.1587L94.5119 53.0959L94.2421 52.8703L94.1709 52.8075L93.9011 52.582L93.8299 52.5228C93.74 52.4452 93.6501 52.3675 93.5564 52.2936L93.4852 52.2307L93.2154 52.0052L93.1442 51.9461C93.0543 51.8684 92.9643 51.7908 92.8707 51.7169L92.8032 51.6577C92.7133 51.5801 92.6234 51.5024 92.5297 51.4285L92.4547 51.3656C92.3648 51.288 92.2786 51.2141 92.185 51.1401L92.11 51.0773C92.0238 50.9996 91.9339 50.9257 91.844 50.8517L91.7728 50.7889L91.4992 50.5634L91.428 50.5005L91.1582 50.275L91.0871 50.2158C90.9971 50.1382 90.9072 50.0606 90.8135 49.9866L90.7423 49.9238L90.4725 49.6983L90.3976 49.6354L90.1278 49.4062L90.0529 49.3433L89.7831 49.1178L89.7119 49.0587L89.4421 48.8294L89.3709 48.7703L89.0974 48.5411L89.0262 48.4819L88.7564 48.2527L88.6852 48.1936L88.4116 47.9643L88.3404 47.9052L88.0707 47.676L87.9995 47.6168C87.9095 47.5392 87.8196 47.4615 87.7259 47.3876L87.6585 47.3284L87.3812 47.0992L87.31 47.0401C87.2238 46.9624 87.1339 46.8848 87.0402 46.8109L86.9728 46.7517L86.6992 46.5225L86.628 46.4633C86.5381 46.3857 86.4482 46.3081 86.3545 46.2341L86.2833 46.1713L86.0135 45.9457L85.9423 45.8866L85.6688 45.6574L85.5976 45.5982L85.324 45.3653L85.2529 45.3062L84.9831 45.0806L84.9119 45.0215L84.6383 44.7886L84.5671 44.7294L84.2973 44.5039L84.2261 44.4447C84.1362 44.3671 84.0463 44.2895 83.9526 44.2155L83.8814 44.1527L83.6116 43.9271L83.5404 43.8643L83.2669 43.6351L83.1995 43.5796L82.9222 43.3467L82.851 43.2876C82.7648 43.2099 82.6749 43.136 82.5812 43.062L82.5137 42.9992L82.2364 42.77L82.1653 42.7108C82.0791 42.6332 81.9891 42.5592 81.8955 42.4853L81.8205 42.4187L81.5545 42.1932L81.4795 42.1304L81.2135 41.9086L81.1348 41.842L80.8688 41.6202L80.7976 41.561L80.524 41.3281L80.4528 41.269C80.3629 41.1913 80.273 41.1137 80.1793 41.0397L80.1081 40.9806L79.8383 40.7514L79.7634 40.6885C79.6734 40.6146 79.5873 40.5369 79.4936 40.463L79.4224 40.4001L79.1526 40.1746L79.0777 40.1118C78.9877 40.0378 78.9016 39.9602 78.8079 39.8863L78.7404 39.8271L78.4631 39.5942L78.3957 39.535L78.1222 39.3095L78.0547 39.2504C77.9648 39.1727 77.8749 39.0951 77.7812 39.0212L77.71 38.962C77.6201 38.8844 77.5301 38.8067 77.4364 38.7328L77.3615 38.6699C77.2753 38.5923 77.1854 38.5184 77.0955 38.4444L77.0205 38.3816L76.7545 38.156L76.6758 38.0932C76.5896 38.0155 76.4997 37.9416 76.4097 37.8677L76.3385 37.8085L76.065 37.5756L75.9938 37.5164L75.724 37.2909L75.6528 37.2318C75.5629 37.1541 75.473 37.0765 75.3793 37.0026L75.3081 36.9397L75.0346 36.7105L74.9634 36.6513L74.6936 36.4221L74.6224 36.363L74.3489 36.1337L74.2814 36.0746L74.0041 35.8454L73.9367 35.7862L73.6631 35.557L73.5957 35.4979L73.3221 35.2686L73.2547 35.2132L72.9774 34.9803L72.9062 34.9211L72.6364 34.6919L72.5615 34.629L72.2954 34.4035L72.2168 34.3407L71.947 34.1115C68.331 31.0614 63.6547 28.5178 58.4088 26.7506C52.9766 24.9372 47.2816 24.0082 41.5469 24Z" fill="#84AFE1"/>
<path d="M61.1055 74.5601L60.3729 75.041L61.1594 75.4269L61.1596 75.427L61.1597 75.427L61.1618 75.4281L61.1725 75.4334C61.1825 75.4385 61.1981 75.4464 61.2191 75.4572C61.261 75.4788 61.3242 75.5121 61.4066 75.5571C61.5715 75.647 61.813 75.7837 62.1138 75.968C62.7157 76.3369 63.5537 76.8954 64.4902 77.6504C66.3656 79.1622 68.6209 81.4492 70.1762 84.5621C71.7274 87.6667 72.5905 91.6084 71.6682 96.46C70.7448 101.317 68.0258 107.116 62.3586 113.916L62.3583 113.916C62.3547 113.92 62.3498 113.925 62.3439 113.931C62.3385 113.937 62.3321 113.944 62.3247 113.951C62.2941 113.982 62.2468 114.03 62.1829 114.093C62.0552 114.217 61.8611 114.401 61.6005 114.631C61.0794 115.092 60.2928 115.738 59.2401 116.471C57.1346 117.937 53.966 119.749 49.7284 121.117C41.3303 123.828 28.6898 124.811 11.7398 117.829C11.746 117.806 11.7525 117.782 11.7592 117.756C11.8464 117.431 11.9738 116.952 12.1355 116.335C12.4589 115.103 12.9191 113.323 13.4666 111.132C14.5616 106.75 16.0064 100.723 17.4052 94.1408C20.1568 81.1929 22.7505 66.012 22.1103 57.0235L38.3582 51.3803L34.3537 70.5131L34.2341 71.0843L34.8168 71.1149L34.8431 70.6156C34.8168 71.1149 34.8171 71.1149 34.8175 71.1149L34.8186 71.115L34.8227 71.1152L34.8374 71.1159L34.8931 71.1183C34.9417 71.1203 35.0129 71.123 35.1053 71.1257C35.29 71.1311 35.5595 71.1367 35.9021 71.1376C36.587 71.1395 37.5647 71.1228 38.741 71.0485C41.0911 70.9002 44.246 70.5217 47.4469 69.5972C53.8336 67.7528 60.5572 63.6764 61.1966 54.781C61.3531 52.7241 60.9427 50.664 60.0092 48.8192C59.0755 46.9741 57.6537 45.4136 55.8952 44.3024L55.895 44.3022C53.2485 42.6321 49.4862 41.0648 44.5807 40.9091C39.6751 40.7533 33.6584 42.0102 26.5049 45.9394L26.4966 45.944L26.4885 45.9488L26.7456 46.3776L26.7456 46.3777C26.4885 45.9488 26.4882 45.949 26.4879 45.9492L26.4871 45.9497L26.4845 45.9512L26.4759 45.9565L26.4453 45.9753C26.4191 45.9917 26.3812 46.0155 26.3325 46.0469C26.235 46.1098 26.0943 46.2029 25.9168 46.3267C25.5617 46.5743 25.059 46.9447 24.4604 47.4411C23.2636 48.4334 21.6804 49.9313 20.1271 51.9593C17.1346 55.8665 14.2542 61.7415 14.464 69.7379C13.9827 69.4171 13.3179 68.9389 12.5794 68.307C11.0853 67.0285 9.30706 65.1354 8.12564 62.66C6.94867 60.1938 6.35825 57.1395 7.24419 53.5047C8.13236 49.8608 10.5143 45.5939 15.3565 40.7339C24.9802 31.0748 38.5817 28.8253 50.373 30.9433C56.2652 32.0017 61.6804 34.1476 65.891 36.9803C70.1077 39.8172 73.0762 43.3143 74.1566 47.0597L74.1569 47.0605C75.3741 51.2531 75.6026 55.8189 73.8035 60.4741C72.0033 65.132 68.1514 69.9353 61.1055 74.5601ZM26.8505 110.681C26.7104 111.161 26.7106 111.161 26.711 111.161L26.712 111.161L26.7155 111.162L26.7281 111.166L26.7748 111.179C26.8155 111.19 26.875 111.206 26.9523 111.227C27.107 111.268 27.333 111.325 27.6223 111.392C28.2007 111.527 29.0326 111.701 30.0529 111.862C32.0915 112.183 34.8919 112.453 37.9291 112.239C44.0016 111.813 51.1029 109.445 54.8573 101.621C56.7038 97.7762 57.5071 94.3714 57.3176 91.4701C57.127 88.5535 55.9332 86.1678 53.8395 84.3976C49.691 80.8902 42.1191 79.8812 32.1191 81.55L31.7741 81.6076L31.7099 81.9513L26.3591 110.589L26.2759 111.034L26.7104 111.161L26.8505 110.681Z" fill="#EE9EF0" stroke="#FECBFF"/>
<path d="M95.1918 70.9217L95.1922 70.9214L95.1924 70.9212L95.1924 70.9212L95.1925 70.9211L95.3028 70.8287L95.3469 70.6908C95.3464 70.6924 95.3465 70.6923 95.3475 70.6904C95.352 70.682 95.3758 70.6375 95.4525 70.5554C95.5392 70.4627 95.6678 70.349 95.8438 70.2162C96.1954 69.951 96.698 69.6379 97.3362 69.2931C98.6101 68.6048 100.38 67.8136 102.458 67.0475C106.617 65.5143 111.959 64.0998 116.953 63.8023C121.972 63.5033 126.502 64.3397 129.197 67.1456C131.864 69.9229 132.892 74.8078 130.483 83.0119C125.62 99.5757 124.192 109.602 123.988 115.505C123.886 118.458 124.089 120.387 124.326 121.591C124.406 122 124.491 122.327 124.568 122.581H112.025L111.873 117.948L111.835 116.808L111.024 117.607L111.023 117.607L111.023 117.607L111.023 117.607L111.022 117.608L111.02 117.61C111.015 117.614 111.007 117.622 110.995 117.632C110.972 117.654 110.932 117.688 110.876 117.734C110.764 117.827 110.583 117.967 110.322 118.146C109.801 118.505 108.958 119.021 107.694 119.629C105.166 120.847 100.957 122.432 94.2751 123.864C87.9055 125.228 82.3588 120.587 80.4049 114.074C78.4636 107.602 80.143 99.4104 88.2041 93.948C96.3807 88.4074 102.212 87.1886 106.718 86.4386C107.043 86.3846 107.362 86.3329 107.675 86.2821C111.715 85.628 114.852 85.12 117.611 81.543C119.054 79.6708 119.628 78.1718 119.548 76.958C119.466 75.7044 118.7 74.888 117.81 74.3764C116.932 73.8715 115.885 73.6302 115.084 73.5118C114.679 73.4518 114.326 73.4219 114.073 73.4068C113.947 73.3993 113.845 73.3955 113.774 73.3936C113.739 73.3926 113.711 73.3921 113.691 73.3919L113.668 73.3917L113.662 73.3916L113.66 73.3916L113.659 73.3916C113.659 73.3916 113.659 73.3916 113.659 73.8916V73.3916H113.643L113.628 73.3925C106.924 73.8027 102.042 76.8936 98.8448 79.8693C97.2466 81.357 96.0659 82.819 95.2838 83.9105C94.9609 84.361 94.7056 84.749 94.5165 85.0504C91.6595 80.7358 91.7985 77.2684 92.6329 74.8687C93.0753 73.5964 93.7207 72.6037 94.2562 71.9291C94.5235 71.5922 94.7621 71.3364 94.9318 71.1665C95.0166 71.0816 95.0841 71.0183 95.1292 70.9773C95.1517 70.9568 95.1686 70.9418 95.1793 70.9325L95.1905 70.9228L95.1918 70.9217ZM101.935 114.161L101.935 114.161C108.645 112.761 112.142 107.642 113.951 102.97C114.857 100.63 115.351 98.3796 115.617 96.7167C115.751 95.8844 115.828 95.197 115.872 94.7161C115.894 94.4756 115.908 94.2866 115.916 94.1568C115.917 94.1427 115.918 94.1294 115.918 94.1167C115.921 94.0709 115.923 94.0343 115.924 94.0074L115.926 93.9677L115.927 93.957L115.927 93.9539L115.927 93.9529C115.927 93.9526 115.927 93.9524 115.427 93.9334L115.927 93.9524L115.95 93.3368L115.343 93.4405C102.87 95.5708 96.0369 101.246 94.0251 106.213C93.0191 108.697 93.2046 111.076 94.6429 112.658C96.0761 114.234 98.6066 114.855 101.935 114.161Z" fill="#EE9EF0" stroke="#FECBFF"/>
<path d="M185.283 77.6707C185.256 77.5407 185.221 77.3826 185.176 77.1998C185.037 76.6317 184.805 75.8271 184.436 74.8906C183.697 73.0155 182.414 70.6261 180.233 68.5444C175.91 64.4173 167.915 61.3655 153.186 66.3192L153.183 66.3201L153.161 66.3282C153.141 66.3357 153.109 66.3476 153.068 66.3642C152.984 66.3973 152.86 66.4489 152.701 66.5206C152.384 66.6642 151.932 66.888 151.402 67.2057C150.34 67.8417 148.973 68.8492 147.745 70.3341C145.309 73.2798 143.366 78.1732 145.611 85.9718L145.625 86.0208L145.629 86.0646M185.283 77.6707L145.629 86.0635L145.629 86.0646M185.283 77.6707L175.644 80.7376C175.472 77.717 174.22 75.6977 172.361 74.4872C170.397 73.2094 167.833 72.8826 165.349 73.0985C162.859 73.3149 160.379 74.0822 158.531 75.0723C157.608 75.5668 156.82 76.1285 156.267 76.7243C155.722 77.3112 155.346 77.9965 155.401 78.7212L155.401 78.7216C155.42 78.9643 155.435 79.1951 155.449 79.4088C155.467 79.6795 155.483 79.9227 155.502 80.1273C155.538 80.5042 155.593 80.8507 155.729 81.1597C156.02 81.8241 156.619 82.1622 157.55 82.5569C157.95 82.7267 158.44 82.9168 159.043 83.151C161.307 84.0301 165.167 85.5292 171.886 88.8938C176.082 90.9951 178.611 93.4312 180.068 95.8762C181.524 98.3203 181.931 100.809 181.823 103.051C181.716 105.299 181.092 107.296 180.49 108.736C180.19 109.455 179.896 110.031 179.679 110.426C179.571 110.623 179.482 110.775 179.42 110.876C179.39 110.927 179.366 110.965 179.35 110.99L179.342 111.003C173.824 117.674 168.097 120.355 162.18 120.784C156.222 121.216 150.012 119.37 143.531 116.862C140.388 115.645 138.706 113.898 137.898 112.003C137.082 110.092 137.124 107.958 137.572 105.923C138.02 103.89 138.866 101.998 139.605 100.608C139.906 100.042 140.188 99.5626 140.416 99.1933C141.68 102.429 144.434 106.245 148.115 108.919C152.188 111.878 157.456 113.477 163.13 111.265L163.13 111.265C167.178 109.685 169.115 107.758 169.855 105.848C170.594 103.94 170.086 102.184 169.543 101.062L169.542 101.059C169.323 100.613 169.016 100.216 168.639 99.8908C168.262 99.5661 167.824 99.3198 167.349 99.1662C156.601 95.6083 151.155 92.2527 148.405 89.8239C147.032 88.6114 146.336 87.6344 145.985 86.9832C145.809 86.6575 145.719 86.412 145.674 86.2574C145.651 86.18 145.639 86.125 145.633 86.0937C145.631 86.0787 145.629 86.069 145.629 86.065C145.629 86.0649 145.629 86.0647 145.629 86.0646M185.283 77.6707L145.629 86.0646" fill="#EE9EF0" stroke="#FECBFF"/>
<path d="M231.355 101.361L231.359 101.355L231.363 101.348L230.932 101.095C231.363 101.348 231.363 101.348 231.363 101.348L231.363 101.347L231.364 101.346L231.367 101.342L231.377 101.324L231.417 101.256C231.452 101.196 231.503 101.108 231.568 100.995C231.697 100.769 231.883 100.444 232.108 100.045C232.556 99.2469 233.16 98.1517 233.777 96.9646C234.394 95.7784 235.029 94.4953 235.538 93.3225C235.902 92.4847 236.213 91.6803 236.404 90.9987C236.732 91.2231 237.173 91.5484 237.661 91.9714C238.693 92.8664 239.917 94.1838 240.729 95.8911C241.537 97.5893 241.941 99.6817 241.333 102.16C240.723 104.647 239.083 107.564 235.722 110.88C228.976 117.536 223.111 119.935 217.801 120.212C212.468 120.49 207.618 118.634 202.864 116.606C200.622 115.65 198.751 113.704 197.291 111.08C195.833 108.458 194.804 105.189 194.232 101.65C193.088 94.5627 193.793 86.4881 196.444 80.509C199.107 74.5015 203.859 68.4209 210.331 64.7891C216.783 61.1683 224.975 59.9629 234.595 63.7333L234.609 63.7395C234.624 63.7459 234.647 63.7563 234.678 63.7709C234.74 63.8002 234.834 63.8464 234.956 63.9115C235.2 64.0418 235.554 64.2475 235.981 64.5437C236.833 65.136 237.977 66.0898 239.115 67.5265C241.357 70.3568 243.607 75.0958 243.539 82.7196L207.558 103.178L207.017 103.486L207.434 103.948L207.805 103.613C207.434 103.948 207.434 103.948 207.434 103.948L207.435 103.949L207.437 103.952L207.446 103.961L207.476 103.993C207.502 104.022 207.54 104.062 207.59 104.114C207.69 104.217 207.836 104.364 208.025 104.545C208.402 104.906 208.951 105.402 209.642 105.943C211.022 107.023 212.986 108.298 215.3 109.044C217.62 109.791 220.305 110.008 223.092 108.946C225.877 107.885 228.704 105.569 231.355 101.361ZM217.349 72.5044L217.348 72.5045C213.317 74.4945 210.689 79.1219 209.076 83.1325C208.263 85.1541 207.695 87.0533 207.33 88.4465C207.147 89.1435 207.015 89.7151 206.928 90.1134C206.885 90.3126 206.853 90.4685 206.832 90.5753C206.821 90.6286 206.813 90.6697 206.808 90.6978L206.802 90.73L206.8 90.7386L206.8 90.7409L206.8 90.7417C206.8 90.7419 206.8 90.7421 207.292 90.8319L206.8 90.7421L206.605 91.8066L207.542 91.2647L230.669 77.885L230.989 77.6997L230.906 77.3393C230.123 73.9642 228.781 71.6707 226.482 70.812C224.219 69.9667 221.223 70.5948 217.349 72.5044Z" fill="#EE9EF0" stroke="#FECBFF"/>
<path d="M284.092 105.635C284.3 106.09 284.3 106.09 284.3 106.09L284.299 106.091L284.296 106.092L284.287 106.096L284.254 106.111C284.226 106.123 284.184 106.141 284.131 106.163C284.025 106.208 283.87 106.271 283.673 106.346C283.28 106.496 282.716 106.693 282.032 106.886C280.666 107.272 278.798 107.646 276.821 107.581C274.842 107.517 272.729 107.011 270.909 105.61C269.084 104.206 267.606 101.943 266.832 98.4605C265.291 91.5262 267.179 84.3358 269.848 78.8714C271.185 76.1349 272.727 73.8108 274.157 72.1471C274.872 71.3159 275.567 70.6397 276.203 70.1586C276.823 69.6895 277.448 69.3589 278.014 69.3159C279.738 69.1848 282.107 69.3477 284.026 70.3312C284.993 70.827 285.858 71.538 286.455 72.5349C286.814 73.1337 287.069 73.8234 287.197 74.612C287.297 74.4311 287.402 74.2356 287.512 74.0272C288.158 72.7966 288.928 71.1263 289.439 69.3477C289.953 67.5617 290.192 65.7137 289.826 64.1057C289.466 62.5275 288.518 61.1478 286.568 60.2577C282.507 58.4049 275.64 57.766 269.173 61.7242C262.717 65.6761 256.562 74.2724 254.059 91.0796C252.817 99.4196 254.584 105.241 257.905 109.213C261.238 113.198 266.198 115.395 271.475 116.353C276.749 117.31 282.292 117.02 286.718 116.075C288.931 115.603 290.849 114.971 292.307 114.26C293.75 113.556 294.661 112.815 295.023 112.145L311.279 35.4693L298.484 38.5783C298.51 38.7436 298.538 38.9501 298.565 39.1977C298.643 39.9197 298.706 40.9912 298.652 42.4129C298.546 45.2568 297.975 49.498 296.131 55.1408C294.31 60.7119 291.425 73.3455 288.99 84.6168C287.774 90.2458 286.672 95.5252 285.874 99.3974C285.475 101.333 285.152 102.918 284.929 104.018C284.817 104.568 284.731 104.997 284.672 105.288L284.605 105.62L284.588 105.705L284.584 105.726L284.583 105.732L284.583 105.733C284.583 105.733 284.583 105.733 284.092 105.635ZM284.092 105.635L284.3 106.09L284.532 105.984L284.583 105.733L284.092 105.635Z" fill="#EE9EF0" stroke="#FECBFF"/>
<defs>
<linearGradient id="paint0_linear_1124_629" x1="176" y1="0" x2="176" y2="192" gradientUnits="userSpaceOnUse">
<stop stop-color="#EDB1EE"/>
<stop offset="1" stop-color="#9AB5D5"/>
</linearGradient>
</defs>
</svg>
