<svg width="160" height="32" viewBox="0 0 160 32" fill="none" xmlns="http://www.w3.org/2000/svg">
<path d="M48.88 25.252C47.392 25.252 46.06 24.904 44.884 24.208C43.716 23.512 42.796 22.496 42.124 21.16C41.452 19.816 41.116 18.176 41.116 16.24C41.116 14.408 41.444 12.82 42.1 11.476C42.756 10.124 43.672 9.08 44.848 8.344C46.024 7.6 47.388 7.228 48.94 7.228C50.084 7.228 51.136 7.452 52.096 7.9C53.064 8.348 53.844 9.012 54.436 9.892C55.036 10.764 55.356 11.844 55.396 13.132H53.104C53.056 12.276 52.832 11.568 52.432 11.008C52.04 10.44 51.532 10.016 50.908 9.736C50.284 9.448 49.596 9.304 48.844 9.304C47.812 9.304 46.884 9.58 46.06 10.132C45.244 10.676 44.6 11.464 44.128 12.496C43.656 13.528 43.42 14.772 43.42 16.228C43.42 17.884 43.668 19.224 44.164 20.248C44.66 21.264 45.324 22.008 46.156 22.48C46.988 22.944 47.908 23.176 48.916 23.176C49.836 23.176 50.596 23.012 51.196 22.684C51.804 22.348 52.268 21.908 52.588 21.364C52.908 20.82 53.088 20.232 53.128 19.6H55.396C55.324 20.76 55.016 21.764 54.472 22.612C53.936 23.46 53.196 24.112 52.252 24.568C51.308 25.024 50.184 25.252 48.88 25.252ZM58.3279 25V6.34H60.5599V25H58.3279ZM69.3869 25.18C68.2349 25.18 67.2229 24.92 66.3509 24.4C65.4869 23.88 64.8109 23.116 64.3229 22.108C63.8429 21.092 63.6029 19.848 63.6029 18.376C63.6029 16.984 63.8589 15.784 64.3709 14.776C64.8829 13.768 65.5789 12.996 66.4589 12.46C67.3469 11.916 68.3389 11.644 69.4349 11.644C70.6269 11.644 71.6549 11.916 72.5189 12.46C73.3909 12.996 74.0629 13.768 74.5349 14.776C75.0069 15.784 75.2429 16.984 75.2429 18.376C75.2429 19.848 74.9789 21.092 74.4509 22.108C73.9309 23.116 73.2269 23.88 72.3389 24.4C71.4509 24.92 70.4669 25.18 69.3869 25.18ZM69.4349 23.212C70.5069 23.212 71.3629 22.812 72.0029 22.012C72.6429 21.212 72.9629 20 72.9629 18.376C72.9629 16.824 72.6469 15.644 72.0149 14.836C71.3909 14.02 70.5149 13.612 69.3869 13.612C68.3229 13.612 67.4709 14.02 66.8309 14.836C66.1989 15.644 65.8829 16.824 65.8829 18.376C65.8829 19.944 66.2029 21.144 66.8429 21.976C67.4909 22.8 68.3549 23.212 69.4349 23.212ZM81.2549 25L76.5269 11.908H79.0709L80.8949 17.848L82.4309 22.732H82.5149L84.0389 17.86L85.8749 11.908H88.4069L83.6789 25H81.2549ZM95.7214 25.18C94.5294 25.18 93.4814 24.92 92.5774 24.4C91.6814 23.88 90.9854 23.116 90.4894 22.108C89.9934 21.092 89.7454 19.852 89.7454 18.388C89.7454 16.98 90.0014 15.772 90.5134 14.764C91.0254 13.756 91.7294 12.984 92.6254 12.448C93.5214 11.912 94.5414 11.644 95.6854 11.644C96.8214 11.644 97.7934 11.888 98.6014 12.376C99.4174 12.864 100.045 13.564 100.485 14.476C100.925 15.38 101.141 16.464 101.133 17.728C101.133 17.984 101.125 18.196 101.109 18.364C101.093 18.532 101.081 18.708 101.073 18.892H91.9774C92.0334 20.332 92.3934 21.424 93.0574 22.168C93.7294 22.904 94.5854 23.272 95.6254 23.272C96.5054 23.272 97.1854 23.088 97.6654 22.72C98.1534 22.344 98.4614 21.864 98.5894 21.28H100.773C100.717 22.112 100.461 22.82 100.005 23.404C99.5574 23.988 98.9654 24.432 98.2294 24.736C97.4934 25.032 96.6574 25.18 95.7214 25.18ZM93.1654 17.212H98.8894C98.8734 16.092 98.5974 15.212 98.0614 14.572C97.5254 13.932 96.7054 13.612 95.6014 13.612C94.4414 13.612 93.5614 14.008 92.9614 14.8C92.3614 15.584 92.0334 16.668 91.9774 18.052C92.0414 17.724 92.1694 17.504 92.3614 17.392C92.5614 17.272 92.8294 17.212 93.1654 17.212ZM104.054 25V11.896H105.95L106.19 16.936L105.926 16.252C105.982 15.756 106.09 15.24 106.25 14.704C106.418 14.168 106.654 13.668 106.958 13.204C107.27 12.732 107.666 12.352 108.146 12.064C108.634 11.776 109.23 11.632 109.934 11.632C110.07 11.632 110.198 11.64 110.318 11.656C110.446 11.672 110.57 11.692 110.69 11.716V14.08C110.49 14.016 110.278 13.976 110.054 13.96C109.838 13.936 109.634 13.924 109.442 13.924C109.05 13.924 108.654 14 108.254 14.152C107.854 14.304 107.482 14.548 107.138 14.884C106.794 15.212 106.51 15.64 106.286 16.168V25H104.054ZM113.964 25V15.064C113.964 14.808 114.016 14.568 114.12 14.344C114.224 14.12 114.376 13.976 114.576 13.912L113.964 12.436V10.348C113.964 9.324 114.16 8.476 114.552 7.804C114.952 7.124 115.484 6.62 116.148 6.292C116.82 5.956 117.568 5.788 118.392 5.788C118.792 5.788 119.124 5.8 119.388 5.824C119.652 5.848 119.88 5.872 120.072 5.896V8.056C119.896 7.984 119.68 7.932 119.424 7.9C119.176 7.868 118.864 7.852 118.488 7.852C118 7.852 117.58 7.936 117.228 8.104C116.884 8.264 116.62 8.552 116.436 8.968C116.252 9.376 116.16 9.956 116.16 10.708V25H113.964ZM111.888 13.912V11.896H119.292V13.912H111.888ZM121.992 25V11.98H124.248L124.212 25H121.992ZM123.132 9.88C122.692 9.88 122.316 9.728 122.004 9.424C121.7 9.12 121.548 8.728 121.548 8.248C121.548 7.776 121.7 7.388 122.004 7.084C122.316 6.78 122.692 6.628 123.132 6.628C123.564 6.628 123.932 6.78 124.236 7.084C124.548 7.388 124.704 7.776 124.704 8.248C124.704 8.728 124.548 9.12 124.236 9.424C123.924 9.728 123.556 9.88 123.132 9.88ZM133.386 25.18C132.194 25.18 131.146 24.92 130.242 24.4C129.346 23.88 128.65 23.116 128.154 22.108C127.658 21.092 127.41 19.852 127.41 18.388C127.41 16.98 127.666 15.772 128.178 14.764C128.69 13.756 129.394 12.984 130.29 12.448C131.186 11.912 132.206 11.644 133.35 11.644C134.486 11.644 135.458 11.888 136.266 12.376C137.082 12.864 137.71 13.564 138.15 14.476C138.59 15.38 138.806 16.464 138.798 17.728C138.798 17.984 138.79 18.196 138.773 18.364C138.758 18.532 138.746 18.708 138.738 18.892H129.642C129.698 20.332 130.058 21.424 130.722 22.168C131.394 22.904 132.25 23.272 133.29 23.272C134.17 23.272 134.85 23.088 135.33 22.72C135.818 22.344 136.126 21.864 136.254 21.28H138.438C138.382 22.112 138.126 22.82 137.67 23.404C137.222 23.988 136.63 24.432 135.894 24.736C135.158 25.032 134.322 25.18 133.386 25.18ZM130.83 17.212H136.554C136.538 16.092 136.262 15.212 135.726 14.572C135.19 13.932 134.37 13.612 133.266 13.612C132.106 13.612 131.226 14.008 130.626 14.8C130.026 15.584 129.698 16.668 129.642 18.052C129.706 17.724 129.834 17.504 130.026 17.392C130.226 17.272 130.494 17.212 130.83 17.212ZM141.695 25V6.34H143.927V25H141.695ZM152.143 25.144C151.079 25.144 150.159 24.864 149.383 24.304C148.615 23.744 148.023 22.956 147.607 21.94C147.199 20.924 146.995 19.736 146.995 18.376C146.995 16.872 147.247 15.624 147.751 14.632C148.263 13.632 148.919 12.888 149.719 12.4C150.527 11.904 151.379 11.656 152.275 11.656C153.147 11.656 153.831 11.804 154.327 12.1C154.831 12.396 155.199 12.74 155.431 13.132C155.671 13.516 155.815 13.848 155.863 14.128L156.571 14.248L155.707 15.004C155.651 14.836 155.515 14.644 155.299 14.428C155.083 14.204 154.775 14.012 154.375 13.852C153.975 13.684 153.467 13.6 152.851 13.6C151.819 13.6 150.967 13.988 150.295 14.764C149.623 15.532 149.287 16.752 149.287 18.424C149.287 19.976 149.603 21.168 150.235 22C150.875 22.832 151.695 23.248 152.695 23.248C153.319 23.248 153.835 23.14 154.243 22.924C154.659 22.708 154.983 22.444 155.215 22.132C155.455 21.82 155.619 21.528 155.707 21.256L155.827 21.688L155.707 22.132C155.667 22.396 155.579 22.7 155.443 23.044C155.307 23.38 155.103 23.708 154.831 24.028C154.559 24.348 154.203 24.616 153.763 24.832C153.331 25.04 152.791 25.144 152.143 25.144ZM155.719 25L155.707 6.328H157.927L157.939 25H155.719Z" fill="#AEE3FA"/>
    <svg width="29" height="32" viewBox="0 0 29 32" fill="none" xmlns="http://www.w3.org/2000/svg"><path d="M23.1714 4.33732C22.9174 1.82387 20.9387 0.000293816 18.4623 0.000293816C16.8126 0.000293816 15.302 0.798505 14.4521 2.0778C13.6098 0.781958 12.1611 0 10.5378 0C8.06185 0 6.08282 1.82357 5.82916 4.33702C5.80908 4.44804 5.72675 5.03234 5.97706 5.98519C6.31429 7.27 7.06447 8.44621 8.15349 9.40273L7.51621 9.17711C6.11759 8.68083 4.68669 8.59334 3.37915 8.92422C2.47253 9.15345 2.02938 9.47537 1.9473 9.53995C-0.00707388 10.8474 -0.566489 13.1764 0.617748 15.0804C1.39417 16.3287 2.7328 17.0966 4.20581 17.1708C3.55586 18.3906 3.61915 19.9055 4.40822 21.1741C5.59261 23.0784 8.04498 23.7929 10.2422 22.8758C10.3433 22.8418 10.8652 22.6465 11.5321 22.0325C12.2084 21.4102 12.7222 20.636 13.0501 19.7546V24.8728C9.74091 25.5466 7.25019 28.4815 7.25019 32H10.1502C10.1502 29.59 12.0977 27.6364 14.5002 27.6364C16.9026 27.6364 18.8502 29.59 18.8502 32H21.7502C21.7502 28.4815 19.2594 25.5466 15.9501 24.8727V19.7546C16.278 20.636 16.7919 21.4102 17.4681 22.0325C18.135 22.6465 18.657 22.8418 18.7581 22.8758C20.9553 23.7929 23.4076 23.0784 24.592 21.1741C25.3811 19.9055 25.4444 18.3906 24.7944 17.1708C26.2674 17.0966 27.6061 16.3287 28.3825 15.0804C29.5667 13.1764 29.0073 10.8474 27.0529 9.53995C26.9709 9.47537 26.5277 9.15345 25.6211 8.92422C24.3136 8.59334 22.8827 8.68083 21.484 9.17711L20.8471 9.40261C21.9359 8.44594 22.6859 7.27012 23.0231 5.98519C23.2734 5.03264 23.1911 4.44834 23.1714 4.33732Z" fill="url(#paint0_linear_2371_4612)"></path><path fill-rule="evenodd" clip-rule="evenodd" d="M22.1802 4.47533L22.1764 4.43786C21.9724 2.41835 20.4086 1.00029 18.4623 1.00029C17.1292 1.00029 15.9397 1.64576 15.285 2.6312L14.4429 3.89861L13.6136 2.62278C12.9618 1.61998 11.8339 1 10.5378 1C8.59186 1 7.0279 2.4181 6.82411 4.43743L6.82017 4.47642L6.81331 4.51437C6.81332 4.51438 6.73871 4.94872 6.94424 5.73111C7.22609 6.80493 7.85926 7.81333 8.81341 8.65139L7.81975 10.3454L7.18247 10.1198C5.95069 9.6827 4.72123 9.61612 3.62447 9.89366C2.89652 10.0777 2.5741 10.3195 2.56486 10.3265L2.53535 10.3497L2.50335 10.3711C0.96106 11.4029 0.589987 13.1423 1.4669 14.5522C2.06499 15.5138 3.10036 16.1138 4.2561 16.172L5.82884 16.2512L5.08835 17.641C4.61668 18.5262 4.64468 19.6609 5.25737 20.646C6.1593 22.0961 8.07012 22.6988 9.85697 21.9529L9.88997 21.9392L9.92375 21.9278C9.93493 21.924 10.3219 21.7875 10.8548 21.2968C11.4108 20.7852 11.8379 20.145 12.1129 19.4059L14.0501 19.7546V25.6897L13.2497 25.8527C10.7187 26.368 8.74085 28.4211 8.32918 31H9.24305C9.71016 28.5175 11.884 26.6364 14.5002 26.6364C17.1164 26.6364 19.2902 28.5175 19.7573 31H20.6712C20.2595 28.4211 18.2816 26.368 15.7506 25.8526L14.9501 25.6896V19.7546L16.8874 19.4059C17.1623 20.145 17.5892 20.785 18.1452 21.2966C18.678 21.7871 19.0651 21.9239 19.0765 21.9278L19.1103 21.9392L19.1433 21.9529C20.9301 22.6988 22.8409 22.0961 23.7429 20.646C24.3556 19.6609 24.3836 18.5262 23.9119 17.641L23.1714 16.2512L24.7441 16.172C25.8999 16.1138 26.9353 15.5138 27.5333 14.5522C28.4103 13.1423 28.0392 11.4029 26.4969 10.3711L26.4649 10.3497L26.4356 10.3266C26.4274 10.3204 26.1051 10.0781 25.376 9.89371C24.2792 9.61617 23.0502 9.68246 21.8184 10.1195L21.1808 10.3453L20.187 8.65139C21.1411 7.8131 21.7741 6.80523 22.0559 5.73136C22.2582 4.96122 22.1893 4.52716 22.1868 4.51235L22.1802 4.47533ZM21.6822 31C21.727 31.3269 21.7502 31.6607 21.7502 32H18.8502C18.8502 29.59 16.9026 27.6364 14.5002 27.6364C12.0977 27.6364 10.1502 29.59 10.1502 32H7.25019C7.25019 31.6607 7.27334 31.3269 7.31816 31C7.73812 27.9366 10.06 25.4817 13.0501 24.8728V19.7546C12.8119 20.3949 12.4756 20.9786 12.0501 21.4886C11.8899 21.6807 11.7171 21.8623 11.5321 22.0325C10.8652 22.6465 10.3433 22.8418 10.2422 22.8758C8.04498 23.7929 5.59261 23.0784 4.40822 21.1741C3.81903 20.2268 3.63449 19.1423 3.8494 18.1457C3.9223 17.8077 4.04117 17.4798 4.20581 17.1708C3.85303 17.153 3.50797 17.0954 3.17649 17.001C2.12387 16.7012 1.20822 16.0297 0.617748 15.0804C-0.566489 13.1764 -0.00707388 10.8474 1.9473 9.53995C2.02938 9.47537 2.47253 9.15345 3.37915 8.92422C4.30276 8.6905 5.28793 8.66553 6.27979 8.84593C6.69209 8.92092 7.10554 9.03139 7.51621 9.17711L8.15349 9.40273C7.96509 9.23725 7.78683 9.0652 7.61909 8.88714C7.61904 8.88708 7.61915 8.8872 7.61909 8.88714C7.33883 8.58961 7.08778 8.27515 6.86807 7.94681C6.45929 7.33588 6.15844 6.67624 5.97706 5.98519C5.72675 5.03234 5.80908 4.44804 5.82916 4.33702C6.08282 1.82357 8.06185 0 10.5378 0C11.7936 0 12.9448 0.467954 13.7917 1.27976C14.0396 1.51735 14.2614 1.7844 14.4521 2.0778C14.6439 1.78908 14.8694 1.52488 15.1225 1.28881C15.9909 0.478878 17.1849 0.000293816 18.4623 0.000293816C20.9387 0.000293816 22.9174 1.82387 23.1714 4.33732C23.1911 4.44834 23.2734 5.03264 23.0231 5.98519C22.8417 6.67633 22.5409 7.33591 22.1322 7.9468C21.9125 8.27517 21.6616 8.58946 21.3813 8.88703C21.3813 8.88709 21.3814 8.88697 21.3813 8.88703C21.2137 9.06501 21.0354 9.23717 20.8471 9.40261L21.484 9.17711C21.8947 9.03138 22.3082 8.92091 22.7205 8.84592C23.7123 8.66553 24.6975 8.6905 25.6211 8.92422C26.5277 9.15345 26.9709 9.47537 27.0529 9.53995C29.0073 10.8474 29.5667 13.1764 28.3825 15.0804C27.792 16.0297 26.8764 16.7012 25.8238 17.001C25.4923 17.0954 25.1472 17.153 24.7944 17.1708C24.9591 17.4798 25.0779 17.8077 25.1508 18.1457C25.3658 19.1423 25.1812 20.2268 24.592 21.1741C23.4076 23.0784 20.9553 23.7929 18.7581 22.8758C18.657 22.8418 18.135 22.6465 17.4681 22.0325C17.2831 21.8623 17.1103 21.6807 16.9501 21.4886C16.5247 20.9786 16.1883 20.3949 15.9501 19.7546V24.8727C18.9403 25.4816 21.2622 27.9365 21.6822 31Z" fill="url(#paint1_linear_2371_4612)"></path><defs><linearGradient id="paint0_linear_2371_4612" x1="0.000122286" y1="16" x2="29.0001" y2="16" gradientUnits="userSpaceOnUse"><stop stop-color="#A6CCDC"></stop><stop offset="1" stop-color="#C0E9FA"></stop></linearGradient><linearGradient id="paint1_linear_2371_4612" x1="0.000122286" y1="16" x2="29.0001" y2="16" gradientUnits="userSpaceOnUse"><stop stop-color="#E5EFF3"></stop><stop offset="0.5" stop-color="#A2D4EA"></stop><stop offset="1" stop-color="#E5EFF3"></stop></linearGradient></defs></svg>
<path d="M14.1993 15.7343L15.7343 14.1992C15.8811 14.0525 16.1189 14.0525 16.2657 14.1992L17.8008 15.7343C17.9475 15.881 17.9475 16.1189 17.8008 16.2657L16.2657 17.8007C16.1189 17.9475 15.8811 17.9475 15.7343 17.8007L14.1993 16.2657C14.0525 16.1189 14.0525 15.881 14.1993 15.7343Z" fill="#AEE3FA"/>
</svg>
