<svg width="29" height="32" viewBox="0 0 29 32" fill="none" xmlns="http://www.w3.org/2000/svg"><path d="M23.1714 4.33732C22.9174 1.82387 20.9387 0.000293816 18.4623 0.000293816C16.8126 0.000293816 15.302 0.798505 14.4521 2.0778C13.6098 0.781958 12.1611 0 10.5378 0C8.06185 0 6.08282 1.82357 5.82916 4.33702C5.80908 4.44804 5.72675 5.03234 5.97706 5.98519C6.31429 7.27 7.06447 8.44621 8.15349 9.40273L7.51621 9.17711C6.11759 8.68083 4.68669 8.59334 3.37915 8.92422C2.47253 9.15345 2.02938 9.47537 1.9473 9.53995C-0.00707388 10.8474 -0.566489 13.1764 0.617748 15.0804C1.39417 16.3287 2.7328 17.0966 4.20581 17.1708C3.55586 18.3906 3.61915 19.9055 4.40822 21.1741C5.59261 23.0784 8.04498 23.7929 10.2422 22.8758C10.3433 22.8418 10.8652 22.6465 11.5321 22.0325C12.2084 21.4102 12.7222 20.636 13.0501 19.7546V24.8728C9.74091 25.5466 7.25019 28.4815 7.25019 32H10.1502C10.1502 29.59 12.0977 27.6364 14.5002 27.6364C16.9026 27.6364 18.8502 29.59 18.8502 32H21.7502C21.7502 28.4815 19.2594 25.5466 15.9501 24.8727V19.7546C16.278 20.636 16.7919 21.4102 17.4681 22.0325C18.135 22.6465 18.657 22.8418 18.7581 22.8758C20.9553 23.7929 23.4076 23.0784 24.592 21.1741C25.3811 19.9055 25.4444 18.3906 24.7944 17.1708C26.2674 17.0966 27.6061 16.3287 28.3825 15.0804C29.5667 13.1764 29.0073 10.8474 27.0529 9.53995C26.9709 9.47537 26.5277 9.15345 25.6211 8.92422C24.3136 8.59334 22.8827 8.68083 21.484 9.17711L20.8471 9.40261C21.9359 8.44594 22.6859 7.27012 23.0231 5.98519C23.2734 5.03264 23.1911 4.44834 23.1714 4.33732Z" fill="url(#paint0_linear_2371_4612)"></path><path fill-rule="evenodd" clip-rule="evenodd" d="M22.1802 4.47533L22.1764 4.43786C21.9724 2.41835 20.4086 1.00029 18.4623 1.00029C17.1292 1.00029 15.9397 1.64576 15.285 2.6312L14.4429 3.89861L13.6136 2.62278C12.9618 1.61998 11.8339 1 10.5378 1C8.59186 1 7.0279 2.4181 6.82411 4.43743L6.82017 4.47642L6.81331 4.51437C6.81332 4.51438 6.73871 4.94872 6.94424 5.73111C7.22609 6.80493 7.85926 7.81333 8.81341 8.65139L7.81975 10.3454L7.18247 10.1198C5.95069 9.6827 4.72123 9.61612 3.62447 9.89366C2.89652 10.0777 2.5741 10.3195 2.56486 10.3265L2.53535 10.3497L2.50335 10.3711C0.96106 11.4029 0.589987 13.1423 1.4669 14.5522C2.06499 15.5138 3.10036 16.1138 4.2561 16.172L5.82884 16.2512L5.08835 17.641C4.61668 18.5262 4.64468 19.6609 5.25737 20.646C6.1593 22.0961 8.07012 22.6988 9.85697 21.9529L9.88997 21.9392L9.92375 21.9278C9.93493 21.924 10.3219 21.7875 10.8548 21.2968C11.4108 20.7852 11.8379 20.145 12.1129 19.4059L14.0501 19.7546V25.6897L13.2497 25.8527C10.7187 26.368 8.74085 28.4211 8.32918 31H9.24305C9.71016 28.5175 11.884 26.6364 14.5002 26.6364C17.1164 26.6364 19.2902 28.5175 19.7573 31H20.6712C20.2595 28.4211 18.2816 26.368 15.7506 25.8526L14.9501 25.6896V19.7546L16.8874 19.4059C17.1623 20.145 17.5892 20.785 18.1452 21.2966C18.678 21.7871 19.0651 21.9239 19.0765 21.9278L19.1103 21.9392L19.1433 21.9529C20.9301 22.6988 22.8409 22.0961 23.7429 20.646C24.3556 19.6609 24.3836 18.5262 23.9119 17.641L23.1714 16.2512L24.7441 16.172C25.8999 16.1138 26.9353 15.5138 27.5333 14.5522C28.4103 13.1423 28.0392 11.4029 26.4969 10.3711L26.4649 10.3497L26.4356 10.3266C26.4274 10.3204 26.1051 10.0781 25.376 9.89371C24.2792 9.61617 23.0502 9.68246 21.8184 10.1195L21.1808 10.3453L20.187 8.65139C21.1411 7.8131 21.7741 6.80523 22.0559 5.73136C22.2582 4.96122 22.1893 4.52716 22.1868 4.51235L22.1802 4.47533ZM21.6822 31C21.727 31.3269 21.7502 31.6607 21.7502 32H18.8502C18.8502 29.59 16.9026 27.6364 14.5002 27.6364C12.0977 27.6364 10.1502 29.59 10.1502 32H7.25019C7.25019 31.6607 7.27334 31.3269 7.31816 31C7.73812 27.9366 10.06 25.4817 13.0501 24.8728V19.7546C12.8119 20.3949 12.4756 20.9786 12.0501 21.4886C11.8899 21.6807 11.7171 21.8623 11.5321 22.0325C10.8652 22.6465 10.3433 22.8418 10.2422 22.8758C8.04498 23.7929 5.59261 23.0784 4.40822 21.1741C3.81903 20.2268 3.63449 19.1423 3.8494 18.1457C3.9223 17.8077 4.04117 17.4798 4.20581 17.1708C3.85303 17.153 3.50797 17.0954 3.17649 17.001C2.12387 16.7012 1.20822 16.0297 0.617748 15.0804C-0.566489 13.1764 -0.00707388 10.8474 1.9473 9.53995C2.02938 9.47537 2.47253 9.15345 3.37915 8.92422C4.30276 8.6905 5.28793 8.66553 6.27979 8.84593C6.69209 8.92092 7.10554 9.03139 7.51621 9.17711L8.15349 9.40273C7.96509 9.23725 7.78683 9.0652 7.61909 8.88714C7.61904 8.88708 7.61915 8.8872 7.61909 8.88714C7.33883 8.58961 7.08778 8.27515 6.86807 7.94681C6.45929 7.33588 6.15844 6.67624 5.97706 5.98519C5.72675 5.03234 5.80908 4.44804 5.82916 4.33702C6.08282 1.82357 8.06185 0 10.5378 0C11.7936 0 12.9448 0.467954 13.7917 1.27976C14.0396 1.51735 14.2614 1.7844 14.4521 2.0778C14.6439 1.78908 14.8694 1.52488 15.1225 1.28881C15.9909 0.478878 17.1849 0.000293816 18.4623 0.000293816C20.9387 0.000293816 22.9174 1.82387 23.1714 4.33732C23.1911 4.44834 23.2734 5.03264 23.0231 5.98519C22.8417 6.67633 22.5409 7.33591 22.1322 7.9468C21.9125 8.27517 21.6616 8.58946 21.3813 8.88703C21.3813 8.88709 21.3814 8.88697 21.3813 8.88703C21.2137 9.06501 21.0354 9.23717 20.8471 9.40261L21.484 9.17711C21.8947 9.03138 22.3082 8.92091 22.7205 8.84592C23.7123 8.66553 24.6975 8.6905 25.6211 8.92422C26.5277 9.15345 26.9709 9.47537 27.0529 9.53995C29.0073 10.8474 29.5667 13.1764 28.3825 15.0804C27.792 16.0297 26.8764 16.7012 25.8238 17.001C25.4923 17.0954 25.1472 17.153 24.7944 17.1708C24.9591 17.4798 25.0779 17.8077 25.1508 18.1457C25.3658 19.1423 25.1812 20.2268 24.592 21.1741C23.4076 23.0784 20.9553 23.7929 18.7581 22.8758C18.657 22.8418 18.135 22.6465 17.4681 22.0325C17.2831 21.8623 17.1103 21.6807 16.9501 21.4886C16.5247 20.9786 16.1883 20.3949 15.9501 19.7546V24.8727C18.9403 25.4816 21.2622 27.9365 21.6822 31Z" fill="url(#paint1_linear_2371_4612)"></path><defs><linearGradient id="paint0_linear_2371_4612" x1="0.000122286" y1="16" x2="29.0001" y2="16" gradientUnits="userSpaceOnUse"><stop stop-color="#A6CCDC"></stop><stop offset="1" stop-color="#C0E9FA"></stop></linearGradient><linearGradient id="paint1_linear_2371_4612" x1="0.000122286" y1="16" x2="29.0001" y2="16" gradientUnits="userSpaceOnUse"><stop stop-color="#E5EFF3"></stop><stop offset="0.5" stop-color="#A2D4EA"></stop><stop offset="1" stop-color="#E5EFF3"></stop></linearGradient></defs></svg>
