<svg viewBox="0 0 800 148" fill="none" xmlns="http://www.w3.org/2000/svg">
<path d="M486.805 45.4456C468.637 45.4456 464.679 62.4255 464.679 81.1469V115.073H449.431V66.3774C449.431 53.6173 445.279 45.4791 432.918 45.4791C414.848 45.4791 410.793 62.5594 410.793 81.1804V115.107H395.221V34.7285H410.793V52.2442C415.984 38.8478 425.132 32.1497 438.206 32.1497C451.281 32.1497 460.527 38.446 463.576 52.8805C468.767 39.0488 478.272 32.1497 492.06 32.1497C509.903 32.1497 518.857 43.0677 518.857 64.9373V115.107H503.285V66.4109C503.285 53.5839 499.068 45.5125 486.772 45.5125L486.805 45.4456Z" fill="white"/>
<path d="M624.943 45.4456C606.775 45.4456 602.817 62.4255 602.817 81.1469V115.073H587.537V66.3774C587.537 53.6173 583.384 45.4791 571.024 45.4791C552.986 45.4791 548.899 62.5259 548.899 81.1804V115.107H533.326V34.7285H548.899V52.2442C554.089 38.8478 563.238 32.1497 576.312 32.1497C589.386 32.1497 598.632 38.5129 601.682 52.8805C606.872 39.0488 616.378 32.1497 630.166 32.1497C648.009 32.1497 656.963 43.0677 656.963 64.9373V115.107H641.391V66.4109C641.391 53.6508 637.238 45.5125 624.878 45.5125L624.943 45.4456Z" fill="white"/>
<path d="M696.185 74.7166C696.185 49.9333 710.395 32.1162 736.348 32.1162C762.302 32.1162 776.511 49.6319 776.511 74.7166C776.511 99.8013 762.464 117.652 736.348 117.652C710.233 117.652 696.185 99.6004 696.185 74.7166ZM736.348 104.791C754.84 104.791 760.81 94.1414 760.81 74.8841C760.81 55.6268 754.873 44.9767 736.348 44.9767C717.824 44.9767 711.887 55.5933 711.887 74.8841C711.887 94.1749 717.824 104.791 736.348 104.791Z" fill="white"/>
<path d="M670.296 8.17017H686.647V22.6382H670.296V8.17017ZM670.686 35.0382H686.258V115.073H670.686V35.0382Z" fill="white"/>
<path d="M373.29 34.695L373.225 34.8624L347.726 103.653L345.001 111.724L342.503 103.653L317.62 34.6615H301.593L331.018 115.04H343.541L336.403 134.297H313.37V147.157H326.768C332.9 147.157 337.669 146.32 341.075 144.612C344.514 142.871 347.207 140.359 349.186 137.043C351.165 133.728 353.403 128.737 355.869 122.106L388.44 34.6615H373.322L373.29 34.695Z" fill="white"/>
<path d="M781.54 8.17017V10.7825H776.674V22.6382H773.624V10.7825H768.758V8.17017H781.54ZM783.324 8.17017H787.671L791.565 18.2844H791.792L795.652 8.17017H799.999V22.6382H797.047V12.7249H796.82L792.992 22.6382H790.397L786.569 12.7249H786.341V22.6382H783.389V8.17017H783.324Z" fill="white"/>
<path d="M252.339 102.394C267.668 102.394 279.249 99.1901 279.249 83.5486C279.249 72.2482 271.956 67.4248 261.084 65.84L236.132 62.188C217.561 59.5351 208.242 49.6817 208.242 32.5932C208.242 9.50991 227.758 0.000976562 250.38 0.000976562C264.764 0.000976562 275.569 3.23952 282.862 9.68217C290.155 16.1248 294.173 24.6346 294.95 35.246H278.743C276.784 19.639 265.878 13.2652 250.211 13.2652C241.77 13.2652 235.49 14.9534 231.337 18.2953C227.184 21.6717 225.091 26.2539 225.091 32.1108C225.091 41.2752 230.662 46.2364 239.508 47.649L265.912 51.611C288.332 54.884 296.064 66.1156 296.064 81.3781C296.064 104.186 281.478 115.624 252.305 115.624C235.895 115.624 223.875 111.903 216.312 104.461C208.748 97.0196 204.967 87.5796 204.967 76.1069H221.174C221.714 93.6433 232.08 102.394 252.305 102.394H252.339Z" fill="white"/>
<path d="M0.00390625 90.9674V115.622H129.229V105.42C129.229 88.5171 142.932 74.8143 159.835 74.8143V40.8076H125.829V90.1173L0.00390625 90.9674Z" fill="white"/>
<path d="M159.832 24.6549V3.8147e-05H30.606V10.202C30.606 27.1052 16.9033 40.808 1.52588e-05 40.808V74.8147H34.0067V25.505L159.832 24.6549Z" fill="white"/>
<rect x="47.6099" y="40.8081" width="64.6127" height="34.0067" fill="#ED4A3F"/>
</svg>
