<svg viewBox="0 0 24 24" fill="none" xmlns="http://www.w3.org/2000/svg">
    <path
        d="M14.4181 3.41045C14.083 3.36225 13.7448 3.33558 13.4107 3.32738C13.01 3.31815 12.6123 3.33045 12.2188 3.36635C12.2628 3.02074 12.7384 2.75 13.3164 2.75C13.8944 2.75 14.4099 3.04433 14.4181 3.41045Z"
        fill="#326295" />
    <path
        d="M22.28 16.8788C22.28 16.8788 21.9808 17.1424 21.2777 17.2603C20.8329 17.3342 20.342 17.2501 19.9648 17.1496C20.2057 16.5691 20.4086 16.0676 20.4086 16.0676L22.28 16.8788Z"
        fill="#2A2F33" />
    <path
        d="M3.97387 18.3331C3.68383 18.8223 3.06891 19.7935 2.54212 20.1729C2.04608 20.5298 1.62486 20.535 1.54492 20.3001C1.54492 20.3001 1.95999 18.8182 3.97387 18.3331Z"
        fill="#2A2F33" />
    <path
        d="M22.2803 16.8788L20.4089 16.0676C20.4089 16.0676 20.206 16.5691 19.9651 17.1495C19.7571 17.6572 19.5203 18.2264 19.3676 18.5771C19.0397 19.3298 17.9974 21.2794 17.0719 21.3768C16.1454 21.4732 14.5825 20.7779 13.1743 20.179C11.7662 19.5811 9.77894 18.5197 5.99819 18.21C5.18855 18.1443 4.52238 18.2017 3.97407 18.333C1.9602 18.8181 1.54513 20.3 1.54513 20.3C1.54513 20.2979 1.54513 20.2959 1.54308 20.2938C1.54308 20.2928 1.54205 20.2897 1.54103 20.2867C1.54 20.2846 1.54 20.2815 1.53898 20.2785C1.50516 20.1574 1.36988 19.5042 1.92741 18.172C2.46444 16.887 4.50496 13.595 4.50496 13.595H4.50598C4.58285 13.5673 7.87678 12.4187 11.9158 13.2125C16.003 14.0155 19.135 15.5056 19.135 15.5056C19.135 15.5056 20.8096 9.92565 18.9966 6.35472C18.4022 5.18356 17.406 4.38877 16.2582 3.90881C18.7845 4.8882 20.3095 6.45933 21.0218 7.69613C21.6931 8.86114 22.1409 9.85796 22.4156 12.11C22.6657 14.1673 22.2803 16.8788 22.2803 16.8788Z"
        fill="#326295" />
    <path
        d="M19.1339 15.5057C19.1339 15.5057 16.0019 14.0156 11.9148 13.2126C7.87573 12.4188 4.5818 13.5674 4.50493 13.5941H4.50391C4.57052 10.1226 6.06684 7.13113 7.56622 5.50053C8.79402 4.16733 10.4523 3.52739 12.2181 3.36638C12.6117 3.33049 13.0093 3.31818 13.41 3.32741C13.7441 3.33561 14.0824 3.36228 14.4175 3.41048C15.0447 3.4997 15.6637 3.66174 16.2448 3.90376C16.2489 3.90581 16.253 3.90684 16.2571 3.90889C17.405 4.38884 18.4012 5.18364 18.9956 6.3548C20.8086 9.92573 19.1339 15.5057 19.1339 15.5057Z"
        fill="#66A3E0" />
</svg>