<svg viewBox="0 0 24 24" fill="none" xmlns="http://www.w3.org/2000/svg">
    <path
        d="M12 22C17.5228 22 22 17.5228 22 12C22 6.47715 17.5228 2 12 2C6.47715 2 2 6.47715 2 12C2 17.5228 6.47715 22 12 22Z"
        fill="#1A0FF4" />
    <path fill-rule="evenodd" clip-rule="evenodd"
        d="M14.5676 7.79332C14.7998 7.69529 15.0448 7.59187 15.3104 7.48016C15.2722 7.59904 15.2382 7.70451 15.2071 7.80052C15.1309 8.03634 15.0732 8.21511 15.0189 8.39552C14.8976 8.7764 14.8316 9.16392 14.9426 9.55477C15.0815 10.0459 15.4666 10.1427 15.8517 9.78527C16.0252 9.62492 16.1397 9.42452 16.2299 9.21405C16.5318 8.50584 16.7815 7.78081 16.9585 7.03586C17.1458 6.23736 16.6844 5.83977 15.869 6.06031C15.7653 6.08699 15.665 6.12357 15.5647 6.16019L15.5637 6.16056C14.7166 6.47324 13.897 6.85006 13.0789 7.22622C12.8918 7.31227 12.7047 7.39828 12.5174 7.48348C12.4584 7.51015 12.3995 7.54025 12.3474 7.57366C12.0421 7.76743 11.9345 8.00125 12.0386 8.24182C12.1531 8.50574 12.4237 8.60931 12.8019 8.50241C13.0274 8.4389 13.246 8.34871 13.4611 8.25852C13.8187 8.1095 14.1749 7.95912 14.5676 7.79332ZM15.2033 15.915C15.4621 16.0988 15.738 16.2418 16.0785 16.2656L16.0786 16.2658C16.426 16.2454 16.7222 16.1092 16.8926 15.7859C17.0731 15.4319 17.0152 15.0916 16.8006 14.7717C16.6019 14.474 16.3035 14.2919 16.0054 14.1101C15.9969 14.1049 15.9884 14.0997 15.9798 14.0945C15.824 13.9995 15.668 13.9047 15.5119 13.81C14.6444 13.2833 13.7755 12.7558 12.9385 12.1819C12.4194 11.8249 12.4204 11.8235 12.669 11.4667C12.6978 11.4254 12.7298 11.3795 12.7648 11.3276C12.8732 11.1671 12.982 11.0066 13.091 10.846C13.4301 10.346 13.7698 9.84502 14.0998 9.34016C14.2394 9.12576 14.345 8.88408 14.1202 8.64928C13.9397 8.45866 13.7319 8.48245 13.3879 8.72751C13.3029 8.78872 13.2211 8.85343 13.1462 8.92828C13.0511 9.024 12.9558 9.11939 12.8604 9.21478C12.5251 9.55008 12.1899 9.88538 11.8691 10.2351L11.8463 10.2598C11.2287 10.9296 11.2233 10.9355 10.4931 10.327C10.2073 10.0877 9.91622 9.85486 9.62516 9.62196C9.06327 9.17236 8.50131 8.72269 7.97635 8.22724C7.66646 7.9345 7.36334 7.93111 7.14878 8.17956C6.96151 8.39396 6.96828 8.63902 7.07387 8.88747C7.23395 9.26183 7.49961 9.56123 7.78231 9.84372C8.26314 10.3195 8.74899 10.7885 9.23518 11.258C9.44458 11.4601 9.65404 11.6624 9.86319 11.8652C10.2073 12.1953 10.214 12.2022 9.92794 12.5629C9.28764 13.3694 8.64056 14.1726 7.99349 14.9724C7.96487 15.0079 7.93594 15.0432 7.90703 15.0784C7.72259 15.3032 7.53887 15.5272 7.44174 15.8096C7.2987 16.2214 7.38725 16.6127 7.67672 16.8373C7.96619 17.0619 8.3749 17.0551 8.73589 16.81C8.98084 16.6415 9.1664 16.4106 9.35082 16.1811C9.36379 16.165 9.37676 16.1489 9.38974 16.1328C9.85366 15.557 10.2703 14.9479 10.6874 14.3382C10.8521 14.0975 11.0168 13.8568 11.1845 13.6179C11.4399 13.2537 11.4501 13.2469 11.8009 13.5191C12.4894 14.0533 13.2088 14.5432 13.9287 15.0334C14.3555 15.324 14.7824 15.6148 15.2033 15.915Z"
        fill="#F2F2F2" />
</svg>