<svg viewBox="0 0 24 24" fill="none" xmlns="http://www.w3.org/2000/svg">
  <path
    d="M17.5924 4.71082C17.427 3.13992 16.1381 2.00018 14.5251 2.00018C13.4507 2.00018 12.4668 2.49907 11.9131 3.29862C11.3645 2.48872 10.421 2 9.36364 2C7.75093 2 6.46191 3.13973 6.29669 4.71064C6.28362 4.78002 6.22999 5.14521 6.39302 5.74074C6.61268 6.54375 7.1013 7.27888 7.81062 7.87671L7.39554 7.73569C6.48456 7.42552 5.55255 7.37084 4.7009 7.57764C4.11038 7.72091 3.82174 7.92211 3.76828 7.96247C2.49531 8.77965 2.13094 10.2352 2.90229 11.4252C3.408 12.2054 4.27991 12.6854 5.23934 12.7317C4.816 13.4941 4.85723 14.4409 5.37117 15.2339C6.14261 16.424 7.73995 16.8706 9.17106 16.2974C9.23693 16.2761 9.57687 16.1541 10.0113 15.7702C10.4517 15.3814 10.7864 14.8975 11 14.3466V17.5455C8.84458 17.9667 7.22227 19.8009 7.22227 22H9.11116C9.11116 20.4938 10.3797 19.2727 11.9445 19.2727C13.5093 19.2727 14.7778 20.4938 14.7778 22H16.6667C16.6667 19.8009 15.0444 17.9666 12.8889 17.5454V14.3466C13.1025 14.8975 13.4372 15.3814 13.8776 15.7702C14.3121 16.1541 14.6519 16.2761 14.7178 16.2974C16.1489 16.8706 17.7463 16.424 18.5177 15.2339C19.0317 14.4409 19.0729 13.4941 18.6495 12.7317C19.609 12.6854 20.4809 12.2054 20.9866 11.4252C21.7579 10.2352 21.3936 8.77965 20.1206 7.96247C20.0672 7.92211 19.7785 7.72091 19.188 7.57764C18.3363 7.37084 17.4043 7.42552 16.4934 7.73569L16.0785 7.87662C16.7877 7.27871 17.2762 6.54382 17.4958 5.74074C17.6588 5.1454 17.6052 4.78021 17.5924 4.71082Z"
    fill="#F1F1F1"
  />
</svg>
