<svg viewBox="0 0 24 24" fill="none" xmlns="http://www.w3.org/2000/svg">
    <path
        d="M10.2962 3.00238C10.7668 3.00238 11.2363 3 11.707 3C12.022 3.03095 12.3346 3.07738 12.646 3.13809C13.3675 3.27857 14.0617 3.50237 14.7261 3.81666C15.3501 4.11189 15.9218 4.4845 16.4722 4.90116C17.0784 5.35949 17.6251 5.87496 18.0863 6.47733C18.1731 6.59162 18.2527 6.7059 18.3918 6.75471C18.6295 6.83685 18.8387 6.97018 19.0514 7.09994C19.7741 7.54517 20.4076 8.08564 20.8629 8.81182C21.0602 9.12611 21.2218 9.46658 21.6117 9.59634C21.6735 9.61657 21.7151 9.67253 21.7674 9.70943C22.5317 10.2606 22.9156 11.0201 23 11.9463C23 12.0999 23 12.2534 23 12.407C22.9691 12.7403 22.8942 13.0641 22.7611 13.3701C22.4449 14.0915 21.9219 14.6129 21.2076 14.9427C21.1315 14.9772 21.0649 15.026 21.0257 15.0998C20.8237 15.4748 20.5717 15.8082 20.2698 16.1105C19.8359 16.5474 19.3569 16.9153 18.8161 17.2093C18.683 17.2819 18.532 17.3343 18.4381 17.4748C18.0804 18.0081 17.6715 18.4926 17.196 18.9295C16.7408 19.3486 16.2535 19.7236 15.7388 20.0593C14.9781 20.5557 14.1544 20.9248 13.276 21.1676C12.6769 21.3331 12.0672 21.4438 11.4479 21.4676C10.9558 21.4866 10.4626 21.4831 9.96929 21.4164C9.47483 21.3497 8.98988 21.2557 8.51206 21.12C7.79652 20.9164 7.12852 20.6021 6.48786 20.226C6.00647 19.9438 5.5548 19.6152 5.14473 19.2414C4.78934 18.9188 4.45534 18.5688 4.1463 18.195C3.66135 17.6069 3.25723 16.9677 2.9256 16.2867C2.66054 15.7415 2.44778 15.1713 2.30753 14.5772C2.22076 14.207 2.13518 13.8368 2.09358 13.4582C2.07099 13.2713 2.04841 13.0844 2.02464 12.8987C2.05673 12.7999 1.9557 12.7022 2.02464 12.6034C2.02345 12.5713 2.02226 12.5392 2.02107 12.5058C2.02107 12.4284 2.02107 12.3511 2.02107 12.2749C2.02107 12.2642 2.02107 12.2534 2.02107 12.2427C2.02107 12.1439 2.02107 12.0451 2.02226 11.9451C2.02226 11.9344 2.02226 11.9237 2.02345 11.913C2.03771 11.6963 2.03177 11.4785 2.06267 11.2618C2.10309 10.9749 2.10428 10.6785 2.17203 10.3975C2.37409 9.563 2.61657 8.74278 3.02069 7.97374C3.32379 7.39518 3.66135 6.84161 4.0631 6.33091C4.35788 5.95472 4.68355 5.60234 5.04489 5.28449C5.76638 4.64879 6.54848 4.10951 7.43043 3.71785C8.34209 3.31428 9.29535 3.06667 10.2962 3.00238ZM13.194 11.888C13.2249 11.5654 13.2308 11.2368 13.2926 10.9201C13.3628 10.5606 13.4626 10.2059 13.5981 9.86062C13.8727 9.1642 14.2483 8.53802 14.7784 8.00469C14.9401 7.84279 15.1267 7.71065 15.2859 7.54875C15.3893 7.48565 15.4916 7.4178 15.5985 7.36184C15.8208 7.24518 16.0466 7.13447 16.2713 7.02018C16.5494 6.94399 16.8264 6.86185 17.114 6.81423C16.868 6.73328 16.6196 6.71781 16.3688 6.72138C15.9896 6.64757 15.6187 6.70828 15.2491 6.79042C15.2324 6.79042 15.2158 6.78566 15.2004 6.78804C14.2091 6.97733 13.3533 7.43922 12.6246 8.12731C12.0969 8.62611 11.6952 9.21896 11.4051 9.88919C11.1888 10.3916 11.039 10.9082 10.9832 11.4523C10.9083 11.8701 10.8857 12.2868 10.9915 12.7034C10.9653 12.8951 11.0165 13.0856 11.0604 13.263C11.2982 14.2094 11.7047 15.0713 12.3786 15.7927C13.0775 16.5415 13.9072 17.0712 14.9032 17.3296C15.2586 17.4212 15.6199 17.4891 15.9836 17.4915C16.2582 17.4927 16.5364 17.4688 16.8121 17.4677C16.8858 17.4677 16.9369 17.4331 16.9928 17.3784C16.9631 17.3593 16.9464 17.3438 16.9262 17.3379C16.5435 17.2308 16.1512 17.1546 15.8018 16.9439C15.5569 16.795 15.305 16.6558 15.0922 16.4653C14.7439 16.1534 14.423 15.8141 14.1639 15.4177C13.8691 14.9677 13.6468 14.4867 13.4769 13.9772C13.3735 13.6677 13.3259 13.3463 13.2499 13.0308C13.2451 12.9415 13.2724 12.8475 13.2094 12.7677C13.2392 12.6249 13.1809 12.4832 13.2035 12.3403L13.1845 12.2034C13.1845 12.1856 13.1845 12.1665 13.1845 12.1487C13.1987 12.113 13.1987 12.0761 13.1845 12.0392C13.1845 12.0225 13.1845 12.0046 13.1845 11.988C13.2023 11.9558 13.2059 11.9225 13.1916 11.8868L13.194 11.888ZM19.8431 14.7998C19.9524 14.8189 20.057 14.782 20.164 14.7736C20.9794 14.7046 21.6165 14.3201 22.1014 13.6749C22.3094 13.3987 22.4532 13.0868 22.502 12.738C22.6434 12.3308 22.6208 11.9249 22.496 11.5189C22.3605 10.9011 22.0206 10.4166 21.5178 10.0463C20.9318 9.61538 20.2757 9.48562 19.5554 9.57491C18.5463 9.69872 17.6227 10.5678 17.4231 11.5856C17.3137 11.9106 17.3363 12.2415 17.3791 12.5737C17.4599 13.0856 17.6774 13.5415 18.0245 13.9141C18.5023 14.426 19.0895 14.7463 19.8074 14.7748C19.8122 14.7939 19.8217 14.8058 19.8431 14.801V14.7998ZM8.8413 12.1118C8.83893 11.3737 8.92926 10.6463 9.08259 9.92371C9.21809 9.28682 9.44036 8.68087 9.73157 8.10588C10.062 7.4547 10.4756 6.85471 11.0355 6.36662C11.6928 5.79282 12.4226 5.39878 13.3152 5.36901C13.4472 5.36901 13.5779 5.36901 13.7098 5.36901C13.7895 5.38211 13.8691 5.39044 13.9488 5.40116C14.5561 5.48568 15.0946 5.72496 15.5878 6.08329C15.7126 6.17377 15.8101 6.33924 16.0062 6.28805C16.2237 6.29162 16.4425 6.29638 16.66 6.29995C16.8394 6.34995 17.0344 6.31781 17.2055 6.40352C17.2555 6.42852 17.2994 6.43924 17.3363 6.39043C17.385 6.32495 17.3089 6.30829 17.2828 6.27734C17.0379 5.98567 16.7681 5.71782 16.4805 5.46782C15.7935 4.8714 14.9793 4.53688 14.1033 4.35355C13.4816 4.22379 12.8552 4.24165 12.2253 4.3476C11.4788 4.47379 10.8037 4.7595 10.1749 5.17021C9.64124 5.51782 9.18481 5.95115 8.76286 6.42614C8.41578 6.81661 8.12576 7.24756 7.87378 7.70232C7.42924 8.50707 7.10594 9.36182 6.93478 10.2678C6.87297 10.5939 6.76837 10.9166 6.79333 11.2558C6.78026 11.3011 6.75767 11.3463 6.75411 11.3927C6.72439 11.8189 6.69706 12.2475 6.72915 12.6737C6.73985 12.8225 6.7137 12.9856 6.79214 13.1284C6.7969 13.2356 6.80046 13.3427 6.81354 13.4499C6.88842 14.0748 7.02868 14.6832 7.23193 15.2784C7.4542 15.9332 7.74779 16.551 8.11388 17.1367C8.54653 17.8284 9.08497 18.4236 9.7185 18.9379C10.1999 19.3295 10.7383 19.6283 11.31 19.8521C11.8675 20.07 12.4547 20.189 13.062 20.1748C13.4198 20.1664 13.78 20.1629 14.1294 20.0807C14.7118 19.9438 15.2764 19.7569 15.7923 19.4402C16.0906 19.2569 16.389 19.076 16.6291 18.8153C16.6932 18.8057 16.7289 18.7522 16.7717 18.7129C16.9607 18.5426 17.1235 18.3474 17.2923 18.1581C17.3815 18.0569 17.4706 17.9557 17.5609 17.8546C17.5906 17.8212 17.6322 17.7831 17.6037 17.7427C17.5788 17.7069 17.5217 17.7177 17.4813 17.7284C16.944 17.8807 16.3949 17.9129 15.841 17.8879C15.7673 17.8843 15.7031 17.8986 15.6413 17.9438C15.3537 18.1534 15.0494 18.3343 14.719 18.47C14.1389 18.7069 13.5422 18.77 12.9254 18.67C12.5236 18.6045 12.1575 18.4498 11.8045 18.2534C11.31 17.9784 10.8905 17.6153 10.5315 17.1843C10.1452 16.7212 9.83855 16.207 9.58894 15.657C9.37737 15.1915 9.20026 14.7094 9.09091 14.2129C8.94709 13.5653 8.84606 12.9082 8.84487 12.2415C8.84487 12.2308 8.84487 12.2201 8.84368 12.2094C8.84368 12.1868 8.84368 12.1642 8.84249 12.1427C8.84249 12.132 8.84249 12.1213 8.84249 12.1118H8.8413ZM13.5137 20.6533C13.5696 20.6355 13.6243 20.6164 13.6801 20.5986C13.5791 20.5521 13.4876 20.57 13.396 20.5926C13.3794 20.5926 13.3628 20.5938 13.3461 20.595C13.1833 20.595 13.0204 20.595 12.8576 20.595C12.5474 20.6176 12.2443 20.5402 11.9483 20.4771C11.3992 20.3617 10.8679 20.1676 10.377 19.8879C9.55328 19.4188 8.84606 18.8117 8.25651 18.0665C7.92726 17.6498 7.64319 17.2022 7.39358 16.7367C7.14992 16.282 6.95855 15.8022 6.79571 15.3117C6.6198 14.782 6.50569 14.2391 6.4213 13.6879C6.39277 13.5796 6.42011 13.4594 6.35355 13.3582C6.34285 13.0844 6.33215 12.8118 6.32027 12.538C6.32027 12.3296 6.32027 12.1213 6.32027 11.913C6.30719 11.5427 6.35593 11.1749 6.39872 10.8106C6.44745 10.3999 6.5461 9.99514 6.65427 9.59277C6.85276 8.84992 7.13328 8.13802 7.51363 7.47375C7.97124 6.67257 8.518 5.93686 9.23473 5.34163C9.60796 5.03092 10.0002 4.75117 10.4293 4.52141C10.7859 4.33093 11.1591 4.18332 11.5418 4.05594C11.8271 4.00594 12.104 3.91427 12.3941 3.89046C12.7411 3.83451 13.0941 3.83451 13.4472 3.80475C13.213 3.65713 12.9456 3.62856 12.69 3.57261C12.5509 3.54166 12.4119 3.48333 12.2633 3.50833C12.0042 3.4488 11.7439 3.39047 11.4753 3.40952C11.0723 3.38214 10.6718 3.3988 10.2688 3.42976C9.89679 3.45833 9.5307 3.5119 9.16817 3.59285C8.37894 3.76785 7.63011 4.05118 6.92289 4.45236C6.36543 4.76902 5.8472 5.13926 5.37176 5.56425C5.033 5.86663 4.72278 6.20234 4.43514 6.55709C4.05359 7.02852 3.71603 7.52851 3.44146 8.06779C3.20968 8.52254 3.01356 8.99158 2.86023 9.48086C2.74494 9.8499 2.64866 10.2201 2.5821 10.5987C2.5298 10.7392 2.53336 10.888 2.51435 11.0344C2.44184 11.5785 2.40856 12.1237 2.45967 12.6713C2.45729 12.8284 2.47393 12.9844 2.48225 13.1415C2.50602 13.6332 2.61062 14.1094 2.7378 14.5796C2.94224 15.3367 3.25366 16.0522 3.64233 16.7343C4.22356 17.7557 4.98784 18.6188 5.91376 19.3283C6.81948 20.0212 7.83099 20.5164 8.94115 20.8045C9.49623 20.9486 10.0584 21.02 10.6266 21.0462C11.1745 21.0712 11.7237 21.0593 12.2645 20.9486C12.6829 20.8628 13.1084 20.8057 13.5113 20.6545L13.5137 20.6533ZM17.4492 16.1843C17.4314 16.1748 17.4135 16.1581 17.3945 16.157C16.8977 16.1165 16.5066 15.8582 16.1465 15.5439C15.6746 15.132 15.3679 14.6046 15.1326 14.0356C14.9127 13.5058 14.7998 12.9439 14.7665 12.3761C14.738 11.8963 14.7665 11.4154 14.8497 10.9344C14.9828 10.1737 15.2717 9.4892 15.7126 8.86301C15.7329 8.84516 15.7566 8.83087 15.7721 8.80944C16.1429 8.3404 16.5863 7.95707 17.177 7.82136C17.7511 7.68922 18.3157 7.76184 18.8363 8.07017C19.1988 8.28564 19.4889 8.57849 19.7361 8.91539C19.8407 9.05825 19.9548 9.1511 20.1426 9.12372C20.2103 9.1142 20.2805 9.11301 20.3506 9.14634C20.3922 9.16658 20.4528 9.22729 20.4944 9.16301C20.5265 9.11301 20.5015 9.04753 20.4611 8.99635C20.353 8.85944 20.2496 8.72135 20.1402 8.58564C19.6707 7.99993 19.1037 7.55708 18.3668 7.35946C17.7487 7.19399 17.1378 7.19756 16.5304 7.4047C16.4282 7.43803 16.3236 7.46541 16.2237 7.50708C15.7994 7.68565 15.4286 7.95112 15.1076 8.27255C14.3969 8.98444 13.9666 9.85229 13.7514 10.8308C13.6468 11.263 13.5969 11.6999 13.6421 12.1451C13.61 12.7641 13.7098 13.3641 13.9131 13.9475C14.1247 14.5546 14.4147 15.1213 14.8331 15.6093C15.3989 16.2701 16.0954 16.7331 16.9607 16.9093C17.3006 16.9617 17.6406 16.9653 17.9793 16.9046C18.5653 16.8034 19.0966 16.5808 19.5495 16.1867C19.7931 16.001 19.9964 15.7748 20.1806 15.5308C20.2341 15.4701 20.2888 15.4105 20.3387 15.3474C20.3672 15.3105 20.4136 15.2689 20.3934 15.2224C20.3732 15.1772 20.3161 15.2034 20.2745 15.2022C20.1248 15.1951 19.969 15.2391 19.8288 15.2153C19.6885 15.1915 19.6077 15.2177 19.5186 15.3141C19.1965 15.6653 18.828 15.9462 18.3644 16.0951C18.1826 16.1534 17.9936 16.1403 17.8141 16.1927C17.6941 16.1915 17.5728 16.1903 17.4528 16.1879L17.4492 16.1843Z"
        fill="#EFE91D" />
</svg>