<svg viewBox="0 0 24 24" fill="none" xmlns="http://www.w3.org/2000/svg">
<path d="M11.9999 21.9549C17.4979 21.9549 21.9549 17.4979 21.9549 11.9999C21.9549 6.50193 17.4979 2.04492 11.9999 2.04492C6.50193 2.04492 2.04492 6.50193 2.04492 11.9999C2.04492 17.4979 6.50193 21.9549 11.9999 21.9549Z" fill="url(#paint0_linear_3489_7077)"/>
<path d="M14.1045 10.8589L14.9062 11.5707L17.6484 9.27167V5.53503L16.8068 6.14441C16.6638 6.24832 16.521 6.35246 16.3784 6.45683C16.2268 6.56761 16.075 6.67816 15.923 6.78847L15.8203 6.86441C15.0586 7.41847 14.1952 8.04636 13.3987 8.7366C13.3594 8.77082 13.32 8.8041 13.2816 8.83738C12.99 9.08464 12.6595 9.36449 12.4716 9.82175C12.274 10.3013 12.2606 10.8415 12.438 11.3042C12.6877 11.9583 13.2148 12.3542 13.6802 12.7032C13.7803 12.7784 13.8748 12.8494 13.9641 12.9209C14.5598 13.3981 15.168 13.8785 15.7563 14.3431L16.4475 14.8896V16.1503L12.3105 12.8925L12.3138 14.2146L17.5064 18.3493V14.3761L17.3055 14.217C17.0079 13.9809 16.7101 13.7453 16.4121 13.5103C15.8262 13.047 15.2184 12.5677 14.6257 12.0926C14.5235 12.0106 14.4178 11.9314 14.3156 11.8545C13.9312 11.566 13.5682 11.2934 13.428 10.9257C13.347 10.7128 13.3552 10.4569 13.4515 10.2249C13.5412 10.0067 13.729 9.84777 13.9671 9.64644C14.0095 9.61058 14.052 9.57472 14.0941 9.53792C14.8563 8.87746 15.7003 8.26363 16.4449 7.72199L16.5476 7.64746L16.5891 7.61722V8.77691L14.1045 10.8589Z" fill="white"/>
<path d="M11.7315 11.0681L11.7282 9.74604L6.53422 5.61096V9.58409L6.73508 9.74323C7.03273 9.97917 7.33055 10.2147 7.62852 10.4499C8.21445 10.9132 8.82219 11.3928 9.41492 11.8676C9.51711 11.9496 9.62281 12.0289 9.725 12.1057C10.1094 12.3942 10.4724 12.6668 10.6126 13.0346C10.6937 13.2474 10.6855 13.5033 10.5891 13.7353C10.4994 13.9535 10.3116 14.1124 10.0735 14.3138C10.0311 14.3496 9.98867 14.3855 9.94648 14.4223C9.1843 15.0828 8.34031 15.6966 7.5957 16.2382L7.49422 16.3125L7.45391 16.343V15.1833L9.93828 13.1014L9.13672 12.3896L6.39453 14.6885V18.4252L7.23617 17.8158C7.37914 17.7119 7.52195 17.6078 7.66461 17.5034C7.81633 17.3924 7.96813 17.2819 8.12 17.1717L8.22266 17.097C8.98227 16.5417 9.8457 15.9141 10.6414 15.2236C10.6808 15.1894 10.7202 15.1561 10.7586 15.1228C11.0502 14.8756 11.3806 14.5957 11.5686 14.1385C11.7662 13.6589 11.7784 13.1187 11.6021 12.656C11.3525 12.0019 10.8254 11.606 10.3599 11.2571C10.2598 11.1818 10.1654 11.1108 10.0761 11.0393C9.48031 10.5621 8.87211 10.0817 8.28383 9.61713L7.59453 9.07034V7.81057L11.7315 11.0681Z" fill="white"/>
<defs>
<linearGradient id="paint0_linear_3489_7077" x1="18.4873" y1="3.89074" x2="4.60319" y2="21.2458" gradientUnits="userSpaceOnUse">
<stop stop-color="#FF0420"/>
<stop offset="1" stop-color="#BD2738"/>
</linearGradient>
</defs>
</svg>
