<svg viewBox="0 0 24 24" fill="none" xmlns="http://www.w3.org/2000/svg">
    <path
        d="M12.0746 2.00033C9.4241 1.97854 6.88899 3.02051 4.93784 4.93584L4.93728 4.93641L4.84483 5.02758C1.0459 8.8571 1.05278 15.1386 4.85918 19.0319C6.7041 20.9167 9.19614 21.9708 11.8777 21.9995C11.9151 22 11.9518 22 11.9897 22C14.6287 22 17.1029 21.0016 18.9657 19.1815C20.903 17.2892 21.9802 14.751 21.9997 12.034C22.0193 9.37894 21.0207 6.90106 19.1878 5.05682C17.2516 3.10824 14.7246 2.0227 12.0741 2.00091L12.0746 2.00033ZM15.0961 9.19027C16.6011 10.8355 16.5575 13.3886 14.9635 14.9804C13.3695 16.5723 10.6655 16.6176 9.02619 14.9804C7.38684 13.3433 7.38684 10.6881 9.02618 9.05092C10.6655 7.41372 13.2076 7.41543 14.8537 8.94713C14.8566 7.48885 14.859 6.04031 14.8607 4.53155C15.9075 4.94386 16.898 5.58784 17.7684 6.46407C18.5441 7.24455 19.1311 8.1701 19.5083 9.18454C18.1468 9.18625 16.6384 9.18798 15.0961 9.19027Z"
        fill="white" />
</svg>