<svg viewBox="0 0 24 24" fill="none" xmlns="http://www.w3.org/2000/svg">
<path d="M11.9999 21.9549C17.4979 21.9549 21.9549 17.4979 21.9549 11.9999C21.9549 6.50193 17.4979 2.04492 11.9999 2.04492C6.50193 2.04492 2.04492 6.50193 2.04492 11.9999C2.04492 17.4979 6.50193 21.9549 11.9999 21.9549Z" fill="#0F1C08"/>
<path d="M17.9249 11.8002C16.7218 8.45071 10.1871 8.22941 8.44413 8.23072C8.28326 8.23084 8.21276 8.42319 8.32926 8.5341L17.328 17.1008C17.4251 17.1932 17.5832 17.1537 17.6196 17.0247C17.863 16.1637 18.5292 13.4829 17.9249 11.8002Z" fill="#ACE075"/>
<path d="M13.9891 15.1202C13.0681 15.376 10.1531 16.0655 8.62461 15.036C6.60594 13.6763 6.80964 10.1205 6.13347 7.6173C6.08154 7.42506 6.35273 7.25247 6.49478 7.39203L14.0613 14.8257C14.1586 14.9214 14.1206 15.0837 13.9891 15.1202Z" fill="#3EB751"/>
</svg>
