<svg viewBox="0 0 24 24" fill="none" xmlns="http://www.w3.org/2000/svg">
    <path
        d="M12.0053 20.856C11.0153 20.856 8.99325 19.188 7.30425 16.98C6.04125 15.327 3.89025 11.943 3.67425 7.81799L3.65625 7.45799L12.0083 3.14099L20.3482 7.45199L20.3393 7.79999C20.2432 11.97 18.0593 15.366 16.7693 17.019C15.0863 19.17 12.9953 20.856 12.0053 20.856ZM4.80825 8.11799L4.83825 8.39099C5.20125 11.838 6.99525 14.694 8.03025 16.089C9.60225 18.207 11.2253 19.479 11.8733 19.707L12.0023 19.752L12.1343 19.707C12.8033 19.482 14.4593 18.219 16.0493 16.125C17.3453 14.415 18.9442 11.685 19.1932 8.38799L19.2142 8.12399L12.0053 4.39799L4.80825 8.11799Z"
        fill="#0000FF" />
    <path
        d="M8.92773 14.5769L10.0227 11.9909C10.2357 11.4839 10.2447 10.9229 10.0437 10.4129L9.14673 8.13293H10.3437L11.0787 10.0079C11.3877 10.7939 11.3757 11.6519 11.0457 12.4289L10.1397 14.5769H8.92773Z"
        fill="#0000FF" />
    <path
        d="M14.1262 14.577L13.2142 12.426C12.8842 11.649 12.8752 10.788 13.1812 10.005L13.9162 8.13H15.1162L14.2192 10.41C14.0182 10.923 14.0242 11.481 14.2402 11.988L15.3352 14.574H14.1262V14.577Z"
        fill="#0000FF" />
</svg>