<svg viewBox="0 0 24 24" fill="none" xmlns="http://www.w3.org/2000/svg">
    <g clip-path="url(#clip0_8148_3604)">
        <path
            d="M2 12C2 13.9778 2.58649 15.9112 3.68531 17.5557C4.78412 19.2002 6.34591 20.4819 8.17316 21.2388C10.0004 21.9957 12.0111 22.1937 13.9509 21.8079C15.8907 21.422 17.6726 20.4696 19.0711 19.0711C20.4696 17.6726 21.422 15.8907 21.8079 13.9509C22.1937 12.0111 21.9957 10.0004 21.2388 8.17316C20.4819 6.34591 19.2002 4.78412 17.5557 3.68531C15.9112 2.58649 13.9778 2 12 2C9.34781 2 6.80429 3.05357 4.92893 4.92893C3.05357 6.80429 2 9.34781 2 12Z"
            fill="#121122" />
        <path fill-rule="evenodd" clip-rule="evenodd"
            d="M5.01666 9.46607C4.89443 10.2527 5.03833 11.0621 5.18777 11.8399C5.24536 11.9642 5.37154 12.0479 5.52707 12.1014C5.20808 12.7748 5.03273 13.5091 5.03273 14.2777C5.03273 17.5327 8.18385 20.1738 12.0705 20.1738C15.9572 20.1738 19.1105 17.5388 19.1105 14.2777C19.1105 13.501 18.9316 12.7596 18.6065 12.0807C18.7366 12.0271 18.8403 11.9492 18.8911 11.8399C19.0406 11.0621 19.1839 10.2527 19.0617 9.46607C18.9473 8.41051 18.585 8.08828 17.4973 8.35882C16.9439 8.48732 16.2145 8.81395 15.6536 9.19814C14.6038 8.6772 13.3787 8.37826 12.0705 8.37826C10.7473 8.37826 9.50939 8.68439 8.45195 9.21676C7.88775 8.82451 7.14351 8.48939 6.58166 8.35882C5.49333 8.08828 5.13166 8.41051 5.01666 9.46607ZM9.11439 14.1199C8.28939 13.7561 6.8794 13.8483 6.8794 13.8483C6.8794 13.8483 6.94551 15.1755 7.75496 15.6261C8.71495 16.1599 10.5 15.8955 10.5 15.8955C10.5 15.8955 10.3483 14.6611 9.11439 14.1172V14.1199ZM13.6983 15.8977C13.6983 15.8977 15.4833 16.1622 16.4433 15.6283C17.2527 15.1777 17.3188 13.8505 17.3188 13.8505C17.3188 13.8505 15.9088 13.7583 15.0838 14.1222C13.85 14.6611 13.6983 15.8927 13.6983 15.8927V15.8977ZM11.7183 16.8333C11.7183 16.9311 11.9 17.0105 12.1238 17.0105C12.3477 17.0105 12.5294 16.9311 12.5294 16.8333C12.5294 16.7355 12.3477 16.6566 12.1238 16.6566C11.9 16.6566 11.7183 16.7327 11.7183 16.8333Z"
            fill="#F2F4F8" />
        <path fill-rule="evenodd" clip-rule="evenodd"
            d="M20.0908 16.0162C19.4321 15.7618 18.7325 15.63 18.0263 15.6273H18.0275C17.8486 15.6273 17.8486 15.3495 18.0275 15.3495C18.7586 15.3519 19.4833 15.4876 20.1658 15.75C20.2003 15.7606 20.2295 15.784 20.2474 15.8154C20.2653 15.8468 20.2705 15.8839 20.2619 15.9189C20.2519 15.9544 20.2283 15.9845 20.1963 16.0027C20.1643 16.0209 20.1264 16.0257 20.0908 16.0162ZM4.02083 15.7562C4.70353 15.4938 5.42834 15.358 6.15971 15.3556V15.3572C6.33861 15.3572 6.33805 15.635 6.15971 15.635C5.45341 15.6375 4.75354 15.7694 4.09471 16.0239C4.05922 16.0333 4.02144 16.0284 3.98954 16.0102C3.95764 15.992 3.93416 15.962 3.92416 15.9267C3.91532 15.8913 3.92042 15.8539 3.93841 15.8221C3.95641 15.7904 3.98591 15.7667 4.02083 15.7562ZM5.43696 16.5522C5.7786 16.4435 6.13397 16.3839 6.49239 16.375C6.67029 16.376 6.66996 16.6528 6.4914 16.6528C6.16449 16.6614 5.8404 16.7158 5.52863 16.8145C5.23863 16.8995 4.90696 17.0195 4.69529 17.2156C4.56418 17.3372 4.36751 17.1412 4.49918 17.0195C4.7564 16.7817 5.11029 16.6506 5.43696 16.5522ZM6.49239 16.375H6.49251H6.4914H6.49239ZM6.80915 17.0689C6.53056 17.1882 6.26273 17.3311 6.0086 17.4962C5.7519 17.6544 5.52603 17.8579 5.34193 18.0967C5.32346 18.1285 5.31829 18.1663 5.32755 18.2019C5.33681 18.2375 5.35975 18.2679 5.39138 18.2867C5.42341 18.3045 5.46107 18.3093 5.49654 18.3C5.53201 18.2909 5.56258 18.2684 5.58193 18.2372C5.73804 18.0217 5.96193 17.8545 6.1836 17.7117C6.42691 17.5573 6.68216 17.4226 6.94693 17.3089C6.97854 17.2902 7.0015 17.2597 7.01086 17.2242C7.02021 17.1886 7.01521 17.1508 6.99693 17.1189C6.97768 17.0879 6.94724 17.0654 6.9119 17.056C6.87655 17.0467 6.83898 17.0514 6.80693 17.0689H6.80915ZM17.6936 16.6472C18.0206 16.6554 18.3447 16.7096 18.6564 16.8084C18.8175 16.8542 18.9748 16.9123 19.127 16.9822C19.2583 17.0397 19.3801 17.1164 19.4886 17.21C19.6198 17.3312 19.8164 17.1356 19.6853 17.0134C19.4298 16.7762 19.0781 16.6445 18.7492 16.5462C18.4075 16.4374 18.0521 16.3779 17.6936 16.3695C17.5148 16.3695 17.5142 16.6472 17.6936 16.6472ZM18.0003 17.7034C17.76 17.5548 17.5088 17.4248 17.2486 17.3145V17.3117C17.2171 17.2929 17.1943 17.2624 17.185 17.2269C17.1756 17.1914 17.1805 17.1536 17.1986 17.1217C17.2182 17.0908 17.2488 17.0685 17.2841 17.0593C17.3195 17.0501 17.3571 17.0547 17.3892 17.0723C17.9303 17.3084 18.4998 17.6117 18.8536 18.1C18.872 18.1319 18.8771 18.1696 18.8678 18.2052C18.8586 18.2407 18.8357 18.2712 18.8042 18.2901C18.7722 18.3077 18.7346 18.3124 18.6992 18.3031C18.6638 18.2938 18.6333 18.2712 18.6142 18.24C18.4542 18.0195 18.2281 17.8484 18.0003 17.7034Z"
            fill="#F2F4F8" />
        <path
            d="M2.96568 12.5478C3.09401 12.3478 4.22178 11.7462 5.61734 11.3889C5.91855 10.5335 6.2902 9.70454 6.72845 8.9106C6.7229 8.9106 7.84456 6.89726 7.83956 6.89615C7.51791 6.74977 7.20906 6.57676 6.91623 6.37893C6.86665 6.34079 6.82171 6.29697 6.78234 6.24837C6.75262 6.19932 6.73723 6.14294 6.7379 6.08559C6.7379 6.03893 6.80401 5.95559 6.83345 5.91893C6.90858 5.83055 6.99151 5.74912 7.08123 5.67559C7.29509 5.50048 7.5198 5.33905 7.75401 5.19226C7.86512 5.11893 7.98067 5.04726 8.09456 4.97504C8.89457 4.46559 9.33288 4.08226 10.0657 3.66115C10.7657 3.26004 11.1057 3.01282 11.9173 3.05449C12.9373 3.05449 15.4729 6.28449 16.6163 7.94893C17.3018 8.94891 18.2218 10.7495 18.5607 11.4267C18.6418 11.4473 18.7151 11.4667 18.7829 11.4867C19.8229 11.7989 20.8429 12.2567 21.0923 12.5478C21.3146 12.8067 20.3434 12.9223 19.3862 13.0889C18.429 13.2556 15.1818 13.3383 12.0613 13.3595C8.9407 13.3806 5.29845 13.2762 4.50568 13.1512C3.7129 13.0262 2.80623 12.7973 2.96568 12.5478Z"
            fill="#6665DD" />
        <path
            d="M17.6905 9.7578C17.6905 9.7578 15.6349 9.2428 12.0133 9.2428C8.12441 9.2428 6.25163 9.8428 6.25163 9.8428C6.25163 9.8428 6.02941 10.265 5.93274 10.5094C5.83608 10.7539 5.61719 11.3889 5.61719 11.3889C5.61719 11.3889 8.44664 10.8822 12.0678 10.8822C14.2482 10.8912 16.4244 11.0752 18.5755 11.4322C18.5755 11.4322 18.2472 10.6639 18.0505 10.3361C17.8538 10.0083 17.6905 9.7578 17.6905 9.7578Z"
            fill="#FF99A5" />
        <path
            d="M5.45666 5.41282C5.69222 5.37837 6.01222 6.09949 6.01222 6.09949C6.01222 6.09949 6.75333 5.90004 6.86888 6.09949C6.98444 6.29893 6.34777 6.77782 6.34777 6.77782C6.34777 6.77782 6.73222 7.45393 6.61055 7.59449C6.48888 7.73504 5.80333 7.30837 5.80333 7.30837C5.80333 7.30837 5.28055 7.89726 5.10999 7.80837C4.93944 7.71949 5.13277 6.95226 5.13277 6.95226C5.13277 6.95226 4.39333 6.63782 4.44389 6.45115C4.49444 6.26449 5.26499 6.20782 5.26499 6.20782C5.26499 6.20782 5.22166 5.44726 5.45666 5.41282Z"
            fill="#FFE600" />
    </g>
    <defs>
        <clipPath id="clip0_8148_3604">
            <rect width="20" height="20" fill="white" transform="translate(2 2)" />
        </clipPath>
    </defs>
</svg>