<?xml version="1.0" encoding="UTF-8" standalone="no"?>
<!-- Created with Inkscape (http://www.inkscape.org/) -->

<svg
   viewBox="0 0 235 235"
   version="1.1"
   id="svg767"
   inkscape:version="1.2.2 (b0a84865, 2022-12-01)"
   sodipodi:docname="treble_icon.svg"
   xmlns:inkscape="http://www.inkscape.org/namespaces/inkscape"
   xmlns:sodipodi="http://sodipodi.sourceforge.net/DTD/sodipodi-0.dtd"
   xmlns:xlink="http://www.w3.org/1999/xlink"
   xmlns="http://www.w3.org/2000/svg"
   xmlns:svg="http://www.w3.org/2000/svg">
   <sodipodi:namedview
      id="namedview769"
      pagecolor="#ffffff"
      bordercolor="#000000"
      borderopacity="0.25"
      inkscape:showpageshadow="2"
      inkscape:pageopacity="0.0"
      inkscape:pagecheckerboard="0"
      inkscape:deskcolor="#d1d1d1"
      inkscape:document-units="mm"
      showgrid="false"
      inkscape:zoom="0.914906"
      inkscape:cx="96.731248"
      inkscape:cy="561.25984"
      inkscape:window-width="2560"
      inkscape:window-height="1381"
      inkscape:window-x="0"
      inkscape:window-y="31"
      inkscape:window-maximized="1"
      inkscape:current-layer="layer1" />
   <defs
      id="defs764">
      <linearGradient
         id="linear-gradient"
         x1="2836.5898"
         y1="2592.439"
         x2="3722.0505"
         y2="2592.439"
         gradientUnits="userSpaceOnUse"
         gradientTransform="matrix(0.26458333,0,0,0.26458333,-834.83018,-537.41616)">
         <stop
            offset="0"
            stop-color="#0184ff"
            id="stop184" />
         <stop
            offset="1"
            stop-color="#09f9ff"
            id="stop186" />
      </linearGradient>
      <radialGradient
         id="radial-gradient-48"
         cx="3277.1379"
         cy="2584.6089"
         fx="3277.1379"
         fy="2584.6089"
         r="361.20148"
         xlink:href="#radial-gradient"
         gradientTransform="matrix(0.26458333,0,0,0.26458333,-834.83018,-537.41616)" />
      <radialGradient
         id="radial-gradient"
         cx="961.34491"
         cy="545.29156"
         fx="961.34491"
         fy="545.29156"
         r="63.271542"
         gradientUnits="userSpaceOnUse">
         <stop
            offset="0"
            stop-color="#020161"
            id="stop197" />
         <stop
            offset=".42197"
            stop-color="#01023c"
            id="stop199" />
         <stop
            offset=".78"
            stop-color="#010223"
            id="stop201" />
         <stop
            offset=".9996"
            stop-color="#01031b"
            id="stop203" />
      </radialGradient>
      <clipPath
         id="clippath-8">
         <path
            class="cls-35"
            d="m 3475.2558,2565.8039 c 0,0.4447 0.014,0.883 0.038,1.3177 v 98.1133 c -0.024,0.4384 -0.038,0.8709 -0.038,1.3106 v 202.0663 c 0,17.0944 -15.5382,31.0843 -34.5331,31.0843 -18.9926,0 -34.5332,-13.9899 -34.5332,-31.0843 v -504.8669 c 0,-17.0897 15.5406,-31.0808 34.5332,-31.0808 18.9949,0 34.5331,13.9851 34.5331,31.0808 z m -361.7047,-233.1398 c -18.9924,0 -34.5328,13.9851 -34.5328,31.0808 v 202.059 c 0,1.8593 -0.1835,3.6783 -0.5366,5.4469 v 89.8528 c 0.3531,1.7696 0.5366,3.5885 0.5366,5.4419 v 202.0663 c 0,17.0944 15.5403,31.0843 34.5328,31.0843 18.9949,0 34.5332,-13.9899 34.5332,-31.0843 v -504.8669 c 0,-17.0897 -15.5383,-31.0808 -34.5332,-31.0808 z m -138.1299,127.4883 c -18.9946,0 -34.5332,15.5384 -34.5332,34.5333 v 247.8281 c 0,18.9924 15.5386,34.5335 34.5332,34.5335 18.9924,0 34.5332,-15.5411 34.5332,-34.5335 v -247.8281 c 0,-18.9949 -15.5408,-34.5333 -34.5332,-34.5333 z m 603.4337,-16.4651 c -18.9925,0 -34.533,15.5399 -34.533,34.5319 v 84.4102 c 0,1.9966 -0.17,3.9492 -0.5008,5.8486 v 100.2354 c 0.3308,1.9063 0.5008,3.8576 0.5008,5.8484 v 84.4226 c 0,18.9922 15.5405,34.5335 34.533,34.5335 18.9947,0 34.533,-15.5413 34.533,-34.5335 v -280.7652 c 0,-18.999 -15.5383,-34.5319 -34.533,-34.5319 z m -147.9253,-192.9329 v -3.0851 c 0,-13.2187 -8.338,-24.428 -21.0017,-28.2303 -41.9442,-12.5866 -86.413,-19.3675 -132.4612,-19.3675 -46.0528,0 -90.5203,6.7809 -132.4647,19.3675 -12.6601,3.8023 -21.0027,15.0116 -21.0027,28.2303 v 3.0851 c 0,9.6378 4.1714,17.9238 11.9054,23.6639 7.7363,5.7439 16.8797,7.3342 26.1025,4.5451 27.1406,-8.2073 55.5109,-13.6059 84.7661,-15.8339 v 675.3273 c 0,16.8826 13.8199,30.6895 30.6876,30.6895 h 0.01 c 16.8654,0 30.6901,-13.819 30.6901,-30.6895 v -675.3273 c 29.2563,2.228 57.6267,7.6266 84.7661,15.8339 9.2215,2.7891 18.365,1.1988 26.1038,-4.5451 7.7315,-5.7401 11.9029,-14.0261 11.9029,-23.6639 z"
            id="path282" />
      </clipPath>
      <radialGradient
         id="radial-gradient-50"
         cx="3277.4644"
         cy="2547.3113"
         fx="3277.4644"
         fy="2547.3113"
         r="914.40625"
         xlink:href="#radial-gradient" />
      <radialGradient
         id="radialGradient756"
         cx="961.34491"
         cy="545.29156"
         fx="961.34491"
         fy="545.29156"
         r="63.271542"
         gradientUnits="userSpaceOnUse">
         <stop
            offset="0"
            stop-color="#020161"
            id="stop748" />
         <stop
            offset=".42197"
            stop-color="#01023c"
            id="stop750" />
         <stop
            offset=".78"
            stop-color="#010223"
            id="stop752" />
         <stop
            offset=".9996"
            stop-color="#01031b"
            id="stop754" />
      </radialGradient>
      <linearGradient
         id="linear-gradient-8"
         x1="756.87689"
         y1="2592.439"
         x2="1641.8602"
         y2="2592.439"
         xlink:href="#linear-gradient-2"
         gradientTransform="matrix(0.26458333,0,0,0.26458333,-62.844117,-417.25693)" />
      <linearGradient
         id="linear-gradient-2"
         x1="2744.7905"
         y1="229.34451"
         x2="3832.5288"
         y2="221.41911"
         gradientUnits="userSpaceOnUse">
         <stop
            offset="0"
            stop-color="#007cff"
            id="stop192" />
         <stop
            offset="1"
            stop-color="#09ffff"
            id="stop194" />
      </linearGradient>
      <clipPath
         id="clippath-6">
         <circle
            class="cls-52"
            cx="1199.3685"
            cy="2592.439"
            r="442.4917"
            id="circle271" />
      </clipPath>
      <radialGradient
         id="radial-gradient-45"
         cx="1197.5095"
         cy="2584.6089"
         fx="1197.5095"
         fy="2584.6089"
         r="775.15289"
         xlink:href="#radial-gradient-0" />
      <radialGradient
         id="radial-gradient-0"
         cx="961.34491"
         cy="545.29156"
         fx="961.34491"
         fy="545.29156"
         r="63.271542"
         gradientUnits="userSpaceOnUse">
         <stop
            offset="0"
            stop-color="#020161"
            id="stop197-2" />
         <stop
            offset=".42197"
            stop-color="#01023c"
            id="stop199-1" />
         <stop
            offset=".78"
            stop-color="#010223"
            id="stop201-8" />
         <stop
            offset=".9996"
            stop-color="#01031b"
            id="stop203-7" />
      </radialGradient>
      <clipPath
         id="clippath-7">
         <path
            class="cls-9"
            d="m 1395.3043,2565.8039 c 0,0.4447 0.014,0.883 0.038,1.3177 v 98.1133 c -0.024,0.4384 -0.038,0.8709 -0.038,1.3106 v 202.0663 c 0,17.0944 -15.5383,31.0843 -34.5332,31.0843 -18.9926,0 -34.5332,-13.9899 -34.5332,-31.0843 v -504.8669 c 0,-17.0897 15.5406,-31.0808 34.5332,-31.0808 18.9949,0 34.5332,13.9851 34.5332,31.0808 z m 518.5344,18.8104 h -1.0888 c -18.6973,0 -33.9896,15.2916 -33.9896,33.982 v 0.01 c 0,18.6949 15.2923,33.9876 33.9896,33.9876 h 1.0888 c 18.6949,0 33.9876,-15.2927 33.9876,-33.9876 v -0.01 c 0,-18.6904 -15.2927,-33.982 -33.9876,-33.982 z m -138.6776,-57.4121 c -18.9926,0 -34.5332,15.5413 -34.5332,34.5336 v 113.7267 c 0,18.9923 15.5406,34.5403 34.5332,34.5403 18.9945,0 34.5328,-15.548 34.5328,-34.5403 v -113.7267 c 0,-18.9923 -15.5382,-34.5336 -34.5328,-34.5336 z m 414.9351,57.4067 h -1.0842 c -18.695,0 -33.9877,15.297 -33.9877,33.9874 v 0.01 c 0,18.688 15.2927,33.9876 33.9877,33.9876 h 1.0842 c 18.6954,0 33.9877,-15.2996 33.9877,-33.9876 v -0.01 c 0,-18.6904 -15.2923,-33.9874 -33.9877,-33.9874 z m -138.1253,0 h -1.0888 c -18.6975,0 -33.9898,15.297 -33.9898,33.9874 v 0.01 c 0,18.688 15.2923,33.9876 33.9898,33.9876 h 1.0888 c 18.6883,0 33.9877,-15.2996 33.9877,-33.9876 v -0.01 c 0,-18.6904 -15.2994,-33.9874 -33.9877,-33.9874 z M 1033.5995,2332.6641 c -18.9924,0 -34.53284,13.9851 -34.53284,31.0808 v 202.059 c 0,1.8593 -0.18348,3.6783 -0.5366,5.4469 v 89.8528 c 0.35312,1.7696 0.5366,3.5885 0.5366,5.4419 v 202.0663 c 0,17.0944 15.54044,31.0843 34.53284,31.0843 18.9949,0 34.5332,-13.9899 34.5332,-31.0843 v -504.8669 c 0,-17.0897 -15.5383,-31.0808 -34.5332,-31.0808 z m -415.49869,194.5381 c -18.99243,0 -34.53318,15.5413 -34.53318,34.5336 v 113.7267 c 0,18.9923 15.54075,34.5403 34.53318,34.5403 18.99456,0 34.533,-15.548 34.533,-34.5403 v -113.7267 c 0,-18.9923 -15.53844,-34.5336 -34.533,-34.5336 z m -137.58672,57.4067 h -1.08881 c -18.6906,0 -33.98753,15.297 -33.98753,33.9874 v 0.01 c 0,18.688 15.29694,33.9876 33.98753,33.9876 h 1.08881 c 18.69521,0 33.98753,-15.2996 33.98753,-33.9876 v -0.01 c 0,-18.6904 -15.29232,-33.9874 -33.98753,-33.9874 z m -136.37493,0 h -1.08429 c -18.69521,0 -33.98753,15.297 -33.98753,33.9874 v 0.01 c 0,18.688 15.29232,33.9876 33.98753,33.9876 h 1.08429 c 18.69512,0 33.99428,-15.2996 33.99428,-33.9876 v -0.01 c 0,-18.6904 -15.29915,-33.9874 -33.99428,-33.9874 z m -138.12775,0 h -1.08881 c -18.69512,0 -33.98753,15.297 -33.98753,33.9874 v 0.01 c 0,18.688 15.29241,33.9876 33.98753,33.9876 h 1.08881 c 18.69734,0 33.98984,-15.2996 33.98984,-33.9876 v -0.01 c 0,-18.6904 -15.2925,-33.9874 -33.98984,-33.9874 z m 689.4582,-124.4565 c -18.99456,0 -34.53318,15.5384 -34.53318,34.5333 v 247.8281 c 0,18.9924 15.53862,34.5335 34.53318,34.5335 18.99243,0 34.53318,-15.5411 34.53318,-34.5335 v -247.8281 c 0,-18.9949 -15.54075,-34.5333 -34.53318,-34.5333 z m 603.43369,-16.4651 c -18.9925,0 -34.533,15.5399 -34.533,34.5319 v 84.4102 c 0,1.9966 -0.17,3.9492 -0.5008,5.8486 v 100.2354 c 0.3308,1.9063 0.5008,3.8576 0.5008,5.8484 v 84.4226 c 0,18.9922 15.5405,34.5335 34.533,34.5335 18.9947,0 34.533,-15.5413 34.533,-34.5335 v -280.7652 c 0,-18.999 -15.5383,-34.5319 -34.533,-34.5319 z M 1350.978,2250.7544 v -3.0851 c 0,-13.2187 -8.338,-24.428 -21.0017,-28.2303 -41.9442,-12.5866 -86.4129,-19.3675 -132.4611,-19.3675 -46.0529,0 -90.5204,6.7809 -132.4648,19.3675 -12.66,3.8023 -21.0027,15.0116 -21.0027,28.2303 v 3.0851 c 0,9.6378 4.1714,17.9238 11.9054,23.6639 7.7363,5.7439 16.8798,7.3342 26.1025,4.5451 27.1406,-8.2073 55.5109,-13.6059 84.7661,-15.8339 v 675.3273 c 0,16.8826 13.8199,30.6895 30.6876,30.6895 h 0.01 c 16.8653,0 30.69,-13.819 30.69,-30.6895 v -675.3273 c 29.2563,2.228 57.6268,7.6266 84.7661,15.8339 9.2215,2.7891 18.365,1.1988 26.1038,-4.5451 7.7315,-5.7401 11.9029,-14.0261 11.9029,-23.6639 z"
            id="path276" />
      </clipPath>
      <radialGradient
         id="radial-gradient-47"
         cx="1197.5128"
         cy="2547.3113"
         fx="1197.5128"
         fy="2547.3113"
         r="914.40625"
         xlink:href="#radial-gradient-0" />
      <radialGradient
         id="radialGradient2010"
         cx="961.34491"
         cy="545.29156"
         fx="961.34491"
         fy="545.29156"
         r="63.271542"
         gradientUnits="userSpaceOnUse">
         <stop
            offset="0"
            stop-color="#020161"
            id="stop2002" />
         <stop
            offset=".42197"
            stop-color="#01023c"
            id="stop2004" />
         <stop
            offset=".78"
            stop-color="#010223"
            id="stop2006" />
         <stop
            offset=".9996"
            stop-color="#01031b"
            id="stop2008" />
      </radialGradient>
   </defs>
   <g
      inkscape:label="Layer 1"
      inkscape:groupmode="layer"
      id="layer1">
      <g
         id="g2113"
         transform="matrix(1.0036222,0,0,1.0036222,-137.91061,-152.13234)">
         <circle
            class="cls-40"
            cx="254.4888"
            cy="268.65921"
            r="117.07593"
            id="circle470"
            style="fill:url(#linear-gradient-8);stroke-width:0.264583" />
         <g
            class="cls-3"
            clip-path="url(#clippath-6)"
            id="g478"
            transform="matrix(0.26458333,0,0,0.26458333,-62.844117,-417.25693)">
            <path
               class="cls-5"
               d="m 1395.3043,2565.8039 c 0,0.4447 0.014,0.883 0.038,1.3177 v 98.1133 c -0.024,0.4384 -0.038,0.8709 -0.038,1.3106 v 202.0663 c 0,17.0944 -15.5383,31.0843 -34.5332,31.0843 -18.9926,0 -34.5332,-13.9899 -34.5332,-31.0843 v -504.8669 c 0,-17.0897 15.5406,-31.0808 34.5332,-31.0808 18.9949,0 34.5332,13.9851 34.5332,31.0808 z m 518.5344,18.8104 h -1.0888 c -18.6973,0 -33.9896,15.2916 -33.9896,33.982 v 0.01 c 0,18.6949 15.2923,33.9876 33.9896,33.9876 h 1.0888 c 18.6949,0 33.9876,-15.2927 33.9876,-33.9876 v -0.01 c 0,-18.6904 -15.2927,-33.982 -33.9876,-33.982 z m -138.6776,-57.4121 c -18.9926,0 -34.5332,15.5413 -34.5332,34.5336 v 113.7267 c 0,18.9923 15.5406,34.5403 34.5332,34.5403 18.9945,0 34.5328,-15.548 34.5328,-34.5403 v -113.7267 c 0,-18.9923 -15.5382,-34.5336 -34.5328,-34.5336 z m 414.9351,57.4067 h -1.0842 c -18.695,0 -33.9877,15.297 -33.9877,33.9874 v 0.01 c 0,18.688 15.2927,33.9876 33.9877,33.9876 h 1.0842 c 18.6954,0 33.9877,-15.2996 33.9877,-33.9876 v -0.01 c 0,-18.6904 -15.2923,-33.9874 -33.9877,-33.9874 z m -138.1253,0 h -1.0888 c -18.6975,0 -33.9898,15.297 -33.9898,33.9874 v 0.01 c 0,18.688 15.2923,33.9876 33.9898,33.9876 h 1.0888 c 18.6883,0 33.9877,-15.2996 33.9877,-33.9876 v -0.01 c 0,-18.6904 -15.2994,-33.9874 -33.9877,-33.9874 z M 1033.5995,2332.6641 c -18.9924,0 -34.53284,13.9851 -34.53284,31.0808 v 202.059 c 0,1.8593 -0.18348,3.6783 -0.5366,5.4469 v 89.8528 c 0.35312,1.7696 0.5366,3.5885 0.5366,5.4419 v 202.0663 c 0,17.0944 15.54044,31.0843 34.53284,31.0843 18.9949,0 34.5332,-13.9899 34.5332,-31.0843 v -504.8669 c 0,-17.0897 -15.5383,-31.0808 -34.5332,-31.0808 z m -415.49869,194.5381 c -18.99243,0 -34.53318,15.5413 -34.53318,34.5336 v 113.7267 c 0,18.9923 15.54075,34.5403 34.53318,34.5403 18.99456,0 34.533,-15.548 34.533,-34.5403 v -113.7267 c 0,-18.9923 -15.53844,-34.5336 -34.533,-34.5336 z m -137.58672,57.4067 h -1.08881 c -18.6906,0 -33.98753,15.297 -33.98753,33.9874 v 0.01 c 0,18.688 15.29694,33.9876 33.98753,33.9876 h 1.08881 c 18.69521,0 33.98753,-15.2996 33.98753,-33.9876 v -0.01 c 0,-18.6904 -15.29232,-33.9874 -33.98753,-33.9874 z m -136.37493,0 h -1.08429 c -18.69521,0 -33.98753,15.297 -33.98753,33.9874 v 0.01 c 0,18.688 15.29232,33.9876 33.98753,33.9876 h 1.08429 c 18.69512,0 33.99428,-15.2996 33.99428,-33.9876 v -0.01 c 0,-18.6904 -15.29915,-33.9874 -33.99428,-33.9874 z m -138.12775,0 h -1.08881 c -18.69512,0 -33.98753,15.297 -33.98753,33.9874 v 0.01 c 0,18.688 15.29241,33.9876 33.98753,33.9876 h 1.08881 c 18.69734,0 33.98984,-15.2996 33.98984,-33.9876 v -0.01 c 0,-18.6904 -15.2925,-33.9874 -33.98984,-33.9874 z m 689.4582,-124.4565 c -18.99456,0 -34.53318,15.5384 -34.53318,34.5333 v 247.8281 c 0,18.9924 15.53862,34.5335 34.53318,34.5335 18.99243,0 34.53318,-15.5411 34.53318,-34.5335 v -247.8281 c 0,-18.9949 -15.54075,-34.5333 -34.53318,-34.5333 z m 603.43369,-16.4651 c -18.9925,0 -34.533,15.5399 -34.533,34.5319 v 84.4102 c 0,1.9966 -0.17,3.9492 -0.5008,5.8486 v 100.2354 c 0.3308,1.9063 0.5008,3.8576 0.5008,5.8484 v 84.4226 c 0,18.9922 15.5405,34.5335 34.533,34.5335 18.9947,0 34.533,-15.5413 34.533,-34.5335 v -280.7652 c 0,-18.999 -15.5383,-34.5319 -34.533,-34.5319 z M 1350.978,2250.7544 v -3.0851 c 0,-13.2187 -8.338,-24.428 -21.0017,-28.2303 -41.9442,-12.5866 -86.4129,-19.3675 -132.4611,-19.3675 -46.0529,0 -90.5204,6.7809 -132.4648,19.3675 -12.66,3.8023 -21.0027,15.0116 -21.0027,28.2303 v 3.0851 c 0,9.6378 4.1714,17.9238 11.9054,23.6639 7.7363,5.7439 16.8798,7.3342 26.1025,4.5451 27.1406,-8.2073 55.5109,-13.6059 84.7661,-15.8339 v 675.3273 c 0,16.8826 13.8199,30.6895 30.6876,30.6895 h 0.01 c 16.8653,0 30.69,-13.819 30.69,-30.6895 v -675.3273 c 29.2563,2.228 57.6268,7.6266 84.7661,15.8339 9.2215,2.7891 18.365,1.1988 26.1038,-4.5451 7.7315,-5.7401 11.9029,-14.0261 11.9029,-23.6639 z"
               id="path472"
               style="fill:url(#radial-gradient-45)" />
            <g
               class="cls-4"
               clip-path="url(#clippath-7)"
               id="g476">
               <rect
                  class="cls-55"
                  y="2059.2124"
                  width="2395.0256"
                  height="976.19763"
                  id="rect474"
                  style="fill:url(#radial-gradient-47)"
                  x="0" />
            </g>
         </g>
      </g>
   </g>
</svg>