<svg viewBox="0 0 24 24" fill="none" xmlns="http://www.w3.org/2000/svg">
  <g clip-path="url(#clip0_5478_171811)">
    <path
      d="M22 12C22 6.47715 17.5228 2 12 2C6.47715 2 2 6.47715 2 12C2 17.5228 6.47715 22 12 22C17.5228 22 22 17.5228 22 12Z"
      fill="#0B1435"
    />
    <path
      d="M19.9878 7.80987C19.5975 7.1489 18.7506 6.36284 15.9213 7.00116C15.8251 7.02279 15.7285 6.9744 15.6854 6.88688C15.2213 5.9325 14.1313 5.06665 12.5303 5.06665C11.7629 5.06665 10.6062 5.33588 9.48593 5.7724C9.44799 5.78733 9.40639 5.79042 9.36639 5.78166C9.12579 5.72967 8.79326 5.83572 8.57243 5.94073C8.30379 6.06839 8.05021 6.25938 7.94941 6.45757C7.93123 6.49308 7.90369 6.52191 7.8694 6.54147C6.50489 7.32598 4.93359 8.62629 4.93359 10.4578C4.93359 11.1991 5.12792 11.9528 5.56024 12.8768C5.59143 12.9437 5.59506 13.0209 5.56545 13.0888C5.22146 13.8816 5.17313 14.7031 5.41839 15.5917C5.97437 17.6132 8.42279 18.9196 11.6553 18.9196C13.0868 18.9196 14.4855 18.6272 15.5935 18.0971C16.6571 17.5879 17.4152 16.8796 17.7437 16.091C17.7649 16.0401 17.8049 15.9999 17.8559 15.9773C17.9129 15.9515 17.9665 15.9191 18.0149 15.8789C18.1873 15.7373 18.2887 15.5125 18.3001 15.2457C18.3084 15.0553 18.2419 14.8705 18.1177 14.7387C18.0071 14.621 17.9447 14.437 17.9609 14.2764C17.9679 14.2059 17.9641 14.1296 17.9451 14.0478C17.8673 13.7122 17.5134 13.5094 17.1871 13.4708C17.1326 13.4641 17.0831 13.4368 17.0484 13.3946C16.9839 13.3164 16.9169 13.2407 16.8472 13.1677C16.7844 13.1023 16.773 13.0039 16.8177 12.9252C17.0442 12.5293 17.184 12.0949 17.2723 11.648C17.2853 11.5837 17.3275 11.5286 17.3871 11.5002C18.8223 10.8177 19.8033 9.91732 20.0876 9.01698C20.2273 8.57431 20.193 8.15683 19.9878 7.80987ZM8.72413 6.25474C8.90499 6.16878 9.05879 6.13016 9.16533 6.11885C9.21366 6.11369 9.24119 6.17238 9.20686 6.20635C9.13099 6.28152 9.00473 6.37622 8.82446 6.4622C8.64309 6.54817 8.48929 6.58677 8.38278 6.59758C8.33445 6.60274 8.30691 6.54404 8.34121 6.51007C8.41707 6.43491 8.54333 6.34019 8.72413 6.25474ZM5.99827 12.3203C5.95151 12.3877 5.84759 12.3764 5.81589 12.3007C5.53115 11.6115 5.40124 11.0266 5.40124 10.4578C5.40124 8.85792 6.8811 7.67964 7.93434 7.04286C7.97955 7.01557 8.02425 6.98932 8.06789 6.96359C8.11154 6.93784 8.15935 6.93064 8.20819 6.93784C8.44929 6.97543 8.76053 6.87762 8.97666 6.77466C9.18713 6.67531 9.46666 6.49565 9.58566 6.28512C9.61013 6.24188 9.64753 6.20688 9.69373 6.18885C10.7377 5.78579 11.8367 5.52943 12.5309 5.52943C13.9016 5.52943 14.8363 6.24548 15.2438 7.04492C15.2729 7.10206 15.2421 7.17156 15.1797 7.18906C14.2357 7.45312 13.1492 7.84281 11.9421 8.34986C10.6051 8.91198 9.47653 9.48085 8.55009 10.062C8.53969 10.0687 8.52722 10.0703 8.51527 10.0661C8.50331 10.062 8.49448 10.0538 8.48982 10.0424C8.32977 9.64812 8.20974 9.24045 8.21129 8.81265C8.21129 8.29736 8.37913 7.78824 8.58074 7.31054C8.58802 7.29355 8.58074 7.27348 8.56411 7.26525C8.54905 7.25752 8.52982 7.26216 8.52099 7.27656C8.50176 7.30693 8.48306 7.33679 8.46436 7.36716C8.03671 8.06468 7.766 8.81418 7.88758 9.65118C7.91772 9.89678 7.96863 10.1361 8.02996 10.3703C8.03464 10.3873 8.02736 10.4053 8.01281 10.4151C7.1222 11.0328 6.45345 11.6655 5.99932 12.3188L5.99827 12.3203ZM16.8961 13.7828C17.3493 13.7216 17.5841 13.889 17.6391 14.1105C17.6401 14.115 17.6411 14.1196 17.6422 14.124C17.6849 14.3217 17.5321 14.5081 17.3279 14.5189C15.6458 14.6074 13.9156 15.7388 12.0569 15.9108C10.9517 16.0118 9.82206 15.7661 8.85146 15.2323C8.82653 15.2184 8.79533 15.2272 8.78079 15.2514C8.76626 15.2762 8.77453 15.3085 8.79999 15.323C9.44953 15.6971 10.1713 15.9463 10.9164 16.0489C12.9507 16.3587 14.577 15.4176 16.4544 14.9466C16.9215 14.8381 17.1875 14.8144 17.4941 14.821C17.8049 14.8293 17.9877 15.0075 17.9884 15.2329C17.9884 15.4764 17.7669 15.7852 17.3684 15.7285C17.3638 15.7285 17.3593 15.7273 17.3547 15.7266C15.9341 15.5277 14.7394 15.96 13.5846 16.3782C12.5609 16.7489 11.5015 17.1329 10.257 17.1004C9.30353 17.0768 8.54021 16.7838 8.10738 16.2752C7.73065 15.8336 7.66207 15.2709 7.91564 14.8751C8.82339 13.4605 10.6805 14.8669 11.8761 15.099C13.6106 15.4362 15.2957 13.9995 16.8961 13.7828ZM16.9261 10.53C16.9261 10.5303 16.9263 10.5305 16.9266 10.5306C17.0033 10.5544 17.0556 10.6248 17.0551 10.7045C17.0551 11.9059 16.6923 12.8495 16.5464 12.8495C16.5224 12.8495 16.4981 12.8412 16.4778 12.8248C15.6167 12.1077 15.3112 12.1844 15.2375 11.9023C15.0037 11.0087 14.6404 10.8203 14.3261 10.8681C14.0117 10.916 13.6807 11.0627 13.7358 11.8143C13.7421 11.9013 13.7379 11.9908 13.7379 12.0814C13.7379 12.4088 13.7098 12.7501 13.4521 13.0641C12.9091 13.7354 11.8345 13.7642 11.7088 13.7642C11.0679 13.7642 10.3337 13.5138 10.046 11.8668C10.0457 11.8651 10.0455 11.8633 10.0455 11.8616L10.0362 11.7777C10.0299 11.7236 9.98373 11.6861 9.93279 11.6861C9.88186 11.6861 7.55243 12.7234 7.27445 12.833C7.25885 12.8392 7.24118 12.835 7.22924 12.8232C7.22143 12.815 7.21728 12.8032 7.21885 12.7919C7.22041 12.7805 7.22664 12.7702 7.23651 12.7641C7.49528 12.6008 8.93199 11.6959 9.26353 11.5085C10.2679 10.9577 11.0401 10.5706 11.9489 10.5706C12.6795 10.5706 13.2124 10.8265 13.4125 10.8893C13.4467 10.9001 13.4837 10.8918 13.5112 10.8681C13.6234 10.7719 13.9648 10.5078 14.3483 10.5078C14.6383 10.49 14.9512 10.6375 15.0557 10.6931C15.0842 10.7081 15.1174 10.709 15.1471 10.6962C15.2931 10.6313 15.7654 10.4429 16.3235 10.4429C16.5261 10.4429 16.7276 10.4697 16.9244 10.5293C16.9245 10.5294 16.9247 10.5294 16.9248 10.5294H16.9255C16.9259 10.5294 16.9261 10.5296 16.9261 10.53ZM17.5799 9.95978C17.5799 9.95998 17.5799 9.96018 17.5798 9.96032C17.5667 9.99605 17.5145 9.99038 17.5097 9.95232C17.4329 9.29192 17.2749 8.72358 16.5007 8.64792C16.2825 8.62166 16.048 8.63452 15.8085 8.66285C14.9055 8.77558 14.0071 9.01958 13.104 9.20338C13.0681 9.21058 13.0509 9.16112 13.0837 9.14465C13.9275 8.72305 14.8051 8.39002 15.7467 8.22323C16.2897 8.13623 16.9345 8.12646 17.3565 8.54032C17.7347 8.91245 17.7498 9.48732 17.5799 9.95932C17.5799 9.95945 17.5799 9.95965 17.5799 9.95978Z"
      fill="#0B1435"
    />
    <path
      d="M16.4654 11.0398C16.4654 11.0399 16.4654 11.0401 16.4652 11.0402L15.8404 11.6593C15.79 11.7093 15.7027 11.6819 15.6914 11.6119C15.6642 11.4436 15.6201 11.2881 15.5614 11.1481C15.5422 11.1023 15.5656 11.0498 15.6128 11.0333C15.8128 10.9628 16.0768 10.8907 16.4031 10.8907C16.4815 10.8907 16.521 10.9847 16.4656 11.0393C16.4655 11.0395 16.4654 11.0396 16.4654 11.0398Z"
      fill="#0B1435"
    />
    <path
      d="M12.6555 11.2879C12.6555 11.2878 12.6556 11.2876 12.6557 11.2875C12.7147 11.2288 12.6835 11.1281 12.601 11.1137C12.1926 11.0411 11.2085 10.9515 10.5153 11.5831C10.4914 11.6048 10.4794 11.6367 10.4831 11.6691C10.5007 11.8395 10.5792 12.4037 10.8795 12.8711C10.9149 12.9262 10.9939 12.9344 11.0406 12.8881L12.6554 11.2883C12.6554 11.2883 12.6555 11.2881 12.6555 11.2879Z"
      fill="#0B1435"
    />
    <path
      d="M18.9138 8.38948C18.5738 7.81374 17.836 7.12905 15.3716 7.68505C15.2878 7.70389 15.2036 7.66174 15.1661 7.58551C14.7619 6.75419 13.8124 6 12.4179 6C11.7494 6 10.7419 6.23451 9.76605 6.61474C9.73305 6.62775 9.69685 6.63044 9.66198 6.62281C9.45238 6.57753 9.16271 6.6699 8.97038 6.76137C8.73638 6.87257 8.51551 7.03893 8.42771 7.21156C8.41187 7.24249 8.38789 7.2676 8.35801 7.28465C7.16946 7.96799 5.80078 9.1006 5.80078 10.696C5.80078 11.3417 5.97005 11.9981 6.34662 12.803C6.37379 12.8613 6.37695 12.9285 6.35115 12.9877C6.05153 13.6783 6.00943 14.3939 6.22306 15.1679C6.70735 16.9287 8.84005 18.0667 11.6557 18.0667C12.9026 18.0667 14.121 17.8119 15.086 17.3502C16.0125 16.9067 16.6728 16.2897 16.959 15.6028C16.9774 15.5584 17.0123 15.5234 17.0567 15.5037C17.1064 15.4812 17.1531 15.453 17.1952 15.418C17.3454 15.2947 17.4337 15.0988 17.4436 14.8665C17.4508 14.7006 17.393 14.5396 17.2848 14.4248C17.2368 14.3737 17.1644 14.3167 17.059 14.2768C17.1314 14.1625 17.1775 14.0088 17.1344 13.8231C17.0666 13.5307 16.7584 13.3541 16.4742 13.3205C16.4267 13.3146 16.3836 13.2909 16.3534 13.2541C16.2972 13.1859 16.2388 13.12 16.1781 13.0563C16.1234 12.9994 16.1135 12.9137 16.1524 12.8451C16.3497 12.5003 16.4714 12.1219 16.5484 11.7327C16.5597 11.6767 16.5964 11.6287 16.6484 11.604C17.8986 11.0095 18.753 10.2252 19.0006 9.44093C19.1224 9.05533 19.0925 8.69167 18.9138 8.38948ZM9.10251 7.03489C9.26005 6.96001 9.39405 6.92637 9.48678 6.91652C9.52891 6.91203 9.55291 6.96315 9.52305 6.99274C9.45691 7.05821 9.34698 7.1407 9.18991 7.21559C9.03191 7.29047 8.89798 7.3241 8.80518 7.33351C8.76311 7.33801 8.73911 7.28689 8.76898 7.25729C8.83505 7.19183 8.94505 7.10931 9.10251 7.03489ZM6.72817 12.3183C6.68744 12.377 6.59691 12.3671 6.56931 12.3013C6.32128 11.7009 6.20813 11.1915 6.20813 10.696C6.20813 9.3024 7.49715 8.27604 8.41458 7.72138C8.45396 7.69761 8.49289 7.67475 8.53091 7.65233C8.56893 7.6299 8.61057 7.62363 8.65312 7.6299C8.86312 7.66264 9.13425 7.57745 9.32251 7.48777C9.50585 7.40122 9.74931 7.24473 9.85298 7.06135C9.87425 7.02368 9.90685 6.99319 9.94711 6.97749C10.8564 6.62641 11.8136 6.40311 12.4184 6.40311C13.6123 6.40311 14.4266 7.02682 14.7814 7.72317C14.8068 7.77294 14.78 7.83347 14.7257 7.84872C13.9034 8.07874 12.957 8.41817 11.9056 8.85987C10.741 9.34947 9.75791 9.84493 8.95091 10.3512C8.94185 10.357 8.93098 10.3584 8.92058 10.3548C8.91018 10.3512 8.90251 10.344 8.89845 10.3341C8.75905 9.99067 8.65447 9.63553 8.65582 9.26293C8.65582 8.81413 8.80205 8.37065 8.97765 7.95455C8.98398 7.93974 8.97765 7.92226 8.96311 7.91509C8.95005 7.90835 8.93325 7.91239 8.92558 7.92494C8.90885 7.95139 8.89251 7.97741 8.87625 8.00386C8.50376 8.61143 8.26795 9.26427 8.37385 9.9934C8.4001 10.2073 8.44445 10.4157 8.49787 10.6198C8.50195 10.6346 8.4956 10.6503 8.48293 10.6588C7.70717 11.1969 7.12465 11.7479 6.72908 12.3169L6.72817 12.3183ZM16.2208 13.5922C16.6195 13.5383 16.8241 13.6877 16.8692 13.8835C16.8692 13.8854 16.8702 13.8877 16.8706 13.8895C16.9077 14.0616 16.7747 14.224 16.5968 14.2333C15.1316 14.3105 13.6246 15.296 12.0056 15.4458C11.0428 15.5337 10.0589 15.3197 9.21345 14.8548C9.19172 14.8427 9.16458 14.8503 9.15191 14.8714C9.13918 14.893 9.14645 14.9211 9.16865 14.9337C9.73438 15.2597 10.363 15.4767 11.0121 15.5661C12.784 15.8359 14.2006 15.0162 15.836 14.6059C16.2428 14.5114 16.4746 14.4908 16.7416 14.4965C17.0123 14.5038 17.1716 14.6589 17.1721 14.8553C17.1721 15.0674 16.9792 15.3364 16.6321 15.2871C16.6303 15.2871 16.628 15.2871 16.6262 15.2863C15.3861 15.1109 14.3437 15.488 13.3362 15.853C12.4446 16.1758 11.5217 16.5103 10.4377 16.4821C9.60718 16.4614 8.94231 16.2063 8.56531 15.7633C8.23716 15.3786 8.17742 14.8885 8.39829 14.5436C9.18898 13.3115 10.8066 14.5365 11.848 14.7387C13.3588 15.0325 14.8266 13.781 16.2208 13.5922ZM16.2469 10.7592C16.3139 10.7799 16.3596 10.8413 16.3592 10.9108C16.3592 11.9573 16.0432 12.7792 15.9161 12.7792C15.8952 12.7792 15.874 12.7721 15.8563 12.7577C15.1063 12.1331 14.8402 12.1999 14.776 11.9542C14.5723 11.1758 14.2559 11.0117 13.9821 11.0534C13.7083 11.0951 13.42 11.2229 13.4679 11.8775C13.4734 11.9533 13.4698 12.0313 13.4698 12.1103C13.4698 12.3954 13.4453 12.6927 13.2208 12.9662C12.7478 13.5509 11.8118 13.576 11.7023 13.576C11.1438 13.576 10.5038 13.3577 10.2535 11.921C10.2535 11.9201 10.2535 11.9197 10.2535 11.9188L10.2454 11.8457C10.2399 11.7986 10.1996 11.7659 10.1553 11.7659C10.111 11.7659 8.08191 12.6694 7.83978 12.7649C7.8262 12.7703 7.81081 12.7667 7.8004 12.7564C7.7936 12.7492 7.78999 12.7389 7.79135 12.729C7.79271 12.7191 7.79813 12.7102 7.80673 12.7048C8.03213 12.5627 9.28358 11.7744 9.57238 11.6112C10.4472 11.1314 11.1198 10.7942 11.9114 10.7942C12.5478 10.7942 13.012 11.0171 13.1862 11.0717C13.2162 11.0812 13.2483 11.074 13.2722 11.0534C13.37 10.9695 13.6674 10.7395 14.0014 10.7395C14.254 10.724 14.5266 10.8525 14.6176 10.9009C14.6424 10.9139 14.6714 10.9148 14.6972 10.9036C14.8244 10.8471 15.2358 10.683 15.722 10.683C15.8984 10.683 16.074 10.7063 16.2456 10.7583H16.2469V10.7592ZM16.8163 10.2624C16.805 10.2938 16.7593 10.2889 16.7552 10.2557C16.6882 9.6804 16.5507 9.1854 15.8763 9.11947C15.6862 9.0966 15.482 9.1078 15.2734 9.13247C14.4868 9.23067 13.7042 9.4432 12.9176 9.60327C12.8863 9.60953 12.8714 9.56653 12.8999 9.55213C13.635 9.18493 14.3994 8.8948 15.2195 8.74953C15.6925 8.67373 16.2541 8.66525 16.6218 9.02573C16.9512 9.34993 16.9643 9.8508 16.8163 10.2619V10.2624Z"
      fill="white"
    />
    <path
      d="M15.8461 11.2031L15.3015 11.7425C15.2577 11.7861 15.1817 11.7623 15.1718 11.7013C15.1482 11.5547 15.1097 11.4193 15.0586 11.2973C15.0419 11.2574 15.0623 11.2117 15.1034 11.1973C15.2775 11.1359 15.5075 11.0731 15.7917 11.0731C15.8601 11.0731 15.8946 11.1552 15.8461 11.2027V11.2031Z"
      fill="white"
    />
    <path
      d="M12.5257 11.4188C12.5773 11.3677 12.5502 11.2798 12.4782 11.2672C12.1224 11.204 11.2652 11.126 10.6614 11.6762C10.6406 11.695 10.6302 11.7228 10.6334 11.751C10.6488 11.8994 10.7171 12.3909 10.9787 12.798C11.0094 12.846 11.0783 12.8532 11.119 12.8128L12.5257 11.4192V11.4188Z"
      fill="white"
    />
  </g>
  <defs>
    <clipPath id="clip0_5478_171811">
      <rect width="20" height="20" fill="white" transform="translate(2 2)" />
    </clipPath>
  </defs>
</svg>
