<svg viewBox="0 0 24 24" fill="none" xmlns="http://www.w3.org/2000/svg">
    <path fill-rule="evenodd" clip-rule="evenodd"
        d="M22 3.43351L14.705 10.6843L13.3748 9.34386L15.5236 7.17907C14.3868 7.47659 13.1944 7.63491 11.9653 7.63491C10.7537 7.63491 9.57774 7.48106 8.45563 7.1917L22 20.6787C22 20.6787 21.5176 21.1191 20.5529 22C20.5529 22 17.6667 18.4949 11.9653 18.4949C6.26388 18.4949 3.41384 22 3.41384 22C2 20.5561 3.41384 22 2 20.5561L9.26571 13.4079L10.6069 14.7595L8.42892 16.9537C9.55908 16.6599 10.7441 16.5036 11.9653 16.5036C13.1667 16.5036 14.333 16.6549 15.4466 16.9395L2 3.43351L3.41384 2C5.87229 4.40841 8.72278 5.61262 11.9653 5.61262C15.2078 5.61262 18.0704 4.40841 20.5529 2C20.5529 2 21.0353 2.47784 22 3.43351Z"
        fill="#90EFFF" />
</svg>