<svg width="435" height="88" viewBox="0 0 435 88" fill="none" xmlns="http://www.w3.org/2000/svg">
<path d="M147.072 66.3421C154.838 66.3421 160.706 64.7512 160.706 56.9845C160.706 51.3733 157.011 48.9782 151.502 48.1913L138.86 46.3779C129.451 45.0607 124.729 40.168 124.729 31.6827C124.729 20.2208 134.617 15.4992 146.079 15.4992C153.367 15.4992 158.841 17.1073 162.537 20.3064C166.232 23.5054 168.267 27.731 168.661 33H160.449C159.457 25.2504 153.932 22.0855 145.994 22.0855C141.717 22.0855 138.535 22.9238 136.431 24.5832C134.327 26.2597 133.266 28.535 133.266 31.4432C133.266 35.9938 136.089 38.4572 140.571 39.1586L153.949 41.126C165.308 42.7512 169.225 48.3282 169.225 55.9067C169.225 67.2317 161.835 72.9114 147.054 72.9114C138.74 72.9114 132.65 71.0638 128.818 67.3686C124.986 63.6734 123.07 58.986 123.07 53.2893H131.281C131.555 61.9969 136.807 66.3421 147.054 66.3421H147.072Z" fill="white"/>
<path d="M269.235 36.028C259.655 36.028 257.568 44.7014 257.568 54.2644V71.5941H249.527V46.7201C249.527 40.2022 247.338 36.0451 240.82 36.0451C231.291 36.0451 229.152 44.7698 229.152 54.2815V71.6112H220.941V30.5537H229.152V39.5008C231.89 32.6579 236.714 29.2364 243.608 29.2364C250.502 29.2364 255.378 32.4526 256.986 39.8258C259.723 32.7605 264.736 29.2364 272.006 29.2364C281.415 29.2364 286.137 34.8134 286.137 45.9844V71.6112H277.925V46.7372C277.925 40.1851 275.701 36.0622 269.218 36.0622L269.235 36.028Z" fill="white"/>
<path d="M342.078 36.028C332.498 36.028 330.411 44.7014 330.411 54.2644V71.5941H322.353V46.7201C322.353 40.2022 320.163 36.0451 313.645 36.0451C304.134 36.0451 301.978 44.7527 301.978 54.2815V71.6112H293.767V30.5537H301.978V39.5008C304.715 32.6579 309.54 29.2364 316.434 29.2364C323.328 29.2364 328.204 32.4868 329.812 39.8258C332.549 32.7605 337.561 29.2364 344.832 29.2364C354.241 29.2364 358.963 34.8134 358.963 45.9844V71.6112H350.751V46.7372C350.751 40.2193 348.561 36.0622 342.044 36.0622L342.078 36.028Z" fill="white"/>
<path d="M379.645 50.9798C379.645 38.3204 387.138 29.2193 400.824 29.2193C414.51 29.2193 422.003 38.1664 422.003 50.9798C422.003 63.7932 414.596 72.9114 400.824 72.9114C387.053 72.9114 379.645 63.6905 379.645 50.9798ZM400.824 66.3421C410.575 66.3421 413.723 60.902 413.723 51.0653C413.723 41.2286 410.593 35.7885 400.824 35.7885C391.056 35.7885 387.925 41.2115 387.925 51.0653C387.925 60.9191 391.056 66.3421 400.824 66.3421Z" fill="white"/>
<path d="M365.994 16.9876H374.616V24.3779H365.994V16.9876ZM366.199 30.5365H374.411V71.5941H366.199V30.5365Z" fill="white"/>
<path d="M209.376 30.5366L209.342 30.6221L195.896 65.7605L194.459 69.8834L193.142 65.7605L180.02 30.5194H171.569L187.086 71.577H193.689L189.925 81.4137H177.779V87.9829H184.844C188.078 87.9829 190.593 87.5552 192.389 86.6827C194.202 85.7932 195.622 84.5101 196.666 82.8165C197.709 81.1229 198.89 78.5739 200.19 75.1866L217.365 30.5194H209.393L209.376 30.5366Z" fill="white"/>
<path d="M424.655 16.9876V18.3219H422.089V24.3779H420.481V18.3219H417.914V16.9876H424.655ZM425.596 16.9876H427.888L429.941 22.154H430.061L432.096 16.9876H434.389V24.3779H432.832V19.3142H432.712L430.694 24.3779H429.325L427.306 19.3142H427.187V24.3779H425.63V16.9876H425.596Z" fill="white"/>
<path d="M32.6236 71.5941L32.4526 71.8849L32.6236 71.5941ZM49.8507 0L40.014 14.1135L49.8507 28.056L59.6874 14.1135L49.8507 0ZM64.9736 21.7092L55.5816 36.182L80.5241 71.577H99.6843L64.9565 21.7092H64.9736ZM49.8507 45.0435L32.6236 71.577H67.0778L49.8507 45.0435ZM67.2659 71.8678L67.0949 71.577L67.2659 71.8678ZM34.7278 21.7263L0 71.5941H19.1602L44.1026 36.1991L34.7107 21.7434L34.7278 21.7263Z" fill="white"/>
</svg>
